<svg width="28" height="28" viewBox="0 0 28 28" fill="none" xmlns="http://www.w3.org/2000/svg">
<path fill-rule="evenodd" clip-rule="evenodd" d="M26.541 16.2803H2.04102C1.55802 16.2803 1.16602 15.8883 1.16602 15.4053C1.16602 14.9223 1.55802 14.5303 2.04102 14.5303H26.541C27.024 14.5303 27.416 14.9223 27.416 15.4053C27.416 15.8883 27.024 16.2803 26.541 16.2803Z" fill="#212121"/>
<path fill-rule="evenodd" clip-rule="evenodd" d="M24.3587 11.3692C23.8757 11.3692 23.4837 10.9772 23.4837 10.4942V8.72783C23.4837 6.811 21.9227 5.25 20.0035 5.25H18.5977C18.1147 5.25 17.7227 4.858 17.7227 4.375C17.7227 3.892 18.1147 3.5 18.5977 3.5H20.0035C22.8875 3.5 25.2337 5.84617 25.2337 8.72783V10.4942C25.2337 10.9772 24.8417 11.3692 24.3587 11.3692Z" fill="#212121"/>
<path fill-rule="evenodd" clip-rule="evenodd" d="M4.22266 11.3692C3.73966 11.3692 3.34766 10.9772 3.34766 10.4942V8.72783C3.34766 5.84617 5.69383 3.5 8.57783 3.5H10.0198C10.5028 3.5 10.8948 3.892 10.8948 4.375C10.8948 4.858 10.5028 5.25 10.0198 5.25H8.57783C6.65866 5.25 5.09766 6.811 5.09766 8.72783V10.4942C5.09766 10.9772 4.70566 11.3692 4.22266 11.3692Z" fill="#212121"/>
<path fill-rule="evenodd" clip-rule="evenodd" d="M20.0035 25.3875H18.5977C18.1147 25.3875 17.7227 24.9955 17.7227 24.5125C17.7227 24.0295 18.1147 23.6375 18.5977 23.6375H20.0035C21.9227 23.6375 23.4837 22.0765 23.4837 20.1585V15.4043C23.4837 14.9213 23.8757 14.5293 24.3587 14.5293C24.8417 14.5293 25.2337 14.9213 25.2337 15.4043V20.1585C25.2337 23.0413 22.8875 25.3875 20.0035 25.3875Z" fill="#212121"/>
<path fill-rule="evenodd" clip-rule="evenodd" d="M10.0198 25.3875H8.57783C5.69383 25.3875 3.34766 23.0413 3.34766 20.1585V15.4043C3.34766 14.9213 3.73966 14.5293 4.22266 14.5293C4.70566 14.5293 5.09766 14.9213 5.09766 15.4043V20.1585C5.09766 22.0765 6.65866 23.6375 8.57783 23.6375H10.0198C10.5028 23.6375 10.8948 24.0295 10.8948 24.5125C10.8948 24.9955 10.5028 25.3875 10.0198 25.3875Z" fill="#212121"/>
</svg>
