<svg width="20" height="20" viewBox="0 0 20 20" fill="none" xmlns="http://www.w3.org/2000/svg">
<path d="M8.74824 13.735C9.12056 13.735 9.42239 13.4366 9.42239 13.0684C9.42239 12.7002 9.12056 12.4017 8.74824 12.4017V13.735ZM4.02864 12.4017C3.65632 12.4017 3.35449 12.7002 3.35449 13.0684C3.35449 13.4366 3.65632 13.735 4.02864 13.735V12.4017ZM8.74824 12.4017H4.02864V13.735H8.74824V12.4017Z" fill="#FF4D00"/>
<path d="M10.8538 5.2222C10.4815 5.2222 10.1797 5.52067 10.1797 5.88885C10.1797 6.25704 10.4815 6.55551 10.8538 6.55551V5.2222ZM15.5734 6.55551C15.9458 6.55551 16.2476 6.25704 16.2476 5.88885C16.2476 5.52067 15.9458 5.2222 15.5734 5.2222V6.55551ZM10.8538 6.55551H15.5734V5.2222H10.8538V6.55551Z" fill="#FF4D00"/>
<path d="M8.22157 6.15458C8.22157 4.82218 7.12256 3.75 5.77729 3.75V5.08331C6.38704 5.08331 6.87326 5.56754 6.87326 6.15458H8.22157ZM5.77729 3.75C4.43203 3.75 3.33301 4.82218 3.33301 6.15458H4.68131C4.68131 5.56754 5.16754 5.08331 5.77729 5.08331V3.75ZM3.33301 6.15458C3.33301 7.48699 4.43203 8.55917 5.77729 8.55917V7.22586C5.16754 7.22586 4.68131 6.74163 4.68131 6.15458H3.33301ZM5.77729 8.55917C7.12256 8.55917 8.22157 7.48699 8.22157 6.15458H6.87326C6.87326 6.74163 6.38704 7.22586 5.77729 7.22586V8.55917Z" fill="#FF4D00"/>
<path d="M16.6659 13.3454C16.6659 12.0133 15.5678 10.9408 14.2222 10.9408V12.2741C14.8317 12.2741 15.3176 12.7581 15.3176 13.3454H16.6659ZM14.2222 10.9408C12.8765 10.9408 11.7773 12.0129 11.7773 13.3454H13.1256C13.1256 12.7585 13.6117 12.2741 14.2222 12.2741V10.9408ZM11.7773 13.3454C11.7773 14.678 12.8765 15.75 14.2222 15.75V14.4167C13.6117 14.4167 13.1256 13.9323 13.1256 13.3454H11.7773ZM14.2222 15.75C15.5678 15.75 16.6659 14.6775 16.6659 13.3454H15.3176C15.3176 13.9328 14.8317 14.4167 14.2222 14.4167V15.75Z" fill="#FF4D00"/>
</svg>
