<svg width="37" height="20" viewBox="0 0 37 20" fill="none" xmlns="http://www.w3.org/2000/svg">
<path d="M19 1.875C17.393 1.875 15.8221 2.35152 14.486 3.24431C13.1498 4.1371 12.1084 5.40605 11.4935 6.8907C10.8785 8.37535 10.7176 10.009 11.0311 11.5851C11.3446 13.1612 12.1185 14.6089 13.2548 15.7452C14.3911 16.8815 15.8388 17.6554 17.4149 17.9689C18.991 18.2824 20.6247 18.1215 22.1093 17.5065C23.594 16.8916 24.8629 15.8502 25.7557 14.514C26.6485 13.1779 27.125 11.607 27.125 10C27.1227 7.84581 26.266 5.78051 24.7427 4.25727C23.2195 2.73403 21.1542 1.87727 19 1.875ZM19 16.875C17.6403 16.875 16.311 16.4718 15.1805 15.7164C14.0499 14.9609 13.1687 13.8872 12.6483 12.6309C12.128 11.3747 11.9918 9.99237 12.2571 8.65875C12.5224 7.32513 13.1772 6.10013 14.1386 5.13864C15.1001 4.17716 16.3251 3.52237 17.6588 3.2571C18.9924 2.99183 20.3747 3.12798 21.631 3.64833C22.8872 4.16868 23.9609 5.04987 24.7164 6.18045C25.4718 7.31104 25.875 8.64025 25.875 10C25.8729 11.8227 25.1479 13.5702 23.8591 14.8591C22.5702 16.1479 20.8227 16.8729 19 16.875ZM20.25 13.75C20.25 13.9158 20.1842 14.0747 20.0669 14.1919C19.9497 14.3092 19.7908 14.375 19.625 14.375C19.2935 14.375 18.9755 14.2433 18.7411 14.0089C18.5067 13.7745 18.375 13.4565 18.375 13.125V10C18.2092 10 18.0503 9.93415 17.9331 9.81694C17.8159 9.69973 17.75 9.54076 17.75 9.375C17.75 9.20924 17.8159 9.05027 17.9331 8.93306C18.0503 8.81585 18.2092 8.75 18.375 8.75C18.7065 8.75 19.0245 8.8817 19.2589 9.11612C19.4933 9.35054 19.625 9.66848 19.625 10V13.125C19.7908 13.125 19.9497 13.1908 20.0669 13.3081C20.1842 13.4253 20.25 13.5842 20.25 13.75ZM17.75 6.5625C17.75 6.37708 17.805 6.19582 17.908 6.04165C18.011 5.88748 18.1574 5.76732 18.3287 5.69636C18.5 5.62541 18.6885 5.60684 18.8704 5.64301C19.0523 5.67919 19.2193 5.76848 19.3504 5.89959C19.4815 6.0307 19.5708 6.19775 19.607 6.3796C19.6432 6.56146 19.6246 6.74996 19.5536 6.92127C19.4827 7.09257 19.3625 7.23899 19.2084 7.342C19.0542 7.44502 18.8729 7.5 18.6875 7.5C18.4389 7.5 18.2004 7.40123 18.0246 7.22541C17.8488 7.0496 17.75 6.81114 17.75 6.5625Z" fill="#545454"/>
</svg>
