<svg width="28" height="28" viewBox="0 0 28 28" fill="none" xmlns="http://www.w3.org/2000/svg">
<path d="M12.6221 17.0499C12.6221 17.4373 12.936 17.7514 13.3233 17.7514C13.7106 17.7514 14.0246 17.4373 14.0246 17.0499H12.6221ZM14.0246 3.90985C14.0246 3.5224 13.7106 3.20831 13.3233 3.20831C12.936 3.20831 12.6221 3.5224 12.6221 3.90985H14.0246ZM14.0246 17.0499V3.90985H12.6221V17.0499H14.0246Z" fill="#212121"/>
<path d="M17.5462 14.3506C17.8195 14.076 17.8186 13.6319 17.5442 13.3584C17.2698 13.085 16.8258 13.086 16.5525 13.3605L17.5462 14.3506ZM13.8685 17.0508L13.3716 17.5458C13.5032 17.678 13.682 17.7523 13.8685 17.7523C14.055 17.7523 14.2338 17.678 14.3654 17.5458L13.8685 17.0508ZM11.1845 13.3605C10.9112 13.086 10.4672 13.085 10.1927 13.3584C9.91832 13.6319 9.91741 14.076 10.1907 14.3506L11.1845 13.3605ZM16.5525 13.3605L13.3716 16.5557L14.3654 17.5458L17.5462 14.3506L16.5525 13.3605ZM14.3654 16.5557L11.1845 13.3605L10.1907 14.3506L13.3716 17.5458L14.3654 16.5557Z" fill="#212121"/>
<path d="M18.8319 8.13118C18.4462 8.09561 18.1047 8.37953 18.0692 8.76534C18.0336 9.15115 18.3175 9.49275 18.7031 9.52832L18.8319 8.13118ZM9.29791 9.52833C9.68356 9.49276 9.96738 9.15117 9.93183 8.76536C9.89628 8.37955 9.55483 8.09562 9.16917 8.13118L9.29791 9.52833ZM18.7031 9.52832C20.6011 9.7034 21.6711 10.1317 22.3297 11.0208C23.0259 11.9603 23.3895 13.5721 23.3895 16.4687H24.792C24.792 13.5487 24.4461 11.5211 23.4565 10.1854C22.4296 8.79917 20.8379 8.31622 18.8319 8.13118L18.7031 9.52832ZM23.3895 16.4687C23.3895 20.3432 22.7397 21.8993 21.5171 22.6504C20.866 23.0505 19.9692 23.2796 18.7055 23.3972C17.4443 23.5145 15.9042 23.5152 14.0005 23.5152V24.9183C15.8814 24.9183 17.495 24.9189 18.8354 24.7942C20.1732 24.6696 21.3259 24.4145 22.2511 23.846C24.1813 22.6602 24.792 20.3422 24.792 16.4687H23.3895ZM14.0005 23.5152C12.0962 23.5152 10.5559 23.5145 9.29463 23.3972C8.03075 23.2796 7.13411 23.0505 6.48308 22.6504C5.2608 21.8993 4.61149 20.3434 4.61149 16.4687H3.20898C3.20898 20.342 3.81906 22.6601 5.74902 23.846C6.67412 24.4145 7.82683 24.6696 9.16472 24.7942C10.5051 24.9189 12.119 24.9183 14.0005 24.9183V23.5152ZM4.61149 16.4687C4.61149 13.572 4.97494 11.9603 5.67086 11.0207C6.32939 10.1317 7.39926 9.70341 9.29791 9.52833L9.16917 8.13118C7.16261 8.31622 5.57083 8.79914 4.54401 10.1854C3.55458 11.5212 3.20898 13.5488 3.20898 16.4687H4.61149Z" fill="#212121"/>
</svg>
