<svg width="28" height="28" viewBox="0 0 28 28" fill="none" xmlns="http://www.w3.org/2000/svg">
<path d="M21.8839 6.75855L22.3739 6.26248L22.3735 6.26208L21.8839 6.75855ZM6.08292 6.75855L6.57256 7.25501L6.57296 7.25461L6.08292 6.75855ZM13.9828 25.2062C15.4182 25.2062 17.6403 24.5037 19.5063 22.8968C21.4017 21.2646 22.9393 18.6909 22.9393 14.9728H21.5544C21.5544 18.2499 20.2176 20.4419 18.6097 21.8266C16.9726 23.2365 15.0626 23.802 13.9828 23.802V25.2062ZM22.9393 14.9728C22.9393 13.2296 22.9579 11.8882 22.9757 10.8453C22.9932 9.80836 23.0103 9.0489 23.0062 8.48993C23.0023 7.94211 22.9791 7.51409 22.8904 7.1665C22.7892 6.76948 22.6105 6.50279 22.3739 6.26248L21.3938 7.25461C21.4884 7.35069 21.5208 7.40468 21.5497 7.51806C21.5911 7.68085 21.6173 7.95291 21.6213 8.50026C21.6252 9.03646 21.6088 9.76727 21.5909 10.8211C21.5732 11.8689 21.5544 13.2188 21.5544 14.9728H22.9393ZM22.3735 6.26208C21.9541 5.83691 20.8347 5.08273 19.3787 4.43903C17.9032 3.78669 15.9973 3.20915 13.9828 3.20915V4.61337C15.7482 4.61337 17.461 5.12309 18.8251 5.7262C20.2089 6.33796 21.15 7.0074 21.3942 7.25501L22.3735 6.26208ZM13.9828 3.20915C11.9684 3.20915 10.0625 3.78669 8.5871 4.43903C7.13139 5.08268 6.01187 5.83696 5.59288 6.26248L6.57296 7.25461C6.81642 7.00736 7.75698 6.33799 9.14068 5.72619C10.5047 5.12309 12.2175 4.61337 13.9828 4.61337V3.20915ZM5.59327 6.26208C5.35638 6.50227 5.17732 6.76895 5.07579 7.16612C4.9869 7.51385 4.96365 7.94198 4.95961 8.48984C4.95549 9.04886 4.97249 9.80834 4.99005 10.8453C5.00772 11.8882 5.02637 13.2296 5.02637 14.9728H6.4113C6.4113 13.2188 6.39252 11.8689 6.37478 10.8211C6.35693 9.76729 6.34054 9.03651 6.3445 8.50035C6.34853 7.95303 6.37484 7.68109 6.41642 7.51843C6.44536 7.40523 6.47769 7.35121 6.57256 7.25501L5.59327 6.26208ZM5.02637 14.9728C5.02637 18.6909 6.56434 21.2647 8.45981 22.8968C10.3259 24.5037 12.5479 25.2062 13.9828 25.2062V23.802C12.9036 23.802 10.9937 23.2365 9.3563 21.8266C7.74829 20.4419 6.4113 18.2499 6.4113 14.9728H5.02637Z" fill="#212121"/>
<path d="M11.6747 13.3803C11.4045 13.1059 10.966 13.1055 10.6954 13.3795C10.4248 13.6535 10.4244 14.098 10.6946 14.3725L11.6747 13.3803ZM13.2226 15.946L12.7326 16.4421C12.8625 16.574 13.0387 16.6481 13.2225 16.6481C13.4062 16.6482 13.5825 16.5742 13.7124 16.4424L13.2226 15.946ZM17.9112 12.1829C18.1816 11.9087 18.1814 11.4641 17.911 11.19C17.6405 10.9159 17.202 10.916 16.9317 11.1902L17.9112 12.1829ZM10.6946 14.3725L12.7326 16.4421L13.7127 15.45L11.6747 13.3803L10.6946 14.3725ZM13.7124 16.4424L17.9112 12.1829L16.9317 11.1902L12.7329 15.4497L13.7124 16.4424Z" fill="#212121"/>
</svg>
