<svg width="24" height="24" viewBox="0 0 24 24" fill="none" xmlns="http://www.w3.org/2000/svg">
<path d="M18.578 18.5768L18.0846 18.0834L18.578 18.5768ZM8.0803 20.441L8.37315 19.8078C8.3625 19.8029 8.35174 19.7983 8.34087 19.7939L8.0803 20.441ZM6.75838 20.0708V19.3731H6.75425L6.75838 20.0708ZM3.5658 20.4345L3.07244 20.9278L3.07276 20.9281L3.5658 20.4345ZM3.55925 15.9186L4.20663 15.6585C4.20217 15.6474 4.19744 15.6365 4.19242 15.6256L3.55925 15.9186ZM5.42339 5.42068L5.91667 5.91406L5.91682 5.91392L5.42339 5.42068ZM18.578 5.41974L19.0713 4.92644L18.578 5.41974ZM18.0846 18.0834C15.4558 20.7125 11.5622 21.2826 8.37315 19.8078L7.78744 21.0743C11.4884 22.7859 16.0143 22.1275 19.0713 19.0701L18.0846 18.0834ZM8.34087 19.7939C7.86995 19.6043 7.31748 19.3731 6.75838 19.3731V20.7685C6.99205 20.7685 7.27349 20.8683 7.81972 21.0882L8.34087 19.7939ZM6.75425 19.3731C6.37579 19.3754 6.00555 19.4673 5.69049 19.5635C5.52984 19.6125 5.37104 19.6667 5.22464 19.717C5.07445 19.7687 4.9387 19.8156 4.80686 19.857C4.53385 19.9427 4.34519 19.9818 4.21028 19.9819C4.1 19.982 4.07559 19.9576 4.05883 19.9409L3.07276 20.9281C3.41313 21.2681 3.82834 21.3775 4.21111 21.3772C4.56926 21.3771 4.92709 21.2818 5.22494 21.1883C5.37852 21.14 5.5343 21.0861 5.67808 21.0367C5.82566 20.986 5.9633 20.9391 6.0979 20.898C6.37336 20.8139 6.58893 20.7695 6.76252 20.7685L6.75425 19.3731ZM4.05916 19.9412C4.04238 19.9244 4.01796 19.8999 4.01796 19.7893C4.01796 19.654 4.05697 19.4649 4.1425 19.1909C4.18382 19.0585 4.23057 18.9224 4.28199 18.7715C4.33209 18.6245 4.38603 18.465 4.43469 18.3036C4.53015 17.9868 4.62059 17.6147 4.62059 17.2341H3.22524C3.22524 17.4088 3.18177 17.6252 3.09867 17.901C3.05804 18.0358 3.01155 18.1738 2.96121 18.3215C2.91218 18.4653 2.85849 18.6214 2.81054 18.7751C2.7175 19.073 2.6226 19.4312 2.6226 19.7893C2.6226 20.1721 2.7321 20.5875 3.07244 20.9278L4.05916 19.9412ZM4.62059 17.2341C4.62059 16.677 4.39852 16.1361 4.20663 15.6585L2.91188 16.1787C3.12946 16.7202 3.22524 16.9983 3.22524 17.2341H4.62059ZM4.19242 15.6256C2.717 12.4373 3.28785 8.5423 5.91667 5.91406L4.93011 4.92729C1.87303 7.9837 1.2136 12.511 2.92608 16.2116L4.19242 15.6256ZM5.91682 5.91392C9.27351 2.55598 14.7279 2.55598 18.0846 5.91305L19.0713 4.92644C15.1697 1.02436 8.8316 1.02436 4.92996 4.92743L5.91682 5.91392ZM18.0846 5.91305C21.4476 9.2764 21.4417 14.7259 18.0846 18.0834L19.0713 19.0701C22.9726 15.1684 22.9798 8.83534 19.0713 4.92644L18.0846 5.91305Z" fill="#9E9E9E"/>
<path d="M15.4366 11.2215C14.9228 11.2215 14.5063 11.638 14.5063 12.1518C14.5063 12.6655 14.9228 13.082 15.4366 13.082V11.2215ZM15.445 13.082C15.9587 13.082 16.3752 12.6655 16.3752 12.1518C16.3752 11.638 15.9587 11.2215 15.445 11.2215V13.082ZM15.4366 13.082H15.445V11.2215H15.4366V13.082Z" fill="#9E9E9E"/>
<path d="M11.7066 11.2215C11.1928 11.2215 10.7764 11.638 10.7764 12.1518C10.7764 12.6655 11.1928 13.082 11.7066 13.082V11.2215ZM11.715 13.082C12.2287 13.082 12.6452 12.6655 12.6452 12.1518C12.6452 11.638 12.2287 11.2215 11.715 11.2215V13.082ZM11.7066 13.082H11.715V11.2215H11.7066V13.082Z" fill="#9E9E9E"/>
<path d="M7.9776 11.2215C7.46384 11.2215 7.04736 11.638 7.04736 12.1518C7.04736 12.6655 7.46384 13.082 7.9776 13.082V11.2215ZM7.98597 13.082C8.49973 13.082 8.91621 12.6655 8.91621 12.1518C8.91621 11.638 8.49973 11.2215 7.98597 11.2215V13.082ZM7.9776 13.082H7.98597V11.2215H7.9776V13.082Z" fill="#9E9E9E"/>
</svg>
