<svg width="28" height="28" viewBox="0 0 28 28" fill="none" xmlns="http://www.w3.org/2000/svg">
<path d="M21.612 16.6062L22.1087 16.1094L22.1086 16.1093L21.612 16.6062ZM22.4355 23.2062L22.8755 23.7538C22.8953 23.7378 22.9142 23.7209 22.9322 23.703L22.4355 23.2062ZM9.83122 18.1741L10.3279 17.6773L9.83122 18.1741ZM4.79303 5.56865L4.29629 5.07194C4.27838 5.08985 4.26145 5.10871 4.24558 5.12846L4.79303 5.56865ZM11.3937 6.39189L10.897 6.88868L11.3937 6.39189ZM12.9921 15.0132C14.1339 16.1547 15.1215 16.7487 16.0395 16.9737C16.9726 17.2022 17.7388 17.0251 18.3607 16.8237C18.5128 16.7745 18.6611 16.722 18.7954 16.675C18.9331 16.6268 19.0575 16.5838 19.1786 16.5464C19.4213 16.4715 19.6195 16.4295 19.8034 16.4247C20.1184 16.4163 20.5237 16.5118 21.1155 17.103L22.1086 16.1093C21.3126 15.3139 20.5535 14.9995 19.7664 15.0202C19.3991 15.0299 19.0617 15.1122 18.7643 15.2039C18.6152 15.2499 18.4685 15.3009 18.3313 15.3489C18.1906 15.3982 18.0605 15.4442 17.9278 15.4872C17.4106 15.6546 16.9389 15.7475 16.3738 15.609C15.7937 15.4669 15.0231 15.057 13.9854 14.0196L12.9921 15.0132ZM21.1154 17.103C21.457 17.4445 21.7798 17.7512 22.0705 18.0278C22.3642 18.3071 22.6204 18.5513 22.8433 18.7798C23.3017 19.2498 23.5379 19.576 23.6315 19.8591C23.7081 20.0905 23.712 20.363 23.4878 20.8015C23.2483 21.27 22.7722 21.8763 21.9389 22.7094L22.9322 23.703C23.7938 22.8416 24.3968 22.1099 24.7387 21.4411C25.096 20.7423 25.1839 20.0782 24.9653 19.4176C24.7638 18.8086 24.3257 18.2876 23.8491 17.7989C23.6045 17.548 23.3281 17.2849 23.0388 17.0098C22.7465 16.7318 22.436 16.4366 22.1087 16.1094L21.1154 17.103ZM21.9954 22.6587C21.9279 22.7129 21.8578 22.7862 21.8254 22.8193C21.779 22.867 21.7323 22.9148 21.6768 22.9676C21.5676 23.0715 21.4287 23.1894 21.251 23.2993C20.905 23.5131 20.3743 23.7201 19.5722 23.6715C17.9256 23.5719 15.0378 22.3859 10.3279 17.6773L9.33456 18.6709C14.1063 23.4413 17.3083 24.942 19.4872 25.0739C20.5979 25.1412 21.4139 24.8502 21.9895 24.4944C22.2727 24.3195 22.4882 24.1348 22.645 23.9858C22.7223 23.9122 22.7864 23.8461 22.8307 23.8008C22.8893 23.7409 22.89 23.7421 22.8755 23.7538L21.9954 22.6587ZM10.3279 17.6773C5.61738 12.9681 4.42983 10.0799 4.32922 8.43267C4.28021 7.6302 4.48692 7.09923 4.70051 6.75312C4.81025 6.5753 4.92814 6.43634 5.03184 6.32717C5.08465 6.27159 5.13248 6.22499 5.18006 6.17851C5.21312 6.14622 5.2863 6.07622 5.34047 6.00884L4.24558 5.12846C4.25709 5.11415 4.2582 5.115 4.19829 5.17353C4.15288 5.21789 4.08682 5.28209 4.01328 5.35951C3.86429 5.51633 3.6797 5.73206 3.50492 6.01527C3.14948 6.59121 2.85904 7.40753 2.92689 8.51833C3.06001 10.6977 4.56223 13.8999 9.33456 18.6709L10.3279 17.6773ZM5.28976 6.06536C6.1253 5.22977 6.73274 4.75265 7.20168 4.51276C7.64053 4.28827 7.91231 4.2927 8.14267 4.36931C8.42504 4.4632 8.75054 4.69982 9.22033 5.15913C9.44865 5.38238 9.69262 5.63896 9.97198 5.93298C10.2485 6.22402 10.5553 6.54703 10.897 6.88868L11.8903 5.8951C11.5632 5.56802 11.2682 5.25753 10.9905 4.96526C10.7156 4.67597 10.4529 4.3994 10.2025 4.15456C9.71481 3.67773 9.19455 3.2385 8.58599 3.03614C7.92543 2.81649 7.26113 2.90426 6.56184 3.26198C5.89264 3.60431 5.1599 4.20828 4.29629 5.07194L5.28976 6.06536ZM10.897 6.88868C11.4889 7.48035 11.5847 7.88586 11.5767 8.2012C11.572 8.38519 11.5302 8.58353 11.4555 8.82626C11.4182 8.94744 11.3753 9.07193 11.3272 9.2097C11.2804 9.34397 11.228 9.49247 11.1789 9.64458C10.978 10.2667 10.8015 11.0331 11.0305 11.9662C11.2559 12.8842 11.8502 13.8717 12.9921 15.0132L13.9854 14.0196C12.9477 12.9823 12.5374 12.2116 12.3949 11.6312C12.2562 11.0659 12.3487 10.5938 12.5158 10.0764C12.5587 9.94357 12.6046 9.81336 12.6537 9.67259C12.7016 9.53532 12.7525 9.38844 12.7983 9.2394C12.8899 8.94172 12.9718 8.60425 12.9812 8.23696C13.0012 7.44974 12.6862 6.69075 11.8903 5.8951L10.897 6.88868Z" fill="#212121"/>
</svg>
