<svg width="28" height="28" viewBox="0 0 28 28" fill="none" xmlns="http://www.w3.org/2000/svg">
<path d="M14.9067 4.41114C14.9067 4.0645 14.5752 3.78346 14.1662 3.78346C13.7573 3.78346 13.4258 4.0645 13.4258 4.41114H14.9067ZM13.4258 16.1678C13.4258 16.5145 13.7573 16.7955 14.1662 16.7955C14.5752 16.7955 14.9067 16.5145 14.9067 16.1678H13.4258ZM13.4258 4.41114V16.1678H14.9067V4.41114H13.4258Z" fill="#212121"/>
<path d="M10.8584 6.82543C10.5698 7.07105 10.5708 7.46848 10.8605 7.71309C11.1503 7.95771 11.6191 7.9569 11.9077 7.71127L10.8584 6.82543ZM14.7417 4.40949L15.2663 3.96656C15.1274 3.84829 14.9386 3.78181 14.7417 3.78181C14.5447 3.78181 14.356 3.84829 14.217 3.96656L14.7417 4.40949ZM17.5756 7.71127C17.8642 7.9569 18.333 7.95771 18.6228 7.71309C18.9125 7.46848 18.9135 7.07105 18.6249 6.82543L17.5756 7.71127ZM11.9077 7.71127L15.2663 4.85241L14.217 3.96656L10.8584 6.82543L11.9077 7.71127ZM14.217 4.85241L17.5756 7.71127L18.6249 6.82543L15.2663 3.96656L14.217 4.85241Z" fill="#212121"/>
<path d="M9.50124 10.344C9.90846 10.3122 10.269 10.5663 10.3065 10.9114C10.3441 11.2566 10.0444 11.5623 9.63718 11.5941L9.50124 10.344ZM19.568 11.5941C19.1607 11.5623 18.861 11.2566 18.8986 10.9114C18.9361 10.5663 19.2967 10.3122 19.7038 10.344L19.568 11.5941ZM9.63718 11.5941C7.63243 11.7507 6.50278 12.1339 5.80746 12.9294C5.07264 13.77 4.68889 15.2121 4.68889 17.8038H3.20801C3.20801 15.1913 3.57292 13.3771 4.61763 12.182C5.70183 10.9417 7.38256 10.5096 9.50124 10.344L9.63718 11.5941ZM4.68889 17.8038C4.68889 21.271 5.37474 22.6634 6.66551 23.3356C7.35299 23.6936 8.29979 23.8985 9.63421 24.0037C10.966 24.1089 12.5921 24.1094 14.6026 24.1094L14.6026 25.3648C12.6162 25.3648 10.9123 25.3654 9.49702 25.2537C8.08441 25.1424 6.86726 24.914 5.8904 24.4053C3.85248 23.3441 3.20801 21.2698 3.20801 17.8038H4.68889ZM14.6026 24.1094C16.6129 24.1094 18.2391 24.1089 19.5709 24.0037C20.9053 23.8985 21.8521 23.6936 22.5396 23.3356C23.8303 22.6634 24.5162 21.271 24.5162 17.8038H25.9971C25.9971 21.2698 25.3526 23.3441 23.3147 24.4053C22.3378 24.914 21.1207 25.1424 19.7081 25.2537C18.2928 25.3654 16.5888 25.3648 14.6026 25.3648L14.6026 24.1094ZM24.5162 17.8038C24.5162 15.2121 24.1324 13.77 23.3976 12.9294C22.7023 12.1339 21.5727 11.7507 19.568 11.5941L19.7038 10.344C21.8226 10.5096 23.5033 10.9417 24.5875 12.182C25.6322 13.3771 25.9971 15.1913 25.9971 17.8038H24.5162Z" fill="#212121"/>
</svg>
