<svg width="40" height="40" viewBox="0 0 40 40" fill="none" xmlns="http://www.w3.org/2000/svg">
<path d="M19.9477 14.7705C19.9477 14.4026 19.6494 14.1044 19.2815 14.1044C18.9135 14.1044 18.6152 14.4026 18.6152 14.7705H19.9477ZM18.6152 25.3523C18.6152 25.7202 18.9135 26.0184 19.2815 26.0184C19.6494 26.0184 19.9477 25.7202 19.9477 25.3523H18.6152ZM18.6152 14.7705V25.3523H19.9477V14.7705H18.6152Z" fill="white"/>
<path d="M25.3582 19.9487C25.7261 19.9487 26.0244 19.6504 26.0244 19.2825C26.0244 18.9146 25.7261 18.6164 25.3582 18.6164V19.9487ZM14.7639 18.6164C14.3959 18.6164 14.0977 18.9146 14.0977 19.2825C14.0977 19.6504 14.3959 19.9487 14.7639 19.9487V18.6164ZM25.3582 18.6164H14.7639V19.9487H25.3582V18.6164Z" fill="white"/>
</svg>
