<svg width="31" height="28" viewBox="0 0 31 28" fill="none" xmlns="http://www.w3.org/2000/svg">
<path d="M9.33301 13.1667V19.8334C9.33301 20.2754 9.5086 20.6993 9.82116 21.0119C10.1337 21.3244 10.5576 21.5 10.9997 21.5H20.9997C21.4417 21.5 21.8656 21.3244 22.1782 21.0119C22.4907 20.6993 22.6663 20.2754 22.6663 19.8334V13.1667" stroke="#777777" stroke-width="0.833333" stroke-linecap="round" stroke-linejoin="round"/>
<path d="M16 8.58335C16 7.80981 15.6927 7.06794 15.1457 6.52096C14.5987 5.97398 13.8569 5.66669 13.0833 5.66669C12.5308 5.66669 12.0009 5.88618 11.6102 6.27688C11.2195 6.66758 11 7.19749 11 7.75002C11 8.30255 11.2195 8.83246 11.6102 9.22316C12.0009 9.61386 12.5308 9.83335 13.0833 9.83335H16M16 8.58335V9.83335M16 8.58335C16 7.80981 16.3073 7.06794 16.8543 6.52096C17.4013 5.97398 18.1431 5.66669 18.9167 5.66669C19.4692 5.66669 19.9991 5.88618 20.3898 6.27688C20.7805 6.66758 21 7.19749 21 7.75002C21 8.02361 20.9461 8.29452 20.8414 8.54728C20.7367 8.80004 20.5833 9.0297 20.3898 9.22316C20.1964 9.41661 19.9667 9.57007 19.7139 9.67477C19.4612 9.77947 19.1903 9.83335 18.9167 9.83335H16" stroke="#777777" stroke-width="0.833333" stroke-linejoin="round"/>
<path d="M16 13.1667V21.5M8.5 9.83337H23.5V13.1667H8.5V9.83337Z" stroke="#777777" stroke-width="0.833333" stroke-linecap="round" stroke-linejoin="round"/>
</svg>
