<svg width="28" height="28" viewBox="0 0 28 28" fill="none" xmlns="http://www.w3.org/2000/svg">
<path d="M11.3341 23.6276C9.34683 23.6276 7.58564 23.4745 6.34279 23.0572C5.72491 22.8497 5.28754 22.5937 5.01093 22.3061C4.75096 22.0358 4.61006 21.716 4.61006 21.2941H3.20801C3.20801 22.0869 3.49471 22.7539 4.00128 23.2806C4.49121 23.79 5.15931 24.1411 5.89717 24.3888C7.36581 24.882 9.31716 25.0321 11.3341 25.0321V23.6276ZM4.61006 21.2941C4.61006 20.4224 5.23207 19.4562 6.48456 18.6685C7.71579 17.8941 9.4405 17.3778 11.3341 17.3778V15.9733C9.20169 15.9733 7.21385 16.5515 5.73905 17.479C4.28551 18.3932 3.20801 19.7363 3.20801 21.2941H4.61006ZM11.3341 17.3778C13.2176 17.3778 14.9429 17.8894 16.1771 18.6593C17.4333 19.443 18.0571 20.4038 18.0571 21.2722H19.4591C19.4591 19.7123 18.3731 18.3748 16.9183 17.4671C15.4416 16.5459 13.4548 15.9733 11.3341 15.9733V17.3778ZM18.0571 21.2722C18.0571 21.6954 17.9165 22.0174 17.6571 22.2897C17.3816 22.5789 16.946 22.837 16.3301 23.0468C15.0912 23.4689 13.3311 23.6276 11.3341 23.6276V25.0321C13.3632 25.0321 15.3151 24.8761 16.7816 24.3765C17.5185 24.1255 18.184 23.7709 18.6715 23.2592C19.175 22.7306 19.4591 22.0632 19.4591 21.2722H18.0571Z" fill="#212121"/>
<path d="M6.57508 8.44381L7.2761 8.44644V8.44381H6.57508ZM11.3001 13.211L11.2978 13.9132H11.3001V13.211ZM11.3339 13.9132C14.3492 13.9132 16.7938 11.4643 16.7938 8.44381H15.3918C15.3918 10.6886 13.5748 12.5087 11.3339 12.5087V13.9132ZM16.7938 8.44381C16.7938 5.42334 14.3492 2.97443 11.3339 2.97443V4.37891C13.5748 4.37891 15.3918 6.19902 15.3918 8.44381H16.7938ZM11.3339 2.97443C8.31872 2.97443 5.87406 5.42334 5.87406 8.44381H7.2761C7.2761 6.19902 9.09305 4.37891 11.3339 4.37891V2.97443ZM5.87406 8.44118C5.8628 11.4531 8.29234 13.9031 11.2978 13.9132L11.3025 12.5087C9.07144 12.5013 7.26774 10.6823 7.2761 8.44644L5.87406 8.44118ZM11.3001 13.9132H11.3339V12.5087H11.3001V13.9132Z" fill="#212121"/>
<path d="M19.0512 11.2235C18.6772 11.3237 18.455 11.7086 18.555 12.0833C18.655 12.458 19.0392 12.6805 19.4132 12.5804L19.0512 11.2235ZM21.8897 8.43254L21.1887 8.4321V8.43254H21.8897ZM19.1691 4.22605C18.7898 4.14818 18.4193 4.39306 18.3416 4.773C18.2638 5.15295 18.5083 5.52407 18.8876 5.60194L19.1691 4.22605ZM19.4132 12.5804C21.2418 12.0908 22.5908 10.4215 22.5908 8.43254H21.1887C21.1887 9.76884 20.2826 10.8938 19.0512 11.2235L19.4132 12.5804ZM22.5908 8.43299C22.5921 6.3577 21.1221 4.62699 19.1691 4.22605L18.8876 5.60194C20.2016 5.87171 21.1896 7.03799 21.1887 8.4321L22.5908 8.43299Z" fill="#212121"/>
<path d="M19.951 15.1046C19.5639 15.1046 19.25 15.419 19.25 15.8069C19.25 16.1947 19.5639 16.5091 19.951 16.5091V15.1046ZM22.2018 19.7079C21.8249 19.7966 21.5911 20.1746 21.6796 20.5521C21.7681 20.9297 22.1454 21.1639 22.5223 21.0752L22.2018 19.7079ZM19.951 16.5091C20.8813 16.5091 21.7433 16.8269 22.3626 17.2761C23.0075 17.744 23.2695 18.2562 23.2695 18.5935H24.6716C24.6716 17.6167 24.0077 16.7355 23.1849 16.1386C22.3364 15.523 21.1886 15.1046 19.951 15.1046V16.5091ZM23.2695 18.5935C23.2695 18.9902 22.9088 19.5416 22.2018 19.7079L22.5223 21.0752C23.7564 20.7849 24.6716 19.7458 24.6716 18.5935H23.2695Z" fill="#212121"/>
</svg>
