<svg width="28" height="28" viewBox="0 0 28 28" fill="none" xmlns="http://www.w3.org/2000/svg">
<path d="M14.0005 4.61096C19.1852 4.61096 23.3895 8.81421 23.3895 14H24.792C24.792 8.03953 19.9598 3.20845 14.0005 3.20845V4.61096ZM23.3895 14C23.3895 19.1847 19.1852 23.389 14.0005 23.389V24.7915C19.9598 24.7915 24.792 19.9593 24.792 14H23.3895ZM14.0005 23.389C8.81474 23.389 4.61149 19.1847 4.61149 14H3.20898C3.20898 19.9593 8.04006 24.7915 14.0005 24.7915V23.389ZM4.61149 14C4.61149 8.81526 8.81579 4.61096 14.0005 4.61096V3.20845C8.0412 3.20845 3.20898 8.04067 3.20898 14H4.61149Z" fill="#212121"/>
<path d="M17.9907 12.7676C17.4743 12.7676 17.0557 13.1862 17.0557 13.7026C17.0557 14.219 17.4743 14.6376 17.9907 14.6376V12.7676ZM18.0005 14.6376C18.5169 14.6376 18.9355 14.219 18.9355 13.7026C18.9355 13.1862 18.5169 12.7676 18.0005 12.7676V14.6376ZM17.9907 14.6376H18.0005V12.7676H17.9907V14.6376Z" fill="#212121"/>
<path d="M13.6176 12.7676C13.1012 12.7676 12.6826 13.1862 12.6826 13.7026C12.6826 14.219 13.1012 14.6376 13.6176 14.6376V12.7676ZM13.6274 14.6376C14.1438 14.6376 14.5624 14.219 14.5624 13.7026C14.5624 13.1862 14.1438 12.7676 13.6274 12.7676V14.6376ZM13.6176 14.6376H13.6274V12.7676H13.6176V14.6376Z" fill="#212121"/>
<path d="M9.24458 12.7676C8.72819 12.7676 8.30957 13.1862 8.30957 13.7026C8.30957 14.219 8.72819 14.6376 9.24458 14.6376V12.7676ZM9.25439 14.6376C9.77078 14.6376 10.1894 14.219 10.1894 13.7026C10.1894 13.1862 9.77078 12.7676 9.25439 12.7676V14.6376ZM9.24458 14.6376H9.25439V12.7676H9.24458V14.6376Z" fill="#212121"/>
</svg>
