<svg width="28" height="28" viewBox="0 0 28 28" fill="none" xmlns="http://www.w3.org/2000/svg">
<path d="M20.5993 11.1978C20.8477 10.9005 20.8074 10.4587 20.5093 10.211C20.2111 9.96336 19.7681 10.0036 19.5198 10.3008L20.5993 11.1978ZM8.40982 10.2979C8.1598 10.002 7.71656 9.9642 7.41982 10.2135C7.12308 10.4628 7.08521 10.9048 7.33523 11.2007L8.40982 10.2979ZM20.0596 10.7493C19.5198 10.3008 19.5198 10.3007 19.5199 10.3007V10.3006C19.5199 10.3006 19.5199 10.3007 19.5198 10.3008C19.5195 10.3011 19.5191 10.3016 19.5185 10.3023C19.5173 10.3038 19.5151 10.3063 19.5122 10.3098C19.5064 10.3166 19.4973 10.3274 19.4851 10.3416C19.4607 10.3701 19.4238 10.4129 19.3754 10.4678C19.2789 10.5778 19.1367 10.7362 18.958 10.9269C18.5996 11.3092 18.0977 11.8169 17.5209 12.3224C16.9415 12.83 16.3018 13.3221 15.6679 13.6839C15.0228 14.052 14.4488 14.2474 13.9852 14.2474V15.6486C14.8046 15.6486 15.6314 15.3191 16.3658 14.9C17.1115 14.4745 17.8299 13.9169 18.4484 13.3749C19.0694 12.8307 19.6049 12.2887 19.9845 11.8838C20.1747 11.6808 20.3268 11.5112 20.432 11.3916C20.4847 11.3317 20.5257 11.2842 20.5539 11.2513C20.5681 11.2348 20.5789 11.2219 20.5866 11.2129C20.5904 11.2084 20.5934 11.2049 20.5955 11.2023C20.5965 11.2011 20.5974 11.2 20.598 11.1993C20.5983 11.1989 20.5986 11.1986 20.5989 11.1983C20.599 11.1982 20.5991 11.1981 20.5991 11.198C20.5993 11.1979 20.5993 11.1978 20.0596 10.7493ZM13.9852 14.2474C13.5215 14.2474 12.945 14.0517 12.2957 13.6831C11.6578 13.3209 11.013 12.8284 10.4287 12.3205C9.84687 11.8148 9.33996 11.3069 8.97782 10.9244C8.79717 10.7336 8.65358 10.5751 8.55583 10.4651C8.50698 10.4101 8.46965 10.3673 8.44493 10.3387C8.43258 10.3245 8.42338 10.3138 8.41748 10.3069C8.41453 10.3034 8.41241 10.3009 8.41113 10.2994C8.41048 10.2986 8.41005 10.2981 8.40984 10.2979C8.40973 10.2978 8.40967 10.2977 8.40967 10.2977C8.40967 10.2977 8.40971 10.2977 8.40971 10.2977C8.40976 10.2978 8.40982 10.2979 7.87253 10.7493C7.33523 11.2007 7.33532 11.2008 7.33543 11.201C7.33548 11.201 7.3356 11.2012 7.33571 11.2013C7.33592 11.2015 7.33619 11.2019 7.33651 11.2022C7.33716 11.203 7.33802 11.204 7.33909 11.2053C7.34124 11.2078 7.34424 11.2113 7.34808 11.2158C7.35577 11.2248 7.36681 11.2377 7.38106 11.2541C7.40957 11.2871 7.45096 11.3345 7.50413 11.3943C7.61041 11.5139 7.76403 11.6835 7.95606 11.8863C8.33928 12.291 8.87961 12.8328 9.50534 13.3767C10.1286 13.9185 10.8516 14.4756 11.6004 14.9007C12.3377 15.3193 13.1665 15.6486 13.9852 15.6486V14.2474Z" fill="#212121"/>
<path d="M4.26651 13.9636C4.26651 10.2819 4.91761 8.05218 6.32666 6.70723C7.74481 5.35361 10.1031 4.72851 13.9727 4.72851V3.32732C10.0357 3.32732 7.18959 3.9439 5.355 5.69503C3.51132 7.45482 2.86133 10.1929 2.86133 13.9636H4.26651ZM13.9727 4.72851C17.8422 4.72851 20.2005 5.35361 21.6187 6.70723C23.0277 8.05218 23.6788 10.2819 23.6788 13.9636H25.084C25.084 10.1929 24.434 7.45482 22.5904 5.69503C20.7557 3.9439 17.9096 3.32732 13.9727 3.32732V4.72851ZM23.6788 13.9636C23.6788 17.6446 23.0277 19.8744 21.6186 21.2194C20.2005 22.5733 17.8422 23.1986 13.9727 23.1986V24.5998C17.9097 24.5998 20.7557 23.9829 22.5904 22.2317C24.434 20.4718 25.084 17.7336 25.084 13.9636H23.6788ZM13.9727 23.1986C10.1031 23.1986 7.74485 22.5733 6.32668 21.2194C4.91759 19.8744 4.26651 17.6446 4.26651 13.9636H2.86133C2.86133 17.7336 3.51133 20.4718 5.35498 22.2317C7.18955 23.9829 10.0357 24.5998 13.9727 24.5998V23.1986Z" fill="#212121"/>
</svg>
