<svg width="20" height="20" viewBox="0 0 20 20" fill="none" xmlns="http://www.w3.org/2000/svg">
<path d="M12.9883 11.748C13.8737 12.054 14.6712 12.4805 15.3809 13.0273C16.0905 13.5742 16.696 14.2122 17.1973 14.9414C17.6986 15.6706 18.0827 16.4616 18.3496 17.3145C18.6165 18.1673 18.75 19.0625 18.75 20H17.5C17.5 18.9323 17.3112 17.9427 16.9336 17.0312C16.556 16.1198 16.0286 15.3255 15.3516 14.6484C14.6745 13.9714 13.8835 13.4473 12.9785 13.0762C12.0736 12.7051 11.0807 12.513 10 12.5C9.30339 12.5 8.63281 12.5879 7.98828 12.7637C7.34375 12.9395 6.74479 13.1868 6.19141 13.5059C5.63802 13.8249 5.13346 14.2122 4.67773 14.668C4.22201 15.1237 3.83464 15.6283 3.51562 16.1816C3.19661 16.735 2.94596 17.3372 2.76367 17.9883C2.58138 18.6393 2.49349 19.3099 2.5 20H1.25C1.25 19.0625 1.38672 18.1673 1.66016 17.3145C1.93359 16.4616 2.32096 15.6738 2.82227 14.9512C3.32357 14.2285 3.92904 13.597 4.63867 13.0566C5.34831 12.5163 6.14583 12.0833 7.03125 11.7578C6.52344 11.4844 6.06771 11.1523 5.66406 10.7617C5.26042 10.3711 4.91862 9.93815 4.63867 9.46289C4.35872 8.98763 4.14062 8.47656 3.98438 7.92969C3.82812 7.38281 3.75 6.82292 3.75 6.25C3.75 5.38411 3.91276 4.57357 4.23828 3.81836C4.5638 3.06315 5.00977 2.39909 5.57617 1.82617C6.14258 1.25326 6.80339 0.807292 7.55859 0.488281C8.3138 0.169271 9.1276 0.00651042 10 0C10.8659 0 11.6764 0.16276 12.4316 0.488281C13.1868 0.813802 13.8509 1.25977 14.4238 1.82617C14.9967 2.39258 15.4427 3.05339 15.7617 3.80859C16.0807 4.5638 16.2435 5.3776 16.25 6.25C16.25 6.82292 16.1751 7.37956 16.0254 7.91992C15.8757 8.46029 15.6576 8.9681 15.3711 9.44336C15.0846 9.91862 14.7428 10.3516 14.3457 10.7422C13.9486 11.1328 13.4961 11.4681 12.9883 11.748ZM5 6.25C5 6.9401 5.13021 7.58789 5.39062 8.19336C5.65104 8.79883 6.00911 9.32617 6.46484 9.77539C6.92057 10.2246 7.45117 10.5827 8.05664 10.8496C8.66211 11.1165 9.3099 11.25 10 11.25C10.6901 11.25 11.3379 11.1198 11.9434 10.8594C12.5488 10.599 13.0762 10.2409 13.5254 9.78516C13.9746 9.32943 14.3327 8.79883 14.5996 8.19336C14.8665 7.58789 15 6.9401 15 6.25C15 5.5599 14.8698 4.91211 14.6094 4.30664C14.349 3.70117 13.9909 3.17383 13.5352 2.72461C13.0794 2.27539 12.5488 1.91732 11.9434 1.65039C11.3379 1.38346 10.6901 1.25 10 1.25C9.3099 1.25 8.66211 1.38021 8.05664 1.64062C7.45117 1.90104 6.92383 2.25911 6.47461 2.71484C6.02539 3.17057 5.66732 3.70117 5.40039 4.30664C5.13346 4.91211 5 5.5599 5 6.25Z" fill="#777777"/>
</svg>
