<svg width="28" height="28" viewBox="0 0 28 28" fill="none" xmlns="http://www.w3.org/2000/svg">
<path d="M13.9996 11.9711C15.1122 11.9711 16.0139 12.8795 16.0139 14.0005H17.4084C17.4084 12.1035 15.8824 10.5661 13.9996 10.5661V11.9711ZM16.0139 14.0005C16.0139 15.1214 15.1122 16.0298 13.9996 16.0298V17.4348C15.8824 17.4348 17.4084 15.8974 17.4084 14.0005H16.0139ZM13.9996 16.0298C12.887 16.0298 11.9853 15.1214 11.9853 14.0005H10.5908C10.5908 15.8974 12.1168 17.4348 13.9996 17.4348V16.0298ZM11.9853 14.0005C11.9853 12.8795 12.887 11.9711 13.9996 11.9711V10.5661C12.1168 10.5661 10.5908 12.1035 10.5908 14.0005H11.9853Z" fill="#212121"/>
<path d="M19.1932 7.81364L19.5434 8.42107L19.544 8.42074L19.1932 7.81364ZM13.9993 2.91667C13.6142 2.91667 13.302 3.23118 13.302 3.61914C13.302 4.00711 13.6142 4.32162 13.9993 4.32162V2.91667ZM8.80638 7.81364L8.45582 8.42087L8.45589 8.42092L8.80638 7.81364ZM5.13988 8.80991L4.53499 8.46052L4.53477 8.46089L5.13988 8.80991ZM6.12271 12.5295L6.47363 11.9225L6.4729 11.922L6.12271 12.5295ZM6.12271 15.4708L6.47328 16.078L6.47363 16.0778L6.12271 15.4708ZM5.13988 19.1904L4.5349 19.5396L4.53499 19.5397L5.13988 19.1904ZM8.80532 20.1877V19.4852C8.68222 19.4852 8.56132 19.5181 8.4549 19.5804L8.80532 20.1877ZM8.80638 20.1877V20.8902C8.92967 20.8902 9.05075 20.8573 9.15729 20.7947L8.80638 20.1877ZM19.1932 20.1877L18.8426 20.7949L18.8428 20.7951L19.1932 20.1877ZM22.8586 19.1904L22.2539 18.8407L22.2538 18.841L22.8586 19.1904ZM21.8769 15.4708L22.2277 14.8637C22.1211 14.8012 22.0001 14.7683 21.8769 14.7683V15.4708ZM21.8758 15.4708L21.5248 16.0778C21.6314 16.1403 21.7525 16.1733 21.8758 16.1733V15.4708ZM21.8769 12.5295L21.5264 11.9222L21.5262 11.9223L21.8769 12.5295ZM23.4636 8.46052C22.531 6.82178 20.4618 6.25683 18.8425 7.20654L19.544 8.42074C20.4902 7.86579 21.7035 8.19241 22.2538 9.15931L23.4636 8.46052ZM18.8429 7.20622C18.1993 7.5829 17.3802 7.11656 17.3802 6.34244H15.9857C15.9857 8.18258 17.9555 9.35044 19.5434 8.42107L18.8429 7.20622ZM17.3802 6.34244C17.3802 4.45566 15.8708 2.91667 13.9993 2.91667V4.32162C15.0912 4.32162 15.9857 5.22204 15.9857 6.34244H17.3802ZM13.9993 2.91667C12.1277 2.91667 10.6183 4.45566 10.6183 6.34244H12.0128C12.0128 5.22204 12.9074 4.32162 13.9993 4.32162V2.91667ZM10.6183 6.34244C10.6183 7.11705 9.79889 7.58247 9.15686 7.20637L8.45589 8.42092C10.0433 9.35086 12.0128 8.1821 12.0128 6.34244H10.6183ZM9.15693 7.20642C7.53681 6.25703 5.46763 6.8216 4.53499 8.46052L5.74476 9.15931C6.29489 8.1926 7.50822 7.86559 8.45582 8.42087L9.15693 7.20642ZM4.53477 8.46089C3.60546 10.0963 4.15456 12.1902 5.77253 13.1369L6.4729 11.922C5.52315 11.3663 5.19365 10.1292 5.74498 9.15894L4.53477 8.46089ZM5.7718 13.1365C6.42475 13.5196 6.42475 14.4806 5.7718 14.8638L6.47363 16.0778C8.05015 15.1527 8.05015 12.8475 6.47363 11.9225L5.7718 13.1365ZM5.77215 14.8636C4.15492 15.8113 3.60518 17.9048 4.5349 19.5396L5.74486 18.8412C5.19393 17.8724 5.52279 16.6351 6.47328 16.078L5.77215 14.8636ZM4.53499 19.5397C5.46753 21.1786 7.53654 21.7433 9.15572 20.7951L8.4549 19.5804C7.50849 20.1347 6.295 19.8079 5.74476 18.841L4.53499 19.5397ZM8.80532 20.8902H8.80638V19.4852H8.80532V20.8902ZM9.15729 20.7947C9.79907 20.4182 10.6183 20.8831 10.6183 21.6578H12.0128C12.0128 19.8183 10.0431 18.6491 8.45546 19.5808L9.15729 20.7947ZM10.6183 21.6578C10.6183 23.5447 12.1277 25.0837 13.9993 25.0837V23.6787C12.9074 23.6787 12.0128 22.7782 12.0128 21.6578H10.6183ZM13.9993 25.0837C15.8708 25.0837 17.3802 23.5447 17.3802 21.6578H15.9857C15.9857 22.7782 15.0912 23.6787 13.9993 23.6787V25.0837ZM17.3802 21.6578C17.3802 20.8837 18.1991 20.4177 18.8426 20.7949L19.5439 19.5806C17.9556 18.6495 15.9857 19.8178 15.9857 21.6578H17.3802ZM18.8428 20.7951C20.4619 21.7433 22.531 21.1786 23.4636 19.5397L22.2538 18.841C21.7035 19.8079 20.49 20.1347 19.5436 19.5804L18.8428 20.7951ZM23.4634 19.54C24.3947 17.9047 23.8432 15.8112 22.2277 14.8637L21.526 16.0779C22.4761 16.6351 22.8053 17.8725 22.2539 18.8407L23.4634 19.54ZM21.8769 14.7683H21.8758V16.1733H21.8769V14.7683ZM22.2267 14.8638C21.5739 14.4807 21.5736 13.5199 22.2275 13.1366L21.5262 11.9223C19.9484 12.8472 19.9482 15.1526 21.5248 16.0778L22.2267 14.8638ZM22.2273 13.1368C23.8436 12.1902 24.3944 10.0964 23.4636 8.46052L22.2538 9.15931C22.8055 10.129 22.4757 11.3663 21.5264 11.9222L22.2273 13.1368Z" fill="#212121"/>
</svg>
