<svg width="28" height="28" viewBox="0 0 28 28" fill="none" xmlns="http://www.w3.org/2000/svg">
<path d="M13.9982 8.60651C12.5674 8.60651 11.1953 9.17487 10.1836 10.1866C9.17188 11.1983 8.60352 12.5704 8.60352 14.0012C8.60352 15.4319 9.17188 16.8041 10.1836 17.8158C11.1953 18.8275 12.5674 19.3958 13.9982 19.3958C15.4289 19.3958 16.8011 18.8275 17.8128 17.8158C18.8245 16.8041 19.3928 15.4319 19.3928 14.0012C19.3928 12.5704 18.8245 11.1983 17.8128 10.1866C16.8011 9.17487 15.4289 8.60651 13.9982 8.60651ZM13.9982 17.5047C13.0687 17.5047 12.1773 17.1354 11.52 16.4782C10.8628 15.8209 10.4935 14.9295 10.4935 14C10.4935 13.0705 10.8628 12.1791 11.52 11.5218C12.1773 10.8646 13.0687 10.4953 13.9982 10.4953C14.9277 10.4953 15.8191 10.8646 16.4764 11.5218C17.1336 12.1791 17.5028 13.0705 17.5028 14C17.5028 14.9295 17.1336 15.8209 16.4764 16.4782C15.8191 17.1354 14.9277 17.5047 13.9982 17.5047Z" fill="#FF4D00"/>
<path d="M19.6073 9.66584C20.3019 9.66584 20.8649 9.10277 20.8649 8.40818C20.8649 7.71359 20.3019 7.15051 19.6073 7.15051C18.9127 7.15051 18.3496 7.71359 18.3496 8.40818C18.3496 9.10277 18.9127 9.66584 19.6073 9.66584Z" fill="#FF4D00"/>
<path d="M23.9548 7.1295C23.6848 6.43204 23.272 5.79866 22.7431 5.2699C22.2141 4.74114 21.5806 4.32864 20.883 4.05883C20.0667 3.75241 19.2044 3.58673 18.3327 3.56883C17.2092 3.51983 16.8533 3.50583 14.0043 3.50583C11.1553 3.50583 10.7901 3.50583 9.67595 3.56883C8.8049 3.58581 7.94317 3.75153 7.12795 4.05883C6.43021 4.32833 5.79651 4.74071 5.26751 5.26951C4.7385 5.79831 4.32589 6.43186 4.05612 7.1295C3.74964 7.94571 3.58434 8.80814 3.56729 9.67983C3.51712 10.8022 3.50195 11.158 3.50195 14.0081C3.50195 16.8571 3.50195 17.22 3.56729 18.3365C3.58479 19.2091 3.74929 20.0701 4.05612 20.888C4.32664 21.5854 4.73966 22.2186 5.26879 22.7474C5.79792 23.2761 6.43152 23.6886 7.12912 23.9586C7.94279 24.2774 8.80488 24.4549 9.67828 24.4836C10.8018 24.5326 11.1576 24.5478 14.0067 24.5478C16.8557 24.5478 17.2208 24.5478 18.335 24.4836C19.2066 24.4659 20.0689 24.3006 20.8853 23.9948C21.5827 23.7244 22.2161 23.3115 22.745 22.7826C23.2739 22.2537 23.6867 21.6203 23.9572 20.923C24.264 20.1063 24.4285 19.2453 24.446 18.3726C24.4962 17.2503 24.5113 16.8945 24.5113 14.0443C24.5113 11.1942 24.5113 10.8325 24.446 9.716C24.4324 8.83198 24.2663 7.95695 23.9548 7.1295ZM22.5338 18.2501C22.5263 18.9225 22.4036 19.5886 22.171 20.2195C21.9958 20.6731 21.7276 21.0851 21.3836 21.4289C21.0396 21.7727 20.6274 22.0407 20.1737 22.2156C19.5498 22.4472 18.8908 22.5699 18.2253 22.5785C17.117 22.6298 16.8043 22.6426 13.9623 22.6426C11.118 22.6426 10.8275 22.6426 9.69812 22.5785C9.03303 22.5703 8.37433 22.4476 7.75095 22.2156C7.29558 22.0418 6.88179 21.7743 6.53632 21.4304C6.19086 21.0866 5.92142 20.674 5.74545 20.2195C5.51614 19.5954 5.39348 18.9371 5.38262 18.2723C5.33245 17.164 5.32078 16.8513 5.32078 14.0093C5.32078 11.1662 5.32078 10.8757 5.38262 9.74516C5.39016 9.07319 5.51288 8.40749 5.74545 7.777C6.10128 6.8565 6.83045 6.132 7.75095 5.77966C8.37464 5.54883 9.03315 5.42612 9.69812 5.41683C10.8076 5.36666 11.1191 5.35266 13.9623 5.35266C16.8055 5.35266 17.0972 5.35266 18.2253 5.41683C18.8908 5.42484 19.5499 5.54758 20.1737 5.77966C20.6274 5.95498 21.0395 6.22323 21.3835 6.5672C21.7274 6.91116 21.9957 7.32325 22.171 7.777C22.4003 8.4011 22.523 9.05935 22.5338 9.72416C22.584 10.8337 22.5968 11.1452 22.5968 13.9883C22.5968 16.8303 22.5968 17.136 22.5467 18.2513H22.5338V18.2501Z" fill="#FF4D00"/>
</svg>
