<svg width="20" height="20" viewBox="0 0 20 20" fill="none" xmlns="http://www.w3.org/2000/svg">
<path d="M10 18.75C14.8325 18.75 18.75 14.8325 18.75 10C18.75 5.1675 14.8325 1.25 10 1.25C5.1675 1.25 1.25 5.1675 1.25 10C1.25 14.8325 5.1675 18.75 10 18.75Z" fill="#F9C23C"/>
<path opacity="0.53" d="M16.875 10C16.875 13.7969 13.7969 16.875 10 16.875C6.20312 16.875 3.125 13.7969 3.125 10C3.125 6.20312 6.20312 3.125 10 3.125C13.7969 3.125 16.875 6.20312 16.875 10ZM13.95 12.4312C13.928 12.364 13.8853 12.3055 13.8281 12.264C13.7709 12.2224 13.702 12.2 13.6312 12.2H13.65V7.35C13.9187 7.175 13.9688 6.74375 13.6438 6.55L10.275 4.5125C10.202 4.46654 10.1175 4.44216 10.0312 4.44216C9.94499 4.44216 9.86049 4.46654 9.7875 4.5125L6.4125 6.55C6.0875 6.74375 6.1375 7.175 6.4 7.35V12.2063H6.33125C6.18125 12.2063 6.05 12.3062 6.0125 12.45L5.79375 13.2312C5.73125 13.4438 5.89375 13.6562 6.1125 13.6562H13.8937C14.1125 13.65 14.275 13.4312 14.2062 13.2125L13.95 12.4312ZM7.4375 7.425V12.2H8.475V7.425H7.4375ZM9.50625 7.425V12.2H10.5625V7.425H9.50625ZM11.6 7.425V12.2H12.6125V7.425H11.6Z" fill="#D3883E"/>
</svg>
