<svg width="28" height="28" viewBox="0 0 28 28" fill="none" xmlns="http://www.w3.org/2000/svg">
<path d="M13.968 22.371C12.2053 22.371 10.6529 22.2369 9.56289 21.8762C9.02144 21.6971 8.64681 21.4787 8.41386 21.2401C8.19764 21.0187 8.08117 20.7593 8.08117 20.4119H6.66992C6.66992 21.1268 6.93309 21.7304 7.39745 22.206C7.84507 22.6645 8.45193 22.9772 9.11419 23.1963C10.4315 23.6321 12.1754 23.7633 13.968 23.7633V22.371ZM8.08117 20.4119C8.08117 19.6933 8.60185 18.887 9.70046 18.2212C10.7785 17.5678 12.2959 17.1338 13.968 17.1338V15.7415C12.065 15.7415 10.2862 16.2322 8.96179 17.0348C7.65795 17.825 6.66992 19.0058 6.66992 20.4119H8.08117ZM13.968 17.1338C15.6309 17.1338 17.1492 17.5639 18.2302 18.2137C19.3327 18.8763 19.8547 19.6783 19.8547 20.3934H21.266C21.266 18.9851 20.2695 17.8091 18.9645 17.0247C17.6382 16.2275 15.8603 15.7415 13.968 15.7415V17.1338ZM19.8547 20.3934C19.8547 20.742 19.7384 21.0033 19.5225 21.2265C19.2904 21.4664 18.9173 21.6865 18.3776 21.8675C17.2909 22.2321 15.7393 22.371 13.968 22.371V23.7633C15.7716 23.7633 17.5162 23.6271 18.832 23.1857C19.4936 22.9638 20.0981 22.6481 20.5435 22.1877C21.0052 21.7104 21.266 21.1067 21.266 20.3934H19.8547Z" fill="#212121"/>
<path d="M9.74177 9.23996L10.4474 9.24193V9.23996H9.74177ZM13.938 13.4081L13.9357 14.1042H13.938V13.4081ZM13.9677 14.1042C16.6907 14.1042 18.8992 11.9269 18.8992 9.23996H17.488C17.488 11.1575 15.9118 12.7119 13.9677 12.7119V14.1042ZM18.8992 9.23996C18.8992 6.55323 16.691 4.37463 13.9677 4.37463V5.76694C15.9116 5.76694 17.488 7.32219 17.488 9.23996H18.8992ZM13.9677 4.37463C11.2444 4.37463 9.03615 6.55323 9.03615 9.23996H10.4474C10.4474 7.32219 12.0238 5.76694 13.9677 5.76694V4.37463ZM9.03615 9.23798C9.02847 11.9152 11.2195 14.0953 13.9357 14.1042L13.9404 12.7119C12.0048 12.7056 10.4419 11.1519 10.4474 9.24193L9.03615 9.23798ZM13.938 14.1042H13.9677V12.7119H13.938V14.1042Z" fill="#212121"/>
<path d="M20.7983 11.5907C20.4219 11.6901 20.1984 12.0717 20.2991 12.4431C20.3998 12.8145 20.7867 13.035 21.1631 12.9357L20.7983 11.5907ZM20.9397 5.47027C20.5579 5.39334 20.1852 5.63634 20.1072 6.01304C20.0292 6.38974 20.2755 6.75748 20.6573 6.83441L20.9397 5.47027ZM21.1631 12.9357C22.8214 12.4979 24.0452 11.0066 24.0452 9.22887H22.6339C22.6339 10.3598 21.8557 11.3115 20.7983 11.5907L21.1631 12.9357ZM24.0452 9.22887C24.0452 7.375 22.7134 5.82765 20.9397 5.47027L20.6573 6.83441C21.7859 7.0618 22.6339 8.04845 22.6339 9.22887H24.0452Z" fill="#212121"/>
<path d="M21.6187 14.981C21.229 14.981 20.9131 15.2926 20.9131 15.6771C20.9131 16.0616 21.229 16.3733 21.6187 16.3733V14.981ZM23.599 19.0505C23.2196 19.1384 22.9842 19.513 23.0732 19.8873C23.1623 20.2616 23.542 20.4938 23.9214 20.406L23.599 19.0505ZM21.6187 16.3733C22.4267 16.3733 23.1753 16.6453 23.7116 17.0285C24.2736 17.4301 24.4826 17.8566 24.4826 18.1147H25.8939C25.8939 17.2228 25.2807 16.4305 24.5393 15.9008C23.7721 15.3527 22.736 14.981 21.6187 14.981V16.3733ZM24.4826 18.1147C24.4826 18.4369 24.1727 18.9177 23.599 19.0505L23.9214 20.406C25.0688 20.1403 25.8939 19.1462 25.8939 18.1147H24.4826Z" fill="#212121"/>
<path d="M6.77293 12.9357C7.14942 13.035 7.53621 12.8144 7.63687 12.443C7.73753 12.0715 7.51393 11.6899 7.13745 11.5906L6.77293 12.9357ZM7.2776 6.83439C7.65941 6.7574 7.90568 6.38963 7.82763 6.01294C7.7496 5.63625 7.37682 5.3933 6.99501 5.47029L7.2776 6.83439ZM7.13745 11.5906C6.07905 11.3114 5.3009 10.3597 5.3009 9.22887H3.88965C3.88965 11.0067 5.11358 12.498 6.77293 12.9357L7.13745 11.5906ZM5.3009 9.22887C5.3009 8.04867 6.14987 7.0618 7.2776 6.83439L6.99501 5.47029C5.22278 5.82766 3.88965 7.37478 3.88965 9.22887H5.3009Z" fill="#212121"/>
<path d="M6.31616 16.3733C6.70586 16.3733 7.02178 16.0616 7.02178 15.6771C7.02178 15.2926 6.70586 14.981 6.31616 14.981V16.3733ZM4.01473 20.406C4.39416 20.4938 4.77383 20.2614 4.86277 19.8871C4.95171 19.5128 4.71622 19.1382 4.3368 19.0505L4.01473 20.406ZM6.31616 14.981C5.19891 14.981 4.16272 15.3527 3.39555 15.9008C2.65418 16.4305 2.04102 17.2228 2.04102 18.1147H3.45226C3.45226 17.8566 3.66123 17.4301 4.22331 17.0285C4.75958 16.6453 5.50815 16.3733 6.31616 16.3733V14.981ZM2.04102 18.1147C2.04102 19.1464 2.86631 20.1405 4.01473 20.406L4.3368 19.0505C3.76193 18.9175 3.45226 18.4367 3.45226 18.1147H2.04102Z" fill="#212121"/>
</svg>
