<svg width="20" height="20" viewBox="0 0 20 20" fill="none" xmlns="http://www.w3.org/2000/svg">
<g clip-path="url(#clip0_2_76)">
<path d="M0 6.875H20V13.125H0V6.875Z" fill="#2B3990"/>
<path d="M3.12521 16.875H16.8752C18.4646 16.875 19.4524 15.9672 19.8271 14.6875H0.17334C0.548027 15.9672 1.53584 16.875 3.12521 16.875ZM16.8752 3.125H3.12521C1.53584 3.125 0.548027 4.03281 0.17334 5.3125H19.8274C19.4524 4.03281 18.4646 3.125 16.8752 3.125Z" fill="#EC1C24"/>
<path d="M20.0001 13.125H5.32643e-05V13.4375C5.32643e-05 13.8791 0.0594283 14.2997 0.173178 14.6875H19.8272C19.9407 14.2997 20.0001 13.8791 20.0001 13.4375V13.125ZM20.0001 6.5625C20.0001 6.12094 19.9407 5.70031 19.8269 5.3125H0.173178C0.0562793 5.7188 -0.00201712 6.13972 5.32643e-05 6.5625V6.875H20.0001V6.5625Z" fill="#E6E7E8"/>
</g>
<defs>
<clipPath id="clip0_2_76">
<rect width="20" height="20" fill="white"/>
</clipPath>
</defs>
</svg>
