<svg width="28" height="28" viewBox="0 0 28 28" fill="none" xmlns="http://www.w3.org/2000/svg">
<path d="M4.61149 14C4.61149 10.2553 5.24483 7.98172 6.61355 6.613C7.98227 5.24428 10.2558 4.61094 14.0005 4.61094V3.20844C10.178 3.20844 7.40645 3.83666 5.62183 5.62128C3.83721 7.4059 3.20898 10.1775 3.20898 14H4.61149ZM14.0005 4.61094C17.7452 4.61094 20.0187 5.24428 21.3875 6.613C22.7562 7.98172 23.3895 10.2553 23.3895 14H24.792C24.792 10.1775 24.1638 7.4059 22.3792 5.62128C20.5946 3.83666 17.8229 3.20844 14.0005 3.20844V4.61094ZM23.3895 14C23.3895 17.7447 22.7562 20.0181 21.3875 21.3869C20.0187 22.7557 17.7452 23.3889 14.0005 23.3889V24.7914C17.8229 24.7914 20.5946 24.1632 22.3792 22.3787C24.1638 20.594 24.792 17.8224 24.792 14H23.3895ZM14.0005 23.3889C10.2558 23.3889 7.98227 22.7557 6.61355 21.3869C5.24483 20.0181 4.61149 17.7447 4.61149 14H3.20898C3.20898 17.8224 3.83721 20.594 5.62183 22.3787C7.40645 24.1632 10.178 24.7914 14.0005 24.7914V23.3889Z" fill="#212121"/>
<path d="M14.1564 9.75075C14.1564 9.36346 13.8425 9.0495 13.4552 9.0495C13.0679 9.0495 12.7539 9.36346 12.7539 9.75075H14.1564ZM12.7539 13.9996C12.7539 14.3869 13.0679 14.7008 13.4552 14.7008C13.8425 14.7008 14.1564 14.3869 14.1564 13.9996H12.7539ZM12.7539 9.75075V13.9996H14.1564V9.75075H12.7539Z" fill="#212121"/>
<path d="M13.4552 16.5715C13.0679 16.5715 12.7539 16.8855 12.7539 17.2728C12.7539 17.6601 13.0679 17.974 13.4552 17.974V16.5715ZM13.465 17.974C13.8523 17.974 14.1662 17.6601 14.1662 17.2728C14.1662 16.8855 13.8523 16.5715 13.465 16.5715V17.974ZM13.4552 17.974H13.465V16.5715H13.4552V17.974Z" fill="#212121"/>
</svg>
