<svg width="127" height="41" viewBox="0 0 127 41" fill="none" xmlns="http://www.w3.org/2000/svg">
<path fill-rule="evenodd" clip-rule="evenodd" d="M56.54 2.5H59.92C61.33 2.5 62.46 3.65 62.46 5.061V8.47C62.46 9.89 61.33 11.03 59.92 11.03H56.54C55.14 11.03 54 9.89 54 8.47V5.061C54 3.65 55.14 2.5 56.54 2.5ZM56.54 13.9697H59.92C61.33 13.9697 62.46 15.1107 62.46 16.5307V19.9397C62.46 21.3497 61.33 22.4997 59.92 22.4997H56.54C55.14 22.4997 54 21.3497 54 19.9397V16.5307C54 15.1107 55.14 13.9697 56.54 13.9697ZM71.4601 2.5H68.0801C66.6701 2.5 65.5401 3.65 65.5401 5.061V8.47C65.5401 9.89 66.6701 11.03 68.0801 11.03H71.4601C72.8601 11.03 74.0001 9.89 74.0001 8.47V5.061C74.0001 3.65 72.8601 2.5 71.4601 2.5ZM68.0801 13.9697H71.4601C72.8601 13.9697 74.0001 15.1107 74.0001 16.5307V19.9397C74.0001 21.3497 72.8601 22.4997 71.4601 22.4997H68.0801C66.6701 22.4997 65.5401 21.3497 65.5401 19.9397V16.5307C65.5401 15.1107 66.6701 13.9697 68.0801 13.9697Z" fill="#D9D9D9"/>
<rect y="37" width="127" height="4" rx="2" fill="#FF4D00"/>
</svg>
