<svg width="20" height="20" viewBox="0 0 20 20" fill="none" xmlns="http://www.w3.org/2000/svg">
<path d="M13.3089 10.3455C13.3089 8.66068 11.9367 7.29449 10.2443 7.29449V8.65211C11.1835 8.65211 11.9453 9.41047 11.9453 10.3455H13.3089ZM10.2443 7.29449C8.55194 7.29449 7.17969 8.66068 7.17969 10.3455H8.54333C8.54333 9.41047 9.30506 8.65211 10.2443 8.65211V7.29449ZM7.17969 10.3455C7.17969 12.0304 8.55194 13.3966 10.2443 13.3966V12.039C9.30506 12.039 8.54333 11.2806 8.54333 10.3455H7.17969ZM10.2443 13.3966C11.9367 13.3966 13.3089 12.0304 13.3089 10.3455H11.9453C11.9453 11.2806 11.1835 12.039 10.2443 12.039V13.3966Z" fill="#9E9E9E"/>
<path d="M14.3872 5.52348L14.1819 6.17078C14.1898 6.17326 14.1977 6.17559 14.2057 6.17779L14.3872 5.52348ZM13.7493 5.12096L14.2538 4.66444L14.2529 4.6634L13.7493 5.12096ZM12.4733 3.4418L12.7383 2.81633L12.7376 2.81609L12.4733 3.4418ZM8.01396 3.4418L7.75647 2.81326L7.75564 2.8136L8.01396 3.4418ZM6.73804 5.12096L6.23439 4.6634L6.23344 4.66444L6.73804 5.12096ZM6.10008 5.52348L6.28157 6.17779C6.28932 6.17567 6.29703 6.1734 6.3047 6.171L6.10008 5.52348ZM10.2436 16.8337C13.3018 16.8337 15.2683 16.3913 16.4236 15.2315C17.5865 14.0641 17.7461 12.3465 17.7461 10.3974H16.3825C16.3825 12.3878 16.1792 13.5489 15.4554 14.2755C14.7243 15.0095 13.2803 15.4761 10.2436 15.4761V16.8337ZM17.7461 10.3974C17.7461 9.01895 17.6612 7.81762 17.2075 6.87083C16.7218 5.85758 15.8644 5.22538 14.5687 4.86916L14.2057 6.17779C15.2203 6.45671 15.7013 6.88084 15.9767 7.45544C16.2839 8.09649 16.3825 9.01454 16.3825 10.3974H17.7461ZM14.5925 4.87618C14.4744 4.83903 14.3497 4.76952 14.2538 4.66444L13.2446 5.57748C13.5299 5.89 13.8758 6.07454 14.1819 6.17078L14.5925 4.87618ZM14.2529 4.6634C14.2559 4.66673 14.2449 4.65491 14.2198 4.61366C14.1957 4.57401 14.1676 4.5223 14.1323 4.45315C14.07 4.33104 13.9721 4.12612 13.8716 3.94474C13.6693 3.57936 13.3331 3.06606 12.7383 2.81633L12.2084 4.06728C12.3568 4.12956 12.5046 4.28792 12.6774 4.60016C12.7646 4.75759 12.8272 4.89296 12.9167 5.06843C12.9896 5.21118 13.0983 5.41772 13.2456 5.57852L14.2529 4.6634ZM12.7376 2.81609C12.4469 2.69432 12.0279 2.63095 11.6309 2.59305C11.2081 2.55268 10.7196 2.53402 10.2378 2.53494C9.75597 2.53587 9.26891 2.55641 8.84863 2.59716C8.45364 2.63547 8.04058 2.6979 7.75647 2.81327L8.27145 4.07034C8.35297 4.03724 8.58725 3.98655 8.98082 3.94838C9.34908 3.91267 9.7918 3.89342 10.2405 3.89255C10.6892 3.89169 11.132 3.90926 11.5007 3.94446C11.8953 3.98213 12.1282 4.03368 12.209 4.06752L12.7376 2.81609ZM7.75564 2.8136C7.1603 3.05625 6.82223 3.57606 6.62085 3.93858C6.51983 4.12043 6.42087 4.32629 6.35745 4.44978C6.32162 4.51958 6.29302 4.57205 6.26844 4.61236C6.24281 4.6544 6.23146 4.6666 6.2344 4.6634L7.24168 5.57852C7.3886 5.41822 7.49795 5.21124 7.57162 5.06778C7.66217 4.89146 7.72599 4.75434 7.81416 4.59561C7.99118 4.27694 8.13715 4.12508 8.27228 4.07001L7.75564 2.8136ZM6.23344 4.66444C6.13714 4.76994 6.01322 4.83908 5.89546 4.87596L6.3047 6.171C6.61278 6.0745 6.95775 5.88958 7.24263 5.57748L6.23344 4.66444ZM5.91859 4.86916C4.62289 5.22538 3.76545 5.85758 3.27986 6.87083C2.82611 7.81762 2.74121 9.01895 2.74121 10.3974H4.10485C4.10485 9.01454 4.20337 8.09649 4.51059 7.45544C4.78597 6.88084 5.26705 6.45671 6.28157 6.17779L5.91859 4.86916ZM2.74121 10.3974C2.74121 12.3465 2.90084 14.0641 4.06362 15.2315C5.219 16.3913 7.18546 16.8337 10.2436 16.8337V15.4761C7.20689 15.4761 5.76304 15.0095 5.03186 14.2755C4.30806 13.5489 4.10485 12.3878 4.10485 10.3974H2.74121Z" fill="#9E9E9E"/>
<path d="M13.589 6.65192C13.2125 6.65192 12.9072 6.95583 12.9072 7.33072C12.9072 7.70562 13.2125 8.00953 13.589 8.00953V6.65192ZM13.5959 8.00953C13.9724 8.00953 14.2777 7.70562 14.2777 7.33072C14.2777 6.95583 13.9724 6.65192 13.5959 6.65192V8.00953ZM13.589 8.00953H13.5959V6.65192H13.589V8.00953Z" fill="#9E9E9E"/>
</svg>
