<svg width="28" height="28" viewBox="0 0 28 28" fill="none" xmlns="http://www.w3.org/2000/svg">
<path d="M4.61149 14C4.61149 10.2553 5.24483 7.98172 6.61355 6.613C7.98227 5.24428 10.2558 4.61094 14.0005 4.61094V3.20844C10.178 3.20844 7.40645 3.83666 5.62183 5.62128C3.83721 7.4059 3.20898 10.1775 3.20898 14H4.61149ZM14.0005 4.61094C17.7452 4.61094 20.0187 5.24428 21.3875 6.613C22.7562 7.98172 23.3895 10.2553 23.3895 14H24.792C24.792 10.1775 24.1638 7.4059 22.3792 5.62128C20.5946 3.83666 17.8229 3.20844 14.0005 3.20844V4.61094ZM23.3895 14C23.3895 17.7447 22.7562 20.0181 21.3875 21.3869C20.0187 22.7557 17.7452 23.3889 14.0005 23.3889V24.7914C17.8229 24.7914 20.5946 24.1632 22.3792 22.3787C24.1638 20.594 24.792 17.8224 24.792 14H23.3895ZM14.0005 23.3889C10.2558 23.3889 7.98227 22.7557 6.61355 21.3869C5.24483 20.0181 4.61149 17.7447 4.61149 14H3.20898C3.20898 17.8224 3.83721 20.594 5.62183 22.3787C7.40645 24.1632 10.178 24.7914 14.0005 24.7914V23.3889Z" fill="#212121"/>
<path d="M17.1889 14.8257C16.6725 14.8257 16.2539 15.2443 16.2539 15.7607C16.2539 16.2771 16.6725 16.6957 17.1889 16.6957V14.8257ZM17.1987 16.6957C17.7151 16.6957 18.1337 16.2771 18.1337 15.7607C18.1337 15.2443 17.7151 14.8257 17.1987 14.8257V16.6957ZM17.1889 16.6957H17.1987V14.8257H17.1889V16.6957Z" fill="#212121"/>
<path d="M13.9174 10.462C13.401 10.462 12.9824 10.8807 12.9824 11.397C12.9824 11.9134 13.401 12.332 13.9174 12.332V10.462ZM13.9272 12.332C14.4436 12.332 14.8622 11.9134 14.8622 11.397C14.8622 10.8807 14.4436 10.462 13.9272 10.462V12.332ZM13.9174 12.332H13.9272V10.462H13.9174V12.332Z" fill="#212121"/>
<path d="M10.6342 14.8257C10.1178 14.8257 9.69922 15.2443 9.69922 15.7607C9.69922 16.2771 10.1178 16.6957 10.6342 16.6957V14.8257ZM10.644 16.6957C11.1604 16.6957 11.579 16.2771 11.579 15.7607C11.579 15.2443 11.1604 14.8257 10.644 14.8257V16.6957ZM10.6342 16.6957H10.644V14.8257H10.6342V16.6957Z" fill="#212121"/>
</svg>
