<svg width="20" height="20" viewBox="0 0 20 20" fill="none" xmlns="http://www.w3.org/2000/svg">
<path d="M0 6.5625V10H10V3.125H3.125C1.05406 3.125 0 4.66406 0 6.5625Z" fill="#2B3990"/>
<path d="M16.875 3.125H10V10H0V13.4375C0 15.3359 1.05406 16.875 3.125 16.875H16.875C18.9459 16.875 20 15.3359 20 13.4375V6.5625C20 4.66406 18.9459 3.125 16.875 3.125Z" fill="#EC1C24"/>
<path fill-rule="evenodd" clip-rule="evenodd" d="M5.02504 7.83751C4.8588 7.83735 4.69424 7.80432 4.54083 7.7403C4.38741 7.67629 4.24817 7.58257 4.13112 7.46453C4.01407 7.34649 3.92152 7.20647 3.8588 7.05252C3.79608 6.89857 3.76443 6.73374 3.76566 6.56751C3.76785 5.87032 4.33691 5.30814 5.03879 5.30814C5.73535 5.30939 6.29816 5.88314 6.29504 6.58407C6.29223 7.27782 5.72285 7.84032 5.02629 7.8372M4.55973 5.21595C4.3784 5.28137 4.21131 5.38098 4.06754 5.50939L3.78035 4.44064C4.03566 4.69532 4.29848 4.9572 4.55973 5.21595ZM5.99066 5.5097C5.84331 5.37804 5.67136 5.27683 5.48473 5.21189L6.2841 4.41689C6.18629 4.78376 6.08941 5.1422 5.99066 5.5097ZM2.86754 7.82814C3.13879 7.55376 3.4016 7.28939 3.66629 7.02189C3.73098 7.20595 3.8266 7.37532 3.96504 7.53314C3.59598 7.63189 3.23566 7.72782 2.86754 7.82814ZM6.09473 7.53439C6.22537 7.38661 6.32589 7.21475 6.39066 7.02845L7.17598 7.82501C6.81785 7.72876 6.46066 7.63314 6.09473 7.53439ZM4.72816 5.1672L5.01973 4.07501H5.0366C5.13285 4.43564 5.22848 4.79689 5.32785 5.1672C5.12938 5.13345 4.92664 5.13345 4.72816 5.1672ZM5.01879 9.06876L4.72754 7.97501C4.92581 8.01751 5.13083 8.01751 5.3291 7.97501C5.22941 8.34626 5.13473 8.7072 5.03691 9.06782L5.01879 9.06876ZM7.53441 6.57814C7.17223 6.67501 6.80941 6.77189 6.43566 6.87126C6.47321 6.67285 6.47247 6.46908 6.43348 6.27095L7.5341 6.56407L7.53441 6.57814ZM3.62598 6.27189C3.58634 6.47041 3.58592 6.67477 3.62473 6.87345C3.25191 6.77314 2.88973 6.67689 2.52816 6.58064C2.52622 6.57594 2.52496 6.571 2.52441 6.56595C2.88816 6.46939 3.2516 6.37189 3.62598 6.27189ZM4.5641 7.9297C4.29754 8.1947 4.03066 8.46157 3.7766 8.71532C3.86941 8.37282 3.96723 8.00907 4.06723 7.63814C4.21197 7.76719 4.38085 7.86628 4.5641 7.9297ZM5.48598 7.93282C5.6726 7.86902 5.84446 7.76827 5.99129 7.63657L6.28441 8.72626C6.01848 8.46157 5.75285 8.1972 5.48598 7.93282ZM6.3916 6.12126C6.3271 5.93322 6.22623 5.75972 6.09473 5.61064C6.46598 5.51126 6.82754 5.41345 7.19254 5.31533C6.92379 5.58564 6.65941 5.85282 6.3916 6.12126ZM2.84691 5.31095L3.96473 5.61064C3.82927 5.76419 3.72599 5.94335 3.66098 6.13751C3.38973 5.86095 3.1241 5.59251 2.84691 5.31095Z" fill="#FEFEFE"/>
</svg>
