<svg width="28" height="28" viewBox="0 0 28 28" fill="none" xmlns="http://www.w3.org/2000/svg">
<path d="M24.3117 16.158H25.0137C25.0137 15.7728 24.6994 15.4606 24.3117 15.4606V16.158ZM24.3117 11.6944V12.3918C24.6994 12.3918 25.0137 12.0795 25.0137 11.6944H24.3117ZM3.79377 11.6944H3.0918C3.0918 12.0795 3.40608 12.3918 3.79377 12.3918V11.6944ZM3.79377 16.158V15.4606C3.40608 15.4606 3.0918 15.7728 3.0918 16.158H3.79377ZM24.3117 15.4606C23.7833 15.4606 23.4347 15.2654 23.2089 15.0051C22.9705 14.7304 22.8344 14.3412 22.8344 13.9262C22.8344 13.5112 22.9705 13.1219 23.2089 12.8473C23.4347 12.587 23.7833 12.3918 24.3117 12.3918V10.997C23.3872 10.997 22.6461 11.3597 22.1456 11.9364C21.6576 12.4986 21.4304 13.2252 21.4304 13.9262C21.4304 14.6271 21.6576 15.3537 22.1456 15.916C22.6461 16.4926 23.3872 16.8554 24.3117 16.8554V15.4606ZM25.0137 11.6944C25.0137 10.4222 25.016 9.26829 24.8426 8.2946C24.6644 7.29355 24.2897 6.41093 23.4899 5.71995C22.7107 5.04671 21.6046 4.623 20.1061 4.35931C18.6028 4.09478 16.6309 3.9794 14.0527 3.9794V5.37422C16.604 5.37422 18.4792 5.48958 19.8613 5.73276C21.2481 5.97679 22.0656 6.33777 22.5687 6.77246C23.0512 7.18942 23.3178 7.73795 23.4602 8.53755C23.6074 9.3645 23.6097 10.3807 23.6097 11.6944H25.0137ZM14.0527 3.9794C11.4745 3.9794 9.50268 4.09478 7.99934 4.35931C6.50083 4.623 5.39474 5.04671 4.6155 5.71995C3.81573 6.41093 3.44105 7.29355 3.26283 8.2946C3.08947 9.26829 3.0918 10.4222 3.0918 11.6944H4.49574C4.49574 10.3807 4.49808 9.3645 4.64531 8.53755C4.78767 7.73795 5.05418 7.18942 5.53678 6.77246C6.03991 6.33777 6.85737 5.97679 8.24419 5.73276C9.62619 5.48958 11.5014 5.37422 14.0527 5.37422V3.9794ZM3.79377 12.3918C4.32215 12.3918 4.67071 12.587 4.89662 12.8473C5.135 13.1219 5.27108 13.5112 5.27108 13.9262C5.27108 14.3412 5.135 14.7304 4.89662 15.0051C4.67071 15.2654 4.32215 15.4606 3.79377 15.4606V16.8554C4.71824 16.8554 5.45932 16.4926 5.95984 15.916C6.44789 15.3537 6.67502 14.6271 6.67502 13.9262C6.67502 13.2252 6.44789 12.4986 5.95984 11.9364C5.45932 11.3597 4.71824 10.997 3.79377 10.997V12.3918ZM3.0918 16.158C3.0918 17.4304 3.08947 18.5845 3.26282 19.5584C3.44104 20.5595 3.81571 21.4422 4.61547 22.1333C5.39471 22.8066 6.50081 23.2304 7.99933 23.4941C9.50267 23.7586 11.4745 23.8739 14.0527 23.8739V22.4791C11.5014 22.4791 9.62619 22.3638 8.2442 22.1205C6.85739 21.8765 6.03994 21.5156 5.53681 21.0808C5.05421 20.6638 4.78768 20.1152 4.64531 19.3154C4.49808 18.4883 4.49574 17.4719 4.49574 16.158H3.0918ZM14.0527 23.8739C16.6309 23.8739 18.6028 23.7586 20.1061 23.4941C21.6046 23.2304 22.7107 22.8066 23.49 22.1333C24.2897 21.4422 24.6644 20.5595 24.8426 19.5584C25.016 18.5845 25.0137 17.4304 25.0137 16.158H23.6097C23.6097 17.4719 23.6074 18.4883 23.4602 19.3154C23.3178 20.1152 23.0512 20.6638 22.5687 21.0808C22.0655 21.5156 21.2481 21.8765 19.8613 22.1205C18.4792 22.3638 16.604 22.4791 14.0527 22.4791V23.8739Z" fill="#212121"/>
<path d="M12.7925 12.5265L13.2747 13.0334L13.2759 13.0322L12.7925 12.5265ZM10.7768 13.2079L10.097 13.0339L10.0967 13.035L10.7768 13.2079ZM11.9812 14.8379L12.664 14.676L12.6637 14.6749L11.9812 14.8379ZM12.0238 16.8143L11.6238 17.3874L11.6255 17.3886L12.0238 16.8143ZM16.0815 16.8143L16.4798 17.3886L16.481 17.3878L16.0815 16.8143ZM16.1241 14.8379L15.4416 14.6749L15.4413 14.676L16.1241 14.8379ZM17.3285 13.2079L18.0086 13.035L18.0083 13.0339L17.3285 13.2079ZM15.3128 12.5265L14.8293 13.0322L14.8306 13.0334L15.3128 12.5265ZM14.0526 10.2289C13.2091 10.2289 12.8358 10.9344 12.6751 11.2701C12.6272 11.3704 12.583 11.4722 12.5448 11.5602C12.5047 11.6526 12.471 11.7302 12.4368 11.8021C12.4029 11.8735 12.3743 11.9265 12.3492 11.9662C12.3371 11.9854 12.3272 11.999 12.3199 12.0083C12.3125 12.0176 12.3088 12.0211 12.3091 12.0208L13.2759 13.0322C13.4866 12.8334 13.6193 12.5807 13.7063 12.3979C13.7527 12.3002 13.7962 12.1995 13.834 12.1125C13.8736 12.0212 13.9079 11.9425 13.9431 11.8689C14.1153 11.5091 14.1503 11.6237 14.0526 11.6237V10.2289ZM12.3104 12.0196C12.3689 11.9646 12.3913 11.9916 12.2252 12.0134C12.0622 12.0348 11.9101 12.0338 11.6476 12.0497C11.4326 12.0626 11.1255 12.0884 10.8457 12.2015C10.5265 12.3306 10.2126 12.5879 10.097 13.0339L11.4565 13.3819C11.437 13.4574 11.3675 13.4964 11.3749 13.4935C11.4216 13.4746 11.5231 13.4545 11.7325 13.4419C11.8944 13.4322 12.1824 13.4259 12.409 13.3962C12.6325 13.3669 12.9939 13.297 13.2747 13.0334L12.3104 12.0196ZM10.0967 13.035C9.99227 13.4405 10.0938 13.7958 10.2774 14.0713C10.4389 14.3134 10.6641 14.4943 10.8198 14.614C11.0096 14.7601 11.119 14.8338 11.2234 14.9301C11.3195 15.0189 11.3078 15.0389 11.2987 15.001L12.6637 14.6749C12.5775 14.3189 12.3529 14.0688 12.179 13.9083C12.0132 13.7552 11.7952 13.6004 11.6794 13.5112C11.5293 13.3957 11.4704 13.3347 11.4479 13.3011C11.442 13.2921 11.4504 13.3021 11.4556 13.3279C11.4581 13.3403 11.4591 13.3526 11.4587 13.3636C11.4585 13.3689 11.4581 13.3731 11.4577 13.3762C11.4572 13.3792 11.4568 13.3808 11.4568 13.3808L10.0967 13.035ZM11.2984 14.9999C11.2981 14.9985 11.3015 15.012 11.2995 15.0485C11.2974 15.0856 11.2903 15.1357 11.2753 15.2043C11.2602 15.2733 11.2401 15.348 11.2148 15.4384C11.1912 15.5228 11.161 15.6276 11.1356 15.7298C11.087 15.9248 11.028 16.2083 11.0705 16.505C11.1189 16.8437 11.2932 17.1597 11.6238 17.3874L12.4237 16.2412C12.4165 16.2362 12.429 16.2436 12.4433 16.267C12.4496 16.2775 12.4541 16.2876 12.457 16.296C12.4598 16.3042 12.4605 16.3089 12.4604 16.3086C12.4581 16.2923 12.4576 16.2288 12.4984 16.065C12.5176 15.9878 12.5399 15.9103 12.5674 15.8121C12.5932 15.7198 12.6229 15.6118 12.6472 15.5005C12.6937 15.288 12.7392 14.989 12.664 14.676L11.2984 14.9999ZM11.6255 17.3886C12.3424 17.8794 13.0586 17.4865 13.3772 17.3033C13.5996 17.1754 13.7044 17.1019 13.8592 17.023C13.923 16.9905 13.9704 16.9711 14.0059 16.96C14.0404 16.9493 14.0541 16.9495 14.0526 16.9495V15.5547C13.7154 15.5547 13.4245 15.677 13.2186 15.7818C13.0304 15.8777 12.7922 16.028 12.6738 16.0962C12.5129 16.1887 12.43 16.2205 12.3862 16.2289C12.3723 16.2315 12.3781 16.2284 12.3954 16.2316C12.4148 16.2351 12.425 16.2421 12.422 16.24L11.6255 17.3886ZM14.0526 16.9495C14.0511 16.9495 14.0648 16.9493 14.0994 16.96C14.1348 16.9711 14.1822 16.9905 14.246 17.023C14.4008 17.1019 14.5056 17.1754 14.728 17.3033C15.0466 17.4865 15.7628 17.8794 16.4798 17.3886L15.6832 16.24C15.6802 16.2421 15.6905 16.2351 15.7099 16.2316C15.7272 16.2284 15.733 16.2315 15.7191 16.2289C15.6753 16.2205 15.5923 16.1887 15.4315 16.0962C15.3131 16.028 15.0749 15.8777 14.8867 15.7818C14.6808 15.677 14.3898 15.5547 14.0526 15.5547V16.9495ZM16.481 17.3878C16.8119 17.1602 16.9866 16.8443 17.0352 16.5052C17.0778 16.2083 17.0187 15.9246 16.97 15.7296C16.9445 15.6274 16.9143 15.5225 16.8907 15.4381C16.8653 15.3477 16.8452 15.273 16.83 15.204C16.815 15.1354 16.8079 15.0853 16.8058 15.0483C16.8038 15.0118 16.8072 14.9984 16.8069 14.9999L15.4413 14.676C15.366 14.9892 15.4117 15.2883 15.4582 15.5008C15.4826 15.6121 15.5124 15.7202 15.5382 15.8124C15.5658 15.9106 15.5881 15.9881 15.6073 16.0653C15.6482 16.229 15.6476 16.2923 15.6453 16.3084C15.6453 16.3086 15.646 16.3039 15.6488 16.2956C15.6517 16.2871 15.6562 16.277 15.6626 16.2665C15.6769 16.2431 15.6894 16.2358 15.682 16.2409L16.481 17.3878ZM16.8066 15.001C16.7974 15.0389 16.7857 15.0189 16.8819 14.9301C16.9862 14.8338 17.0956 14.7601 17.2855 14.614C17.4411 14.4943 17.6664 14.3134 17.8278 14.0713C18.0115 13.7958 18.113 13.4405 18.0086 13.035L16.6484 13.3808C16.6484 13.3808 16.648 13.3792 16.6476 13.3762C16.6471 13.3731 16.6467 13.3689 16.6465 13.3636C16.6462 13.3526 16.6471 13.3403 16.6496 13.3279C16.6548 13.3021 16.6633 13.2921 16.6573 13.3011C16.6349 13.3347 16.576 13.3957 16.4259 13.5112C16.31 13.6004 16.0921 13.7552 15.9263 13.9083C15.7524 14.0688 15.5277 14.3189 15.4416 14.6749L16.8066 15.001ZM18.0083 13.0339C17.8926 12.5879 17.5787 12.3306 17.2596 12.2015C16.9798 12.0884 16.6726 12.0626 16.4577 12.0497C16.1952 12.0338 16.043 12.0348 15.8801 12.0134C15.714 11.9916 15.7364 11.9646 15.7949 12.0196L14.8306 13.0334C15.1114 13.297 15.4728 13.3669 15.6963 13.3962C15.9229 13.4259 16.2109 13.4322 16.3727 13.4419C16.5822 13.4545 16.6836 13.4746 16.7303 13.4935C16.7377 13.4964 16.6683 13.4574 16.6487 13.3819L18.0083 13.0339ZM15.7961 12.0208C15.7965 12.0211 15.7928 12.0176 15.7854 12.0083C15.778 11.999 15.7682 11.9854 15.756 11.9662C15.7309 11.9265 15.7024 11.8735 15.6684 11.8021C15.6342 11.7302 15.6006 11.6526 15.5605 11.5602C15.5223 11.4722 15.4781 11.3704 15.4301 11.2701C15.2695 10.9344 14.8961 10.2289 14.0526 10.2289V11.6237C13.9549 11.6237 13.99 11.5091 14.1621 11.8689C14.1973 11.9425 14.2316 12.0212 14.2712 12.1125C14.309 12.1995 14.3525 12.3002 14.399 12.3979C14.4859 12.5807 14.6187 12.8334 14.8293 13.0322L15.7961 12.0208Z" fill="#212121"/>
</svg>
