<svg width="28" height="28" viewBox="0 0 28 28" fill="none" xmlns="http://www.w3.org/2000/svg">
<path d="M10.612 13.5043C10.3381 13.2305 9.89413 13.2306 9.62033 13.5045C9.34653 13.7784 9.34662 14.2224 9.62054 14.4962L10.612 13.5043ZM12.7059 16.5888L12.2102 17.0847C12.4841 17.3585 12.928 17.3585 13.2018 17.0846L12.7059 16.5888ZM18.3789 11.9075C18.6528 11.6337 18.6528 11.1897 18.3789 10.9158C18.1051 10.6419 17.6611 10.6419 17.3872 10.9158L18.3789 11.9075ZM9.62054 14.4962L12.2102 17.0847L13.2017 16.0928L10.612 13.5043L9.62054 14.4962ZM13.2018 17.0846L18.3789 11.9075L17.3872 10.9158L12.2101 16.0929L13.2018 17.0846Z" fill="#212121"/>
<path d="M3.20801 14C3.20801 17.8224 3.83623 20.594 5.62085 22.3787C7.40547 24.1632 10.1771 24.7915 13.9996 24.7915V23.389C10.2548 23.389 7.98129 22.7557 6.61258 21.3869C5.24385 20.0182 4.61052 17.7447 4.61052 14H3.20801ZM13.9996 24.7915C17.822 24.7915 20.5936 24.1632 22.3782 22.3787C24.1628 20.594 24.791 17.8224 24.791 14H23.3885C23.3885 17.7447 22.7552 20.0182 21.3865 21.3869C20.0177 22.7557 17.7443 23.389 13.9996 23.389V24.7915ZM24.791 14C24.791 10.1775 24.1628 7.40591 22.3782 5.6213C20.5936 3.83667 17.822 3.20845 13.9996 3.20845V4.61096C17.7443 4.61096 20.0177 5.24429 21.3865 6.61302C22.7552 7.98174 23.3885 10.2553 23.3885 14H24.791ZM13.9996 3.20845C10.1771 3.20845 7.40547 3.83667 5.62085 5.6213C3.83623 7.40591 3.20801 10.1775 3.20801 14H4.61052C4.61052 10.2553 5.24385 7.98174 6.61258 6.61302C7.98129 5.24429 10.2548 4.61096 13.9996 4.61096V3.20845Z" fill="#212121"/>
</svg>
