<svg width="28" height="28" viewBox="0 0 28 28" fill="none" xmlns="http://www.w3.org/2000/svg">
<path d="M9.84856 18.1512L9.3518 18.6479L9.35184 18.648L9.84856 18.1512ZM4.17728 6.04842L4.7489 6.45673C4.76304 6.43693 4.77615 6.41641 4.78816 6.39525L4.17728 6.04842ZM9.49243 4.312L9.93902 3.76976L9.93764 3.76863L9.49243 4.312ZM13.3333 14.6679L12.8365 15.1646L12.8366 15.1647L13.3333 14.6679ZM23.6886 18.5073L24.2321 18.0622L24.2309 18.0607L23.6886 18.5073ZM21.9532 23.8221L21.6077 23.2105C21.586 23.2228 21.5649 23.2363 21.5446 23.2508L21.9532 23.8221ZM10.3453 17.6545C6.61518 13.9241 5.08956 11.2753 4.56194 9.49087C4.04544 7.74414 4.48313 6.82878 4.7489 6.45673L3.60565 5.64011C3.07681 6.38044 2.58127 7.74727 3.21464 9.88923C3.83687 11.9935 5.5442 14.84 9.3518 18.6479L10.3453 17.6545ZM4.78816 6.39525C4.78518 6.40051 4.93251 6.16806 5.20674 5.84556C5.47558 5.52938 5.8407 5.1575 6.26564 4.85891C6.69317 4.55849 7.14278 4.35914 7.5898 4.32641C8.01451 4.29531 8.50222 4.40884 9.04723 4.85537L9.93764 3.76863C9.13415 3.11032 8.29596 2.86601 7.48718 2.92524C6.70071 2.98283 6.00923 3.32198 5.45787 3.70941C4.37018 4.4737 3.65212 5.5506 3.56639 5.70159L4.78816 6.39525ZM9.04585 4.85424C10.6959 6.21311 11.2806 7.08564 11.4529 7.6654C11.6058 8.18026 11.4657 8.55868 11.1829 9.1431C10.9121 9.70272 10.4752 10.4955 10.6059 11.5405C10.7354 12.5754 11.3914 13.7193 12.8365 15.1646L13.83 14.1712C12.4644 12.8054 12.0717 11.9385 12 11.366C11.9296 10.8035 12.1391 10.3925 12.4475 9.75506C12.744 9.14241 13.1161 8.33059 12.7996 7.26533C12.5025 6.26497 11.6362 5.16748 9.93902 3.76976L9.04585 4.85424ZM12.8366 15.1647C14.282 16.6097 15.4259 17.2655 16.4609 17.3951C17.5059 17.5258 18.2987 17.0889 18.8583 16.818C19.4428 16.5351 19.8211 16.395 20.3358 16.5477C20.9153 16.7198 21.7877 17.3043 23.1464 18.9539L24.2309 18.0607C22.8333 16.364 21.736 15.4979 20.7357 15.201C19.6705 14.8847 18.8587 15.257 18.2462 15.5534C17.6088 15.8619 17.1977 16.0714 16.6353 16.001C16.0628 15.9294 15.1958 15.5366 13.8299 14.1712L12.8366 15.1647ZM23.1452 18.9524C23.5918 19.4977 23.7053 19.9857 23.6742 20.4105C23.6415 20.8577 23.4422 21.3073 23.1418 21.7348C22.8433 22.1597 22.4715 22.5247 22.1555 22.7934C21.8328 23.0678 21.6011 23.2143 21.6077 23.2105L22.2988 24.4337C22.4507 24.348 23.5273 23.6299 24.2914 22.5425C24.6788 21.9911 25.0179 21.2996 25.0754 20.5131C25.1346 19.7043 24.8903 18.8659 24.2321 18.0622L23.1452 18.9524ZM21.5446 23.2508C21.1726 23.5169 20.2572 23.9549 18.51 23.4384C16.7252 22.9107 14.076 21.385 10.3453 17.6545L9.35184 18.648C13.1601 22.4559 16.0069 24.1634 18.1117 24.7856C20.254 25.419 21.6214 24.9232 22.362 24.3935L21.5446 23.2508Z" fill="#212121"/>
</svg>
