<svg width="20" height="20" viewBox="0 0 20 20" fill="none" xmlns="http://www.w3.org/2000/svg">
<path fill-rule="evenodd" clip-rule="evenodd" d="M7.917 10.4614C10.2125 10.4614 12.0525 8.59752 12.0525 6.27234C12.0525 3.94717 10.2125 2.08331 7.917 2.08331C5.62152 2.08331 3.78147 3.94717 3.78147 6.27234C3.78147 8.59752 5.62152 10.4614 7.917 10.4614ZM7.91699 12.5126C4.54551 12.5126 1.66699 13.0517 1.66699 15.2053C1.66699 17.3582 4.52799 17.9166 7.91699 17.9166C11.2876 17.9166 14.167 17.3776 14.167 15.2239C14.167 13.0703 11.306 12.5126 7.91699 12.5126ZM16.5823 7.98971H17.5848C17.9975 7.98971 18.334 8.33091 18.334 8.74939C18.334 9.16786 17.9975 9.50907 17.5848 9.50907H16.5823V10.4901C16.5823 10.9086 16.2467 11.2498 15.8331 11.2498C15.4205 11.2498 15.084 10.9086 15.084 10.4901V9.50907H14.0831C13.6696 9.50907 13.334 9.16786 13.334 8.74939C13.334 8.33091 13.6696 7.98971 14.0831 7.98971H15.084V7.0095C15.084 6.59102 15.4205 6.24982 15.8331 6.24982C16.2467 6.24982 16.5823 6.59102 16.5823 7.0095V7.98971Z" fill="#D9D9D9"/>
</svg>
