<svg width="36" height="28" viewBox="0 0 36 28" fill="none" xmlns="http://www.w3.org/2000/svg">
<g clip-path="url(#clip0_27_51)">
<path d="M10.6036 8.02608C10.5449 8.02742 10.4867 8.03742 10.431 8.05577C10.2113 8.12834 10.0339 8.33108 9.9388 8.66909C9.84368 9.00709 9.85071 9.46088 10.004 9.92084C10.1572 10.3808 10.424 10.7489 10.7032 10.9633C10.9824 11.1776 11.2461 11.2346 11.4659 11.162C11.6856 11.0894 11.8629 10.8868 11.958 10.5487C12.0531 10.2107 12.0461 9.7569 11.8928 9.29694C11.7396 8.83694 11.4728 8.46897 11.1936 8.25459C10.9842 8.09381 10.7835 8.02155 10.6036 8.02608ZM17.7884 8.5094C17.6533 8.51553 17.5343 8.57772 17.4662 8.71815L16.9336 9.68475L15.8893 10.9468C15.8893 10.9468 13.7865 10.5746 13.0753 10.6787C12.9277 10.7001 12.7803 10.7231 12.6332 10.7478C12.492 11.2421 12.1719 11.6693 11.6882 11.8291C11.2384 11.9776 10.7634 11.8565 10.3694 11.5878C10.1911 11.7249 10.0261 11.8839 9.87888 12.0694C9.14942 12.6421 8.84821 13.0361 8.23435 13.4335C8.35478 12.8528 8.65165 12.2742 8.97755 11.7976C9.03107 11.7193 9.42657 11.3853 9.48099 11.313C9.77317 10.7385 9.15036 9.70295 8.56396 10.6934C8.50829 10.7707 8.277 11.4308 8.21954 11.5175C7.65024 12.6451 7.2947 13.3853 7.61509 14.4989C7.72274 14.8731 8.82251 14.3073 9.77251 13.6333C10.8065 15.0919 12.0914 15.5319 12.834 16.0973C11.9251 19.3545 13.235 21.8498 13.9775 24.2114L12.8389 25.621C12.4925 26.0362 14.7417 26.1333 14.8863 25.6503L15.1874 24.3285C14.0612 20.793 15.0647 18.1689 15.8757 16.2143C18.0323 13.908 20.3769 12.9993 22.4734 11.1834L24.243 10.8071C24.6667 10.0291 24.6428 9.64502 23.7018 9.60795L21.947 10.2953C19.7366 11.5377 16.2434 12.3792 14.662 14.123C14.6269 13.5744 13.9823 12.2753 13.8455 11.8403C14.6022 11.9408 15.6294 12.0053 16.2143 11.7355C16.8395 11.4473 17.528 10.1419 17.528 10.1419L18.2961 9.57354C18.9627 9.18065 18.2715 8.48768 17.7885 8.50948L17.7884 8.5094Z" fill="#777777"/>
</g>
<defs>
<clipPath id="clip0_27_51">
<rect width="36" height="28" fill="white"/>
</clipPath>
</defs>
</svg>
