<svg width="28" height="28" viewBox="0 0 28 28" fill="none" xmlns="http://www.w3.org/2000/svg">
<path d="M18.0099 13.2001C17.491 13.2001 17.0703 13.6207 17.0703 14.1397C17.0703 14.6586 17.491 15.0793 18.0099 15.0793V13.2001ZM18.0198 15.0793C18.5387 15.0793 18.9594 14.6586 18.9594 14.1397C18.9594 13.6207 18.5387 13.2001 18.0198 13.2001V15.0793ZM18.0099 15.0793H18.0198V13.2001H18.0099V15.0793Z" fill="#212121"/>
<path d="M13.6154 13.2001C13.0964 13.2001 12.6758 13.6207 12.6758 14.1397C12.6758 14.6586 13.0964 15.0793 13.6154 15.0793V13.2001ZM13.6252 15.0793C14.1442 15.0793 14.5648 14.6586 14.5648 14.1397C14.5648 13.6207 14.1442 13.2001 13.6252 13.2001V15.0793ZM13.6154 15.0793H13.6252V13.2001H13.6154V15.0793Z" fill="#212121"/>
<path d="M9.21986 13.2001C8.70094 13.2001 8.28027 13.6207 8.28027 14.1397C8.28027 14.6586 8.70094 15.0793 9.21986 15.0793V13.2001ZM9.22973 15.0793C9.74865 15.0793 10.1693 14.6586 10.1693 14.1397C10.1693 13.6207 9.74865 13.2001 9.22973 13.2001V15.0793ZM9.21986 15.0793H9.22973V13.2001H9.21986V15.0793Z" fill="#212121"/>
<path d="M21.7506 21.7498L21.2523 21.2515V21.2516L21.7506 21.7498ZM9.38045 23.9467L9.67625 23.3071C9.6655 23.3022 9.65463 23.2975 9.64364 23.293L9.38045 23.9467ZM4.06069 23.939L3.56236 24.4373L3.56269 24.4376L4.06069 23.939ZM4.05298 18.6185L4.7067 18.3554C4.70225 18.3443 4.69752 18.3334 4.69252 18.3226L4.05298 18.6185ZM6.24962 6.24666L6.74787 6.745L6.74801 6.74485L6.24962 6.24666ZM21.7506 6.24666L21.2523 6.74485L21.2524 6.74498L21.7506 6.24666ZM21.2523 21.2516C18.1197 24.3857 13.4773 25.065 9.67625 23.3071L9.08465 24.5863C13.4026 26.5833 18.6837 25.8149 22.2491 22.2479L21.2523 21.2516ZM9.64364 23.293C9.41784 23.2021 9.15602 23.2026 8.99453 23.2072C8.79782 23.2127 8.56919 23.2345 8.33333 23.2619C8.09527 23.2897 7.83107 23.3254 7.56215 23.3614C7.29054 23.3979 7.01073 23.4351 6.73029 23.4676C6.16269 23.5335 5.62608 23.5757 5.19319 23.5569C4.97734 23.5476 4.81154 23.5238 4.69289 23.4913C4.56896 23.4573 4.5451 23.4268 4.55869 23.4405L3.56269 24.4376C3.78669 24.6614 4.06815 24.7813 4.31978 24.8503C4.57669 24.9209 4.85669 24.953 5.13221 24.9649C5.68203 24.9888 6.3104 24.9352 6.89261 24.8676C7.18709 24.8335 7.4784 24.7947 7.74946 24.7583C8.02319 24.7217 8.27321 24.6879 8.49621 24.6619C8.72141 24.6357 8.90072 24.6197 9.03412 24.616C9.20275 24.6113 9.19323 24.631 9.11725 24.6004L9.64364 23.293ZM4.55901 23.4407C4.57255 23.4543 4.54215 23.4304 4.5081 23.3066C4.4755 23.1879 4.45174 23.0222 4.44237 22.8063C4.42359 22.3734 4.46581 21.8368 4.53169 21.2691C4.56423 20.9886 4.60149 20.7088 4.63795 20.4372C4.67405 20.1682 4.70983 19.9039 4.73756 19.6658C4.76504 19.43 4.78691 19.2013 4.79247 19.0047C4.79703 18.8431 4.79761 18.5813 4.7067 18.3554L3.39926 18.8817C3.36866 18.8056 3.38841 18.7962 3.38365 18.9648C3.37987 19.0982 3.36389 19.2775 3.33765 19.5028C3.31167 19.7258 3.27784 19.9759 3.24109 20.2497C3.2047 20.5208 3.16587 20.8121 3.13169 21.1066C3.06413 21.689 3.01045 22.3175 3.03431 22.8674C3.04627 23.143 3.07848 23.4231 3.14912 23.6801C3.21831 23.9318 3.33842 24.2133 3.56236 24.4373L4.55901 23.4407ZM4.69252 18.3226C2.93395 14.5223 3.61412 9.87815 6.74787 6.745L5.75138 5.74832C2.18503 9.31398 1.41546 14.5968 3.41344 18.9145L4.69252 18.3226ZM6.74801 6.74485C10.7493 2.74198 17.2509 2.74198 21.2523 6.74485L22.249 5.74846C17.6972 1.19493 10.303 1.19493 5.75124 5.74846L6.74801 6.74485ZM21.2524 6.74498C25.262 10.7542 25.2541 17.2492 21.2523 21.2515L22.249 22.248C26.8003 17.6962 26.8098 10.3088 22.2489 5.74834L21.2524 6.74498Z" fill="#212121"/>
</svg>
