<svg width="28" height="28" viewBox="0 0 28 28" fill="none" xmlns="http://www.w3.org/2000/svg">
<path d="M16.7512 14.0609C16.7512 15.5524 15.5205 16.7621 14.0031 16.7621V18.1407C16.2951 18.1407 18.1537 16.3138 18.1537 14.0609H16.7512ZM14.0031 16.7621C12.4858 16.7621 11.2551 15.5524 11.2551 14.0609H9.85254C9.85254 16.3138 11.7112 18.1407 14.0031 18.1407V16.7621ZM11.2551 14.0609C11.2551 12.5685 12.4856 11.3597 14.0031 11.3597V9.98105C11.7113 9.98105 9.85254 11.8068 9.85254 14.0609H11.2551ZM14.0031 11.3597C15.5206 11.3597 16.7512 12.5685 16.7512 14.0609H18.1537C18.1537 11.8068 16.2949 9.98105 14.0031 9.98105V11.3597Z" fill="#212121"/>
<path d="M3.20898 14.0608C3.20898 16.0918 4.49308 18.225 6.41346 19.8209C8.35218 21.4321 11.0323 22.5799 14.0029 22.5799V21.2012C11.3993 21.2012 9.03302 20.1926 7.31899 18.7682C5.58661 17.3285 4.61152 15.5468 4.61152 14.0608H3.20898ZM14.0029 22.5799C16.9729 22.5799 19.653 21.433 21.5919 19.8222C23.5125 18.2267 24.7969 16.0934 24.7969 14.0608H23.3943C23.3943 15.5485 22.4189 17.3301 20.6866 18.7693C18.9724 20.1934 16.6061 21.2012 14.0029 21.2012V22.5799ZM24.7969 14.0608C24.7969 12.0282 23.5125 9.89497 21.5919 8.29939C19.653 6.68861 16.9729 5.54178 14.0029 5.54178V6.92041C16.6061 6.92041 18.9724 7.92831 20.6866 9.35233C22.4189 10.7915 23.3943 12.5732 23.3943 14.0608H24.7969ZM14.0029 5.54178C11.0323 5.54178 8.35218 6.68951 6.41346 8.30067C4.49308 9.89659 3.20898 12.0298 3.20898 14.0608H4.61152C4.61152 12.5748 5.58661 10.7931 7.31899 9.35346C9.03302 7.92902 11.3993 6.92041 14.0029 6.92041V5.54178Z" fill="#212121"/>
</svg>
