<svg width="28" height="28" viewBox="0 0 28 28" fill="none" xmlns="http://www.w3.org/2000/svg">
<path fill-rule="evenodd" clip-rule="evenodd" d="M18.8504 9.60499C18.8504 12.3463 16.665 14.5444 13.9396 14.5444C11.2141 14.5444 9.02873 12.3463 9.02873 9.60499C9.02873 6.86264 11.2141 4.66666 13.9396 4.66666C16.665 4.66666 18.8504 6.86264 18.8504 9.60499ZM13.9398 23.3334C9.93674 23.3334 6.51869 22.6988 6.51869 20.1603C6.51869 17.6207 9.9148 16.963 13.9398 16.963C17.9428 16.963 21.3609 17.5976 21.3609 20.1372C21.3609 22.6757 17.9648 23.3334 13.9398 23.3334ZM20.9492 9.69381C20.9492 11.0912 20.5324 12.3931 19.8012 13.4753C19.726 13.5867 19.7928 13.7369 19.9255 13.76C20.1083 13.7916 20.2974 13.8094 20.4896 13.8147C22.4065 13.8651 24.127 12.6242 24.6023 10.7561C25.3064 7.98116 23.2391 5.48993 20.6066 5.48993C20.3204 5.48993 20.0467 5.5204 19.7803 5.57503C19.7437 5.58344 19.7051 5.60025 19.6842 5.63282C19.6591 5.67275 19.6779 5.72634 19.703 5.76101C20.4938 6.87581 20.9492 8.23543 20.9492 9.69381ZM24.1242 15.7653C25.4123 16.0185 26.2595 16.5354 26.6105 17.2867C26.9072 17.9034 26.9072 18.619 26.6105 19.2347C26.0735 20.3999 24.3426 20.774 23.6698 20.8706C23.5309 20.8917 23.4191 20.7708 23.4337 20.6311C23.7774 17.4023 21.0436 15.8714 20.3364 15.5194C20.3061 15.5036 20.2998 15.4795 20.303 15.4648C20.305 15.4542 20.3176 15.4374 20.3406 15.4343C21.871 15.4059 23.5163 15.6161 24.1242 15.7653ZM7.509 13.8149C7.70121 13.8096 7.88925 13.7928 8.0731 13.7602C8.20577 13.7371 8.27263 13.5869 8.19742 13.4755C7.46617 12.3932 7.04936 11.0914 7.04936 9.69398C7.04936 8.2356 7.50482 6.87598 8.29561 5.76118C8.32068 5.72651 8.33844 5.67292 8.31442 5.63299C8.29352 5.60147 8.25383 5.58361 8.21831 5.5752C7.95088 5.52057 7.67719 5.4901 7.39096 5.4901C4.75847 5.4901 2.69113 7.98133 3.39626 10.7562C3.87157 12.6244 5.59209 13.8653 7.509 13.8149ZM7.69578 15.4635C7.69892 15.4793 7.69265 15.5024 7.6634 15.5192C6.95513 15.8712 4.22132 17.4021 4.56501 20.6299C4.57963 20.7706 4.4689 20.8904 4.32996 20.8705C3.65722 20.7738 1.92625 20.3997 1.38931 19.2345C1.09159 18.6177 1.09159 17.9033 1.38931 17.2865C1.7403 16.5352 2.58646 16.0183 3.8745 15.764C4.48352 15.6159 6.12778 15.4057 7.65922 15.4341C7.6822 15.4373 7.69369 15.4541 7.69578 15.4635Z" fill="#D9D9D9"/>
</svg>
