<svg width="28" height="28" viewBox="0 0 28 28" fill="none" xmlns="http://www.w3.org/2000/svg">
<path d="M15.4366 21.1041C15.0541 21.1041 14.7441 21.419 14.7441 21.8075C14.7441 22.1959 15.0541 22.5108 15.4366 22.5108V21.1041ZM22.3051 22.5108C22.6875 22.5108 22.9975 22.1959 22.9975 21.8075C22.9975 21.419 22.6875 21.1041 22.3051 21.1041V22.5108ZM15.4366 22.5108H22.3051V21.1041H15.4366V22.5108Z" fill="#212121"/>
<path d="M13.7831 6.99202L14.3369 7.41427L14.3369 7.41423L13.7831 6.99202ZM6.51068 16.8333L5.9569 16.4111L5.95681 16.4112L6.51068 16.8333ZM6.40944 22.5116L5.80861 22.8611C5.90456 23.0313 6.06611 23.1531 6.25426 23.1971L6.40944 22.5116ZM11.7496 20.8278L11.1959 20.4055L11.1957 20.4057L11.7496 20.8278ZM19.022 10.9865L19.5759 11.4087L19.022 10.9865ZM18.7848 5.76525C17.0314 4.42946 14.5446 4.7898 13.2294 6.56982L14.3369 7.41423C15.1931 6.25554 16.812 6.0207 17.9539 6.89059L18.7848 5.76525ZM13.7831 6.99202C13.2294 6.56978 13.2294 6.56981 13.2293 6.56986C13.2293 6.56992 13.2292 6.57 13.2291 6.57011C13.229 6.57034 13.2287 6.57067 13.2284 6.57111C13.2277 6.572 13.2268 6.57332 13.2255 6.57508C13.2229 6.57861 13.219 6.58386 13.2138 6.59082C13.2036 6.60472 13.1883 6.62538 13.1683 6.65245C13.1283 6.70659 13.0694 6.78631 12.9937 6.88868C12.8424 7.0934 12.6242 7.38871 12.3565 7.751C11.821 8.47557 11.0875 9.46807 10.2956 10.5398C8.71157 12.6832 6.89344 15.1435 5.9569 16.4111L7.06447 17.2555C8.00097 15.988 9.81907 13.5277 11.4031 11.3843C12.195 10.3126 12.9285 9.32005 13.464 8.59548C13.7317 8.2332 13.9499 7.9379 14.1012 7.73316C14.1769 7.63079 14.2358 7.55107 14.2758 7.49694C14.2958 7.46988 14.3111 7.44921 14.3213 7.43531C14.3265 7.42835 14.3304 7.4231 14.333 7.41958C14.3343 7.41781 14.3352 7.41649 14.3359 7.4156C14.3362 7.41516 14.3365 7.41483 14.3366 7.41461C14.3367 7.41449 14.3368 7.41441 14.3368 7.41435C14.3369 7.4143 14.3369 7.41427 13.7831 6.99202ZM5.95681 16.4112C4.86097 17.895 4.84779 19.5423 5.07773 20.7564C5.19317 21.3658 5.3725 21.8846 5.52254 22.2511C5.59787 22.4351 5.66666 22.5827 5.71782 22.6865C5.74343 22.7385 5.7647 22.7795 5.78026 22.809C5.78805 22.8236 5.79442 22.8354 5.79919 22.8442C5.80158 22.8486 5.80358 22.8521 5.80515 22.8549C5.80594 22.8564 5.80662 22.8577 5.8072 22.8587C5.80749 22.8592 5.80775 22.8596 5.80798 22.86C5.8081 22.8603 5.80826 22.8606 5.80832 22.8607C5.80847 22.8609 5.80861 22.8611 6.40944 22.5116C7.01027 22.162 7.0104 22.1622 7.01052 22.1625C7.01056 22.1625 7.01067 22.1627 7.01073 22.1629C7.01086 22.163 7.01096 22.1632 7.01104 22.1633C7.01119 22.1636 7.01123 22.1637 7.01118 22.1636C7.01106 22.1634 7.01054 22.1625 7.00963 22.1608C7.00782 22.1575 7.00446 22.1513 6.99974 22.1424C6.99027 22.1245 6.97529 22.0956 6.95612 22.0567C6.91769 21.9788 6.8627 21.8612 6.80118 21.7109C6.67754 21.4089 6.53099 20.9836 6.43761 20.4906C6.24991 19.4996 6.28735 18.3077 7.06456 17.2553L5.95681 16.4112ZM6.40944 22.5116C6.25426 23.1971 6.25453 23.1971 6.25482 23.1971C6.25493 23.1971 6.25523 23.1972 6.25546 23.1973C6.25591 23.1974 6.25642 23.1975 6.25698 23.1977C6.2581 23.1979 6.25944 23.1983 6.26099 23.1986C6.2641 23.1993 6.26805 23.2001 6.27284 23.2013C6.28242 23.2033 6.29534 23.2061 6.31144 23.2094C6.34363 23.2161 6.3886 23.2249 6.44507 23.2348C6.5579 23.2546 6.71731 23.2791 6.91297 23.2996C7.30271 23.3406 7.84485 23.3671 8.45386 23.3072C9.66458 23.1883 11.2198 22.7173 12.3035 21.2498L11.1957 20.4057C10.4333 21.4382 9.31843 21.8091 8.3206 21.9071C7.82534 21.9557 7.37858 21.9344 7.05548 21.9005C6.89474 21.8836 6.76676 21.8638 6.68129 21.8487C6.63861 21.8412 6.60672 21.8349 6.58682 21.8309C6.57688 21.8288 6.56995 21.8273 6.5662 21.8265C6.56432 21.8261 6.56323 21.8258 6.56296 21.8257C6.56283 21.8257 6.5629 21.8257 6.56317 21.8258C6.56331 21.8258 6.5635 21.8259 6.56374 21.8259C6.56386 21.826 6.56408 21.826 6.56414 21.826C6.56437 21.8261 6.56462 21.8261 6.40944 22.5116ZM12.3033 21.2501C13.2269 20.0006 15.0451 17.5402 16.6323 15.3923C17.4259 14.3183 18.1618 13.3224 18.6993 12.595C18.968 12.2313 19.1872 11.9347 19.3392 11.7291C19.4151 11.6263 19.4743 11.5462 19.5145 11.4918C19.5346 11.4646 19.5499 11.4438 19.5603 11.4299C19.5654 11.4229 19.5693 11.4176 19.5719 11.4141C19.5732 11.4123 19.5742 11.411 19.5748 11.4101C19.5752 11.4096 19.5754 11.4093 19.5756 11.4091C19.5757 11.409 19.5758 11.4089 19.5758 11.4088C19.5759 11.4088 19.5759 11.4087 19.022 10.9865C18.4683 10.5643 18.4683 10.5643 18.4682 10.5644C18.4682 10.5645 18.4681 10.5645 18.468 10.5647C18.4679 10.5649 18.4676 10.5652 18.4673 10.5657C18.4666 10.5665 18.4657 10.5679 18.4643 10.5696C18.4617 10.5732 18.4579 10.5785 18.4527 10.5855C18.4423 10.5994 18.427 10.6202 18.4069 10.6474C18.3667 10.7018 18.3076 10.7819 18.2316 10.8847C18.0796 11.0903 17.8604 11.3869 17.5917 11.7506C17.0543 12.478 16.3184 13.4739 15.5248 14.5479C13.9375 16.6959 12.1195 19.1561 11.1959 20.4055L12.3033 21.2501ZM19.5759 11.4087C20.8909 9.62895 20.5376 7.10159 18.785 5.7654L17.9537 6.89044C19.0941 7.75991 19.3247 9.40539 18.4683 10.5643L19.5759 11.4087Z" fill="#212121"/>
<path d="M12.8034 8.33948C12.4976 8.1063 12.0636 8.1691 11.834 8.47976C11.6044 8.79043 11.6663 9.2313 11.9721 9.46449L12.8034 8.33948ZM17.211 13.459C17.5169 13.6922 17.9509 13.6294 18.1805 13.3187C18.41 13.008 18.3482 12.5672 18.0423 12.334L17.211 13.459ZM11.9721 9.46449L17.211 13.459L18.0423 12.334L12.8034 8.33948L11.9721 9.46449Z" fill="#212121"/>
</svg>
