<svg width="28" height="28" viewBox="0 0 28 28" fill="none" xmlns="http://www.w3.org/2000/svg">
<path d="M25.6387 15.0246C26.0292 15.0246 26.3457 14.7111 26.3457 14.3244C26.3457 13.9378 26.0292 13.6243 25.6387 13.6243V15.0246ZM2.3984 13.6243C2.00794 13.6243 1.69141 13.9378 1.69141 14.3244C1.69141 14.7111 2.00794 15.0246 2.3984 15.0246V13.6243ZM25.6387 13.6243H2.3984V15.0246H25.6387V13.6243Z" fill="#212121"/>
<path d="M3.40198 10.3126C3.33887 10.6942 3.60007 11.0542 3.9854 11.1167C4.37073 11.1792 4.73426 10.9205 4.79738 10.539L3.40198 10.3126ZM10.5596 4.8328C10.9449 4.7703 11.2062 4.4103 11.143 4.02872C11.0799 3.64714 10.7164 3.38848 10.3311 3.45098L10.5596 4.8328ZM4.79738 10.539C5.09593 8.73396 5.68095 7.47315 6.57231 6.59046C7.46367 5.70777 8.73687 5.12844 10.5596 4.8328L10.3311 3.45098C8.32662 3.7761 6.74043 4.44375 5.57247 5.60035C4.40451 6.75694 3.7303 8.3277 3.40198 10.3126L4.79738 10.539Z" fill="#212121"/>
<path d="M10.3286 24.4789C10.7138 24.5425 11.0781 24.2848 11.1422 23.9034C11.2064 23.522 10.9462 23.1613 10.5611 23.0978L10.3286 24.4789ZM4.09921 17.5044L4.7969 17.3913C4.7427 17.0635 4.46346 16.8186 4.1284 16.8049C3.79334 16.7912 3.49465 17.0125 3.41332 17.3346L4.09921 17.5044ZM4.09811 17.5088L3.40089 17.6248C3.45637 17.9518 3.73584 18.1954 4.07037 18.2084C4.40491 18.2214 4.7028 18.0002 4.78399 17.6786L4.09811 17.5088ZM4.57397 14.8575C4.5652 14.4709 4.24163 14.1646 3.85127 14.1733C3.46091 14.182 3.15157 14.5024 3.16034 14.889L4.57397 14.8575ZM10.5611 23.0978C8.73696 22.7967 7.46311 22.2171 6.5715 21.3354C5.68029 20.454 5.09541 19.196 4.7969 17.3913L3.40151 17.6176C3.72987 19.6028 4.40422 21.1709 5.57233 22.3261C6.74003 23.4809 8.32559 24.1483 10.3286 24.4789L10.5611 23.0978ZM3.41332 17.3346L3.41222 17.339L4.78399 17.6786L4.78509 17.6742L3.41332 17.3346ZM4.79532 17.3927C4.66911 16.649 4.59539 15.8014 4.57397 14.8575L3.16034 14.889C3.18291 15.8836 3.26096 16.8003 3.40089 17.6248L4.79532 17.3927Z" fill="#212121"/>
<path d="M24.8742 14.889C24.883 14.5024 24.5736 14.182 24.1833 14.1733C23.7929 14.1646 23.4693 14.4709 23.4606 14.8575L24.8742 14.889ZM23.9364 17.5088L23.2391 17.3937C23.1815 17.7354 23.3851 18.0675 23.7178 18.1746C24.0505 18.2817 24.4124 18.1317 24.5688 17.8219L23.9364 17.5088ZM23.9386 17.5044L24.6363 17.6178C24.6929 17.2762 24.4889 16.945 24.1564 16.8383C23.8239 16.7317 23.4626 16.8818 23.3063 17.1914L23.9386 17.5044ZM17.4756 23.0978C17.0905 23.1613 16.8303 23.522 16.8945 23.9034C16.9587 24.2848 17.3229 24.5425 17.7081 24.4789L17.4756 23.0978ZM23.4606 14.8575C23.4392 15.8007 23.3644 16.6488 23.2391 17.3937L24.6338 17.6239C24.7724 16.8005 24.8516 15.8843 24.8742 14.889L23.4606 14.8575ZM24.5688 17.8219L24.571 17.8175L23.3063 17.1914L23.3041 17.1957L24.5688 17.8219ZM23.241 17.3911C22.9419 19.1958 22.3568 20.4539 21.4654 21.3353C20.5736 22.2171 19.2998 22.7967 17.4756 23.0978L17.7081 24.4789C19.7112 24.1483 21.2967 23.4809 22.4645 22.3262C23.6327 21.171 24.3074 19.603 24.6363 17.6178L23.241 17.3911Z" fill="#212121"/>
<path d="M17.7081 3.45098C17.3228 3.38848 16.9592 3.64714 16.8961 4.02872C16.833 4.4103 17.0942 4.7703 17.4795 4.8328L17.7081 3.45098ZM23.2418 10.539C23.3049 10.9205 23.6684 11.1792 24.0538 11.1167C24.4391 11.0542 24.7003 10.6942 24.6372 10.3126L23.2418 10.539ZM17.4795 4.8328C19.3023 5.12844 20.5755 5.70777 21.4669 6.59046C22.3582 7.47315 22.9432 8.73396 23.2418 10.539L24.6372 10.3126C24.3089 8.3277 23.6347 6.75694 22.4667 5.60035C21.2987 4.44375 19.7125 3.7761 17.7081 3.45098L17.4795 4.8328Z" fill="#212121"/>
</svg>
