<svg width="16" height="15" viewBox="0 0 16 15" fill="none" xmlns="http://www.w3.org/2000/svg">
<path d="M11.0859 8.19365C11.0859 6.42616 9.64636 4.99298 7.87101 4.99298V6.41716C8.85631 6.41716 9.65539 7.21271 9.65539 8.19365H11.0859ZM7.87101 4.99298C6.09567 4.99298 4.65613 6.42616 4.65613 8.19365H6.08664C6.08664 7.21271 6.88572 6.41716 7.87101 6.41716V4.99298ZM4.65613 8.19365C4.65613 9.96115 6.09567 11.3943 7.87101 11.3943V9.97014C6.88572 9.97014 6.08664 9.17459 6.08664 8.19365H4.65613ZM7.87101 11.3943C9.64636 11.3943 11.0859 9.96115 11.0859 8.19365H9.65539C9.65539 9.17459 8.85631 9.97014 7.87101 9.97014V11.3943Z" fill="#FF4D00"/>
<path d="M12.217 3.13512L12.0017 3.81416C12.01 3.81676 12.0183 3.81921 12.0267 3.82152L12.217 3.13512ZM11.5478 2.71286L12.0771 2.23395L12.0762 2.23286L11.5478 2.71286ZM10.2093 0.951364L10.4873 0.29522L10.4866 0.294968L10.2093 0.951364ZM5.53131 0.951364L5.26119 0.292002L5.26032 0.292358L5.53131 0.951364ZM4.19282 2.71286L3.66447 2.23286L3.66348 2.23395L4.19282 2.71286ZM3.52358 3.13512L3.71397 3.82152C3.72209 3.81929 3.73018 3.8169 3.73823 3.81439L3.52358 3.13512ZM7.87032 15C11.0785 15 13.1413 14.5359 14.3534 13.3192C15.5732 12.0946 15.7407 10.2927 15.7407 8.24803H14.3102C14.3102 10.3361 14.0969 11.554 13.3377 12.3163C12.5707 13.0863 11.0559 13.5758 7.87032 13.5758V15ZM15.7407 8.24803C15.7407 6.802 15.6516 5.54175 15.1756 4.54854C14.6662 3.4856 13.7667 2.8224 12.4075 2.44872L12.0267 3.82152C13.091 4.11411 13.5956 4.55904 13.8845 5.16182C14.2068 5.8343 14.3102 6.79737 14.3102 8.24803H15.7407ZM12.4325 2.45607C12.3085 2.41711 12.1778 2.34419 12.0771 2.23395L11.0185 3.19176C11.3177 3.51961 11.6806 3.7132 12.0017 3.81416L12.4325 2.45607ZM12.0762 2.23286C12.0793 2.23635 12.0678 2.22396 12.0415 2.18068C12.0162 2.13909 11.9867 2.08485 11.9496 2.0123C11.8843 1.88421 11.7816 1.66924 11.6762 1.47897C11.464 1.09567 11.1113 0.557196 10.4873 0.295221L9.93143 1.60751C10.0871 1.67285 10.2421 1.83898 10.4235 2.16652C10.5149 2.33167 10.5805 2.47368 10.6745 2.65775C10.751 2.80751 10.8649 3.02417 11.0195 3.19285L12.0762 2.23286ZM10.4866 0.294968C10.1816 0.167228 9.74207 0.100746 9.32563 0.0609867C8.88203 0.0186352 8.36962 -0.000935997 7.86424 3.43486e-05C7.35874 0.00100469 6.8478 0.0225517 6.40691 0.0653048C5.99255 0.105485 5.55923 0.170984 5.26119 0.292003L5.80143 1.61073C5.88694 1.576 6.13272 1.52282 6.54558 1.48278C6.93189 1.44532 7.39633 1.42512 7.86699 1.42422C8.33777 1.42331 8.8023 1.44174 9.18907 1.47867C9.60298 1.51819 9.84725 1.57226 9.93203 1.60776L10.4866 0.294968ZM5.26032 0.292358C4.63579 0.546903 4.28114 1.0922 4.06988 1.4725C3.96391 1.66327 3.8601 1.87922 3.79357 2.00877C3.75598 2.08199 3.72598 2.13703 3.70019 2.17932C3.6733 2.22342 3.6614 2.23622 3.66448 2.23286L4.72116 3.19285C4.87529 3.0247 4.98999 2.80756 5.06728 2.65707C5.16227 2.4721 5.22921 2.32826 5.32171 2.16174C5.50741 1.82745 5.66054 1.66815 5.8023 1.61037L5.26032 0.292358ZM3.66348 2.23395C3.56246 2.34463 3.43245 2.41716 3.30892 2.45585L3.73823 3.81439C4.06142 3.71316 4.4233 3.51917 4.72216 3.19176L3.66348 2.23395ZM3.33319 2.44872C1.97395 2.8224 1.07446 3.4856 0.56506 4.54854C0.0890617 5.54175 0 6.802 0 8.24803H1.43051C1.43051 6.79737 1.53386 5.8343 1.85615 5.16182C2.14502 4.55904 2.6497 4.11411 3.71397 3.82152L3.33319 2.44872ZM0 8.24803C0 10.2927 0.167457 12.0946 1.38725 13.3192C2.5993 14.5359 4.66218 15 7.87032 15V13.5758C4.68467 13.5758 3.17001 13.0863 2.40297 12.3163C1.64369 11.554 1.43051 10.3361 1.43051 8.24803H0Z" fill="#FF4D00"/>
<path d="M11.3798 4.31889C10.9848 4.31889 10.6645 4.6377 10.6645 5.03098C10.6645 5.42426 10.9848 5.74308 11.3798 5.74308V4.31889ZM11.3869 5.74308C11.782 5.74308 12.1022 5.42426 12.1022 5.03098C12.1022 4.6377 11.782 4.31889 11.3869 4.31889V5.74308ZM11.3798 5.74308H11.3869V4.31889H11.3798V5.74308Z" fill="#FF4D00"/>
</svg>
