<svg width="28" height="28" viewBox="0 0 28 28" fill="none" xmlns="http://www.w3.org/2000/svg">
<path d="M23.333 16.041C23.333 16.5804 23.0627 17.0263 22.712 17.0968L22.6145 17.1065L8.24446 17.1065C7.84768 17.1065 7.52596 16.6295 7.52596 16.041C7.52596 15.5015 7.79628 15.0557 8.14699 14.9851L8.24446 14.9754L22.6145 14.9754C23.0113 14.9754 23.333 15.4525 23.333 16.041Z" fill="#212121"/>
<path d="M14.5472 23.8456C14.8284 24.2608 14.8294 24.9355 14.5494 25.3526C14.2949 25.7317 13.8958 25.7674 13.6141 25.4587L13.5333 25.3558L7.7374 16.7971C7.48101 16.4185 7.45768 15.8244 7.66744 15.4066L7.73736 15.287L13.5333 6.72685C13.8145 6.31158 14.2694 6.31298 14.5494 6.72997C14.804 7.10906 14.8263 7.70111 14.617 8.11762L14.5473 8.23692L9.26292 16.0424L14.5472 23.8456Z" fill="#212121"/>
</svg>
