<svg width="20" height="20" viewBox="0 0 20 20" fill="none" xmlns="http://www.w3.org/2000/svg">
<g clip-path="url(#clip0_20_172)">
<path d="M9.98574 0C4.98949 0 0.924805 4.06496 0.924805 9.06121C0.924805 13.7575 4.54387 17.685 9.19762 18.0865L7.40355 18.9959C7.18199 19.1174 7.05012 19.3909 7.18137 19.6068L7.2448 19.7709C7.37668 19.9868 7.6623 20.0634 7.88322 19.9424L10.8776 18.4093C10.8814 18.4068 10.8854 18.4074 10.8892 18.4049L11.0901 18.2949C11.2011 18.234 11.2745 18.1343 11.3038 18.0234C11.3345 17.9125 11.3204 17.789 11.2545 17.6815L11.1354 17.4862C11.1336 17.4824 11.1298 17.48 11.1276 17.4765L9.27822 14.5865C9.14697 14.3706 8.86199 14.294 8.6398 14.415L8.49449 14.5162C8.27293 14.6371 8.25824 14.9496 8.38949 15.165L9.48074 16.8578C9.4748 16.8575 9.46949 16.8553 9.46385 16.855C5.37635 16.5869 2.17479 13.1628 2.17479 9.06125C2.1748 4.75406 5.67885 1.25 9.98574 1.25C14.2932 1.25 17.817 4.75406 17.817 9.06127C17.817 11.5413 16.6779 13.8191 14.692 15.3106C14.4161 15.5181 14.3604 15.91 14.5676 16.186C14.7751 16.4625 15.167 16.5175 15.443 16.3104C17.7464 14.58 19.0673 11.9379 19.0673 9.06129C19.067 4.06502 14.9823 0 9.98574 0Z" fill="#F8F8F8"/>
</g>
<defs>
<clipPath id="clip0_20_172">
<rect width="20" height="20" fill="white"/>
</clipPath>
</defs>
</svg>
