<svg width="28" height="28" viewBox="0 0 28 28" fill="none" xmlns="http://www.w3.org/2000/svg">
<path d="M11.7358 24.035C9.67167 24.035 7.8393 23.8755 6.54448 23.4394C5.90063 23.2225 5.44204 22.954 5.1507 22.6503C4.87598 22.3638 4.72685 22.024 4.72685 21.5775H3.3252C3.3252 22.3957 3.62005 23.0836 4.14123 23.627C4.64578 24.1532 5.33501 24.517 6.09885 24.7743C7.61942 25.2864 9.64191 25.4429 11.7358 25.4429V24.035ZM4.72685 21.5775C4.72685 20.6555 5.38269 19.6367 6.68736 18.8089C7.9706 17.9947 9.76603 17.4511 11.7358 17.4511V16.0432C9.52466 16.0432 7.46522 16.65 5.9388 17.6186C4.43382 18.5735 3.3252 19.9699 3.3252 21.5775H4.72685ZM11.7358 17.4511C13.6948 17.4511 15.4911 17.9896 16.7778 18.7992C18.0866 19.6228 18.7446 20.6359 18.7446 21.5545H20.1463C20.1463 19.9446 19.0285 18.5541 17.5219 17.6061C15.9932 16.6441 13.9346 16.0432 11.7358 16.0432V17.4511ZM18.7446 21.5545C18.7446 22.0022 18.5959 22.3442 18.3217 22.6328C18.0315 22.9384 17.5746 23.2091 16.9328 23.4284C15.6417 23.8696 13.8101 24.035 11.7358 24.035V25.4429C13.8423 25.4429 15.8655 25.2803 17.3842 24.7614C18.1471 24.5007 18.8338 24.1333 19.3359 23.6047C19.854 23.0592 20.1463 22.371 20.1463 21.5545H18.7446Z" fill="#212121"/>
<path d="M6.79363 8.17621L7.49446 8.17876V8.17621H6.79363ZM11.7005 13.1401L11.698 13.8441H11.7005V13.1401ZM11.7354 13.8441C14.8512 13.8441 17.378 11.3059 17.378 8.17621H15.9764C15.9764 10.5284 14.0771 12.4362 11.7354 12.4362V13.8441ZM17.378 8.17621C17.378 5.04529 14.8511 2.50834 11.7354 2.50834V3.91627C14.0772 3.91627 15.9764 5.82308 15.9764 8.17621H17.378ZM11.7354 2.50834C8.61974 2.50834 6.09281 5.04529 6.09281 8.17621H7.49446C7.49446 5.82308 9.39365 3.91627 11.7354 3.91627V2.50834ZM6.09281 8.17367C6.0816 11.2937 8.59216 13.8328 11.698 13.8441L11.7031 12.4362C9.37108 12.4277 7.48604 10.5209 7.49446 8.17876L6.09281 8.17367ZM11.7005 13.8441H11.7354V12.4362H11.7005V13.8441Z" fill="#212121"/>
<path d="M21.931 9.75975C21.931 9.37096 21.6172 9.05579 21.2301 9.05579C20.8431 9.05579 20.5293 9.37096 20.5293 9.75975H21.931ZM20.5293 14.1509C20.5293 14.5397 20.8431 14.8549 21.2301 14.8549C21.6172 14.8549 21.931 14.5397 21.931 14.1509H20.5293ZM20.5293 9.75975V14.1509H21.931V9.75975H20.5293Z" fill="#212121"/>
<path d="M24.0063 12.1118C24.3934 12.1118 24.7072 11.7966 24.7072 11.4078C24.7072 11.0191 24.3934 10.7039 24.0063 10.7039V12.1118ZM19.5475 10.7039C19.1605 10.7039 18.8467 11.0191 18.8467 11.4078C18.8467 11.7966 19.1605 12.1118 19.5475 12.1118V10.7039ZM24.0063 10.7039H19.5475V12.1118H24.0063V10.7039Z" fill="#212121"/>
</svg>
