<svg width="28" height="28" viewBox="0 0 28 28" fill="none" xmlns="http://www.w3.org/2000/svg">
<path d="M16.5015 17.919C16.8863 17.919 17.1982 17.605 17.1982 17.2177C17.1982 16.8304 16.8863 16.5165 16.5015 16.5165V17.919ZM10.6498 16.5165C10.265 16.5165 9.95312 16.8304 9.95312 17.2177C9.95312 17.605 10.265 17.919 10.6498 17.919V16.5165ZM16.5015 16.5165H10.6498V17.919H16.5015V16.5165Z" fill="#212121"/>
<path d="M14.2846 13.5435C14.6693 13.5435 14.9812 13.2295 14.9812 12.8422C14.9812 12.455 14.6693 12.141 14.2846 12.141V13.5435ZM10.6478 12.141C10.2631 12.141 9.95117 12.455 9.95117 12.8422C9.95117 13.2295 10.2631 13.5435 10.6478 13.5435V12.141ZM14.2846 12.141H10.6478V13.5435H14.2846V12.141Z" fill="#212121"/>
<path d="M22.8457 9.9636L23.5312 9.83873C23.5049 9.69243 23.4331 9.55834 23.3261 9.4558L22.8457 9.9636ZM16.7014 4.07307L17.1818 3.56527C17.0759 3.4637 16.9408 3.39829 16.7959 3.3783L16.7014 4.07307ZM23.3261 9.4558L17.1818 3.56527L16.2209 4.58088L22.3652 10.4714L23.3261 9.4558ZM16.7959 3.3783C15.9674 3.26406 15.0464 3.20819 14.0464 3.20819V4.6107C14.9968 4.6107 15.8531 4.66392 16.6068 4.76784L16.7959 3.3783ZM14.0464 3.20819C10.5856 3.20819 8.05407 3.84362 6.42822 5.64874C4.82101 7.43317 4.25781 10.1917 4.25781 13.9997H5.65109C5.65109 10.2482 6.22573 7.9616 7.46042 6.59078C8.67647 5.24064 10.6909 4.6107 14.0464 4.6107V3.20819ZM4.25781 13.9997C4.25781 17.8129 4.8209 20.5718 6.42843 22.355C8.0545 24.1589 10.5863 24.7912 14.0464 24.7912V23.3887C10.6902 23.3887 8.67603 22.7612 7.46021 21.4125C6.22584 20.0432 5.65109 17.757 5.65109 13.9997H4.25781ZM14.0464 24.7912C17.5116 24.7912 20.0461 24.1589 21.6736 22.3552C23.2826 20.5719 23.8457 17.8128 23.8457 13.9997H22.4524C22.4524 17.7571 21.8777 20.0431 20.6422 21.4123C19.4251 22.7611 17.4082 23.3887 14.0464 23.3887V24.7912ZM23.8457 13.9997C23.8457 12.4237 23.7467 11.0377 23.5312 9.83873L22.1602 10.0885C22.3564 11.1803 22.4524 12.4778 22.4524 13.9997H23.8457Z" fill="#212121"/>
<path d="M16.7956 3.99984C16.7956 3.61255 16.4837 3.29858 16.099 3.29858C15.7142 3.29858 15.4023 3.61255 15.4023 3.99984H16.7956ZM22.9423 11.2723C23.327 11.2723 23.6389 10.9583 23.6389 10.5711C23.6389 10.1838 23.327 9.8698 22.9423 9.8698V11.2723ZM15.4023 3.99984V6.90256H16.7956V3.99984H15.4023ZM15.4023 6.90256C15.4023 9.3169 17.3465 11.2723 19.7444 11.2723V9.8698C18.1154 9.8698 16.7956 8.54178 16.7956 6.90256H15.4023ZM19.7444 11.2723H22.9423V9.8698H19.7444V11.2723Z" fill="#212121"/>
</svg>
