<svg width="28" height="28" viewBox="0 0 28 28" fill="none" xmlns="http://www.w3.org/2000/svg">
<path d="M22.1656 11.329C22.1656 10.9417 21.8546 10.6278 21.4709 10.6278C21.0873 10.6278 20.7762 10.9417 20.7762 11.329H22.1656ZM7.90562 11.329C7.90562 10.9417 7.5946 10.6278 7.21094 10.6278C6.82728 10.6278 6.51626 10.9417 6.51626 11.329H7.90562ZM20.7762 11.329C20.7762 12.43 20.7959 13.455 20.8136 14.3993C20.8313 15.3467 20.8471 16.2085 20.8401 16.9973C20.8261 18.59 20.718 19.8018 20.3917 20.7235C20.0806 21.6024 19.5711 22.2194 18.687 22.6414C17.7621 23.0829 16.389 23.3285 14.3286 23.3285V24.7309C16.4631 24.7309 18.0801 24.4824 19.281 23.9092C20.5226 23.3165 21.2743 22.3983 21.7001 21.1954C22.1108 20.0353 22.2152 18.6186 22.2294 17.0099C22.2366 16.198 22.2204 15.3159 22.2027 14.3728C22.1849 13.4267 22.1656 12.4147 22.1656 11.329H20.7762ZM14.3286 23.3285C12.2678 23.3285 10.8964 23.0828 9.97412 22.6417C9.09304 22.2202 8.58641 21.604 8.27806 20.7253C7.95456 19.8035 7.84949 18.5916 7.83779 16.9984C7.832 16.2094 7.84871 15.3474 7.86718 14.3999C7.88558 13.4553 7.90562 12.4302 7.90562 11.329H6.51626C6.51626 12.4145 6.49652 13.4264 6.47808 14.3723C6.4597 15.3151 6.44251 16.1971 6.44847 17.0088C6.46028 18.6171 6.56136 20.0336 6.96844 21.1936C7.39066 22.3967 8.13903 23.3158 9.37913 23.9089C10.578 24.4825 12.194 24.7309 14.3286 24.7309V23.3285Z" fill="#F75555"/>
<path d="M23.0651 8.15709C23.4487 8.15709 23.7598 7.84315 23.7598 7.45588C23.7598 7.06861 23.4487 6.75467 23.0651 6.75467V8.15709ZM5.61265 6.75467C5.22899 6.75467 4.91797 7.06861 4.91797 7.45588C4.91797 7.84315 5.22899 8.15709 5.61265 8.15709V6.75467ZM23.0651 6.75467H5.61265V8.15709H23.0651V6.75467Z" fill="#F75555"/>
<path d="M17.3529 7.87772C17.2995 8.26123 17.5643 8.61577 17.9442 8.66959C18.3242 8.72343 18.6754 8.45617 18.7287 8.07266L17.3529 7.87772ZM9.95014 8.07266C10.0035 8.45617 10.3547 8.72343 10.7346 8.66959C11.1146 8.61577 11.3793 8.26123 11.326 7.87772L9.95014 8.07266ZM18.0408 7.97519C18.7287 8.07266 18.7288 8.07229 18.7288 8.07192C18.7289 8.07177 18.7289 8.07137 18.729 8.07107C18.729 8.07048 18.7291 8.06982 18.7292 8.0691C18.7294 8.06765 18.7297 8.06595 18.7299 8.064C18.7304 8.0601 18.731 8.05519 18.7318 8.0493C18.7332 8.03754 18.735 8.02187 18.737 8.00254C18.7411 7.9639 18.7459 7.91051 18.7502 7.84443C18.7587 7.71258 18.7651 7.52848 18.7576 7.3091C18.7426 6.8749 18.6727 6.27855 18.4406 5.66967C18.2065 5.05523 17.8019 4.41583 17.1173 3.93419C16.4316 3.45179 15.5201 3.16644 14.3389 3.16644V4.56886C15.2942 4.56886 15.9138 4.79696 16.3228 5.08472C16.7329 5.37325 16.9867 5.76073 17.1439 6.17318C17.3032 6.59118 17.3575 7.0217 17.369 7.35767C17.3747 7.52338 17.3698 7.66019 17.3638 7.75296C17.3608 7.7992 17.3576 7.83406 17.3553 7.85559C17.3542 7.86634 17.3533 7.87373 17.3529 7.87751C17.3526 7.8794 17.3525 7.88039 17.3525 7.88043C17.3525 7.88045 17.3525 7.88024 17.3526 7.8798C17.3526 7.87956 17.3527 7.87928 17.3527 7.87894C17.3527 7.87877 17.3528 7.87846 17.3528 7.87838C17.3528 7.87806 17.3529 7.87772 18.0408 7.97519ZM14.3389 3.16644C13.1579 3.16644 12.2467 3.45181 11.5611 3.93424C10.8767 4.41591 10.4722 5.05533 10.2381 5.66974C10.0061 6.27861 9.9362 6.87495 9.92131 7.30914C9.91379 7.52851 9.92014 7.71259 9.92868 7.84445C9.93296 7.91052 9.93782 7.96391 9.94185 8.00255C9.94387 8.02187 9.94568 8.03755 9.94712 8.04931C9.94784 8.05519 9.94846 8.0601 9.94897 8.064C9.94923 8.06595 9.94946 8.06766 9.94965 8.0691C9.94975 8.06982 9.94984 8.07048 9.94992 8.07107C9.94996 8.07137 9.95001 8.07177 9.95004 8.07192C9.95009 8.07229 9.95014 8.07266 10.6381 7.97519C11.326 7.87772 11.3261 7.87806 11.3261 7.87838C11.3261 7.87846 11.3262 7.87877 11.3262 7.87894C11.3262 7.87928 11.3263 7.87956 11.3263 7.87979C11.3264 7.88024 11.3264 7.88045 11.3264 7.88043C11.3264 7.88039 11.3262 7.87939 11.326 7.87751C11.3256 7.87373 11.3247 7.86633 11.3236 7.85558C11.3213 7.83405 11.3181 7.79919 11.3151 7.75295C11.3091 7.66017 11.3042 7.52336 11.3098 7.35764C11.3214 7.02166 11.3756 6.59112 11.5349 6.1731C11.692 5.76063 11.9457 5.37317 12.3557 5.08468C12.7646 4.79694 13.3839 4.56886 14.3389 4.56886V3.16644Z" fill="#F75555"/>
</svg>
