<svg width="380" height="41" viewBox="0 0 380 41" fill="none" xmlns="http://www.w3.org/2000/svg">
<rect y="37" width="95" height="4" rx="2" fill="#FF4D00"/>
<path fill-rule="evenodd" clip-rule="evenodd" d="M40.54 2.5H43.92C45.33 2.5 46.46 3.65 46.46 5.061V8.47C46.46 9.89 45.33 11.03 43.92 11.03H40.54C39.14 11.03 38 9.89 38 8.47V5.061C38 3.65 39.14 2.5 40.54 2.5ZM40.54 13.9697H43.92C45.33 13.9697 46.46 15.1107 46.46 16.5307V19.9397C46.46 21.3497 45.33 22.4997 43.92 22.4997H40.54C39.14 22.4997 38 21.3497 38 19.9397V16.5307C38 15.1107 39.14 13.9697 40.54 13.9697ZM55.4601 2.5H52.0801C50.6701 2.5 49.5401 3.65 49.5401 5.061V8.47C49.5401 9.89 50.6701 11.03 52.0801 11.03H55.4601C56.8601 11.03 58.0001 9.89 58.0001 8.47V5.061C58.0001 3.65 56.8601 2.5 55.4601 2.5ZM52.0801 13.9697H55.4601C56.8601 13.9697 58.0001 15.1107 58.0001 16.5307V19.9397C58.0001 21.3497 56.8601 22.4997 55.4601 22.4997H52.0801C50.6701 22.4997 49.5401 21.3497 49.5401 19.9397V16.5307C49.5401 15.1107 50.6701 13.9697 52.0801 13.9697Z" fill="#D9D9D9"/>
<path fill-rule="evenodd" clip-rule="evenodd" d="M148.523 7.89601V9.42935C150.245 9.96696 151.5 11.5261 151.5 13.3884V18.3253C151.5 20.6308 149.589 22.5 147.232 22.5H138.769C136.411 22.5 134.5 20.6308 134.5 18.3253V13.3884C134.5 11.5261 135.756 9.96696 137.477 9.42935V7.89601C137.487 4.91479 139.957 2.5 142.985 2.5C146.054 2.5 148.523 4.91479 148.523 7.89601ZM143.005 4.23926C145.068 4.23926 146.745 5.87893 146.745 7.89622V9.21392H139.256V7.87635C139.266 5.86899 140.943 4.23926 143.005 4.23926ZM143.89 16.9554C143.89 17.4424 143.493 17.8299 142.995 17.8299C142.508 17.8299 142.111 17.4424 142.111 16.9554V14.7493C142.111 14.2723 142.508 13.8848 142.995 13.8848C143.493 13.8848 143.89 14.2723 143.89 14.7493V16.9554Z" fill="#D9D9D9"/>
</svg>
