<svg width="20" height="20" viewBox="0 0 20 20" fill="none" xmlns="http://www.w3.org/2000/svg">
<g clip-path="url(#clip0_30_208)">
<path fill-rule="evenodd" clip-rule="evenodd" d="M10 1.24999C8.67392 1.24999 7.40215 1.77677 6.46447 2.71445C5.52678 3.65213 5 4.9239 5 6.24999C5 7.57607 5.52678 8.84784 6.46447 9.78552C7.40215 10.7232 8.67392 11.25 10 11.25C11.3261 11.25 12.5979 10.7232 13.5355 9.78552C14.4732 8.84784 15 7.57607 15 6.24999C15 4.9239 14.4732 3.65213 13.5355 2.71445C12.5979 1.77677 11.3261 1.24999 10 1.24999ZM3.75 6.24999C3.75002 5.0405 4.10096 3.85701 4.76028 2.84303C5.4196 1.82906 6.35897 1.02816 7.46445 0.537492C8.56993 0.0468194 9.79403 -0.112555 10.9883 0.0786984C12.1826 0.269952 13.2957 0.803615 14.1927 1.61497C15.0896 2.42632 15.7319 3.4805 16.0416 4.64966C16.3513 5.81882 16.3151 7.05272 15.9375 8.20172C15.5598 9.35073 14.8568 10.3655 13.9139 11.1229C12.9709 11.8803 11.8284 12.3478 10.625 12.4687V15H13.125C13.2908 15 13.4497 15.0658 13.5669 15.183C13.6842 15.3003 13.75 15.4592 13.75 15.625C13.75 15.7907 13.6842 15.9497 13.5669 16.0669C13.4497 16.1841 13.2908 16.25 13.125 16.25H10.625V19.375C10.625 19.5407 10.5592 19.6997 10.4419 19.8169C10.3247 19.9341 10.1658 20 10 20C9.83424 20 9.67527 19.9341 9.55806 19.8169C9.44085 19.6997 9.375 19.5407 9.375 19.375V16.25H6.875C6.70924 16.25 6.55027 16.1841 6.43306 16.0669C6.31585 15.9497 6.25 15.7907 6.25 15.625C6.25 15.4592 6.31585 15.3003 6.43306 15.183C6.55027 15.0658 6.70924 15 6.875 15H9.375V12.4687C7.83336 12.3138 6.40422 11.5917 5.36485 10.4427C4.32548 9.29358 3.74998 7.7994 3.75 6.24999Z" fill="#F24E1E"/>
</g>
<defs>
<clipPath id="clip0_30_208">
<rect width="20" height="20" fill="white"/>
</clipPath>
</defs>
</svg>
