<svg width="26" height="26" viewBox="0 0 26 26" fill="none" xmlns="http://www.w3.org/2000/svg">
<g clip-path="url(#clip0_30_210)">
<path d="M20.7778 5.77777H5.22222C4.63285 5.77777 4.06762 6.0119 3.65087 6.42864C3.23413 6.84539 3 7.41062 3 7.99999L3 13H23V7.99999C23 7.41062 22.7659 6.84539 22.3491 6.42864C21.9324 6.0119 21.3671 5.77777 20.7778 5.77777Z" fill="#DC1F26"/>
<path d="M23 18C23 18.5894 22.7659 19.1546 22.3491 19.5713C21.9324 19.9881 21.3671 20.2222 20.7778 20.2222H5.22222C4.63285 20.2222 4.06762 19.9881 3.65087 19.5713C3.23413 19.1546 3 18.5894 3 18V13H23V18Z" fill="#EEEEEE"/>
</g>
<defs>
<clipPath id="clip0_30_210">
<rect width="20" height="20" fill="white" transform="translate(3 3)"/>
</clipPath>
</defs>
</svg>
