<svg width="20" height="20" viewBox="0 0 20 20" fill="none" xmlns="http://www.w3.org/2000/svg">
<path d="M16.667 5.83336H15.6595C15.7817 5.42818 15.8405 5.00652 15.8337 4.58336C15.8337 2.97502 14.5253 1.66669 12.917 1.66669C11.5653 1.66669 10.6628 2.90169 10.0803 4.23752C9.50616 2.97502 8.55782 1.66669 7.08366 1.66669C5.47532 1.66669 4.16699 2.97502 4.16699 4.58336C4.16699 5.08002 4.23282 5.49086 4.34116 5.83336H3.33366C2.41449 5.83336 1.66699 6.58086 1.66699 7.50002V9.16669C1.66699 10.0859 2.41449 10.8334 3.33366 10.8334V16.6667C3.33366 17.5859 4.08116 18.3334 5.00032 18.3334H15.0003C15.9195 18.3334 16.667 17.5859 16.667 16.6667V10.8334C17.5862 10.8334 18.3337 10.0859 18.3337 9.16669V7.50002C18.3337 6.58086 17.5862 5.83336 16.667 5.83336ZM12.917 3.33336C13.6062 3.33336 14.167 3.89419 14.167 4.58336C14.167 5.83336 13.6453 5.83336 13.3337 5.83336H11.2687C11.6945 4.52002 12.3128 3.33336 12.917 3.33336ZM5.83366 4.58336C5.83366 3.89419 6.39449 3.33336 7.08366 3.33336C7.82366 3.33336 8.51199 4.60419 8.91532 5.83336H6.66699C6.35532 5.83336 5.83366 5.83336 5.83366 4.58336ZM3.33366 7.50002H9.16699V9.16669H3.33366V7.50002ZM5.00032 16.6667V10.8334H9.16699V16.6667H5.00032ZM15.0003 16.6667H10.8337V10.8334H15.0003V16.6667ZM10.8337 9.16669V7.57086L10.8478 7.50002H16.667L16.6678 9.16669H10.8337Z" fill="#9E9E9E"/>
</svg>
