<svg width="28" height="28" viewBox="0 0 28 28" fill="none" xmlns="http://www.w3.org/2000/svg">
<path d="M17.3882 12.5957C17.3882 10.705 15.8762 9.17291 14.0104 9.17291V10.5729C15.1132 10.5729 16.0066 11.4782 16.0066 12.5957H17.3882ZM14.0104 9.17291C12.1456 9.17291 10.6338 10.7052 10.6338 12.5957H12.0154C12.0154 11.478 12.909 10.5729 14.0104 10.5729V9.17291ZM10.6338 12.5957C10.6338 14.4852 12.1458 16.0174 14.0104 16.0174V14.6174C12.9088 14.6174 12.0154 13.712 12.0154 12.5957H10.6338ZM14.0104 16.0174C15.876 16.0174 17.3882 14.4854 17.3882 12.5957H16.0066C16.0066 13.7119 15.1134 14.6174 14.0104 14.6174V16.0174Z" fill="#212121"/>
<path d="M13.9995 23.1C13.4085 23.1 12.6492 22.8328 11.8083 22.2677C10.978 21.7097 10.1207 20.8957 9.34608 19.8939C7.79161 17.8838 6.63158 15.2 6.63158 12.4741H5.25C5.25 15.5846 6.56226 18.5638 8.25861 20.7574C9.10935 21.8576 10.0722 22.7808 11.0447 23.4344C12.0068 24.081 13.0334 24.5 13.9995 24.5V23.1ZM6.63158 12.4741C6.63158 8.28275 9.9383 4.9 13.9995 4.9V3.5C9.15811 3.5 5.25 7.52706 5.25 12.4741H6.63158ZM13.9995 4.9C18.0607 4.9 21.3684 8.28287 21.3684 12.4741H22.75C22.75 7.52694 18.8407 3.5 13.9995 3.5V4.9ZM21.3684 12.4741C21.3684 15.2 20.2084 17.8838 18.6538 19.8939C17.8791 20.8957 17.0218 21.7096 16.1913 22.2677C15.3503 22.8328 14.5908 23.1 13.9995 23.1V24.5C14.9658 24.5 15.9925 24.081 16.9547 23.4345C17.9276 22.7809 18.8904 21.8576 19.7413 20.7575C21.4378 18.5638 22.75 15.5846 22.75 12.4741H21.3684Z" fill="#212121"/>
</svg>
