<svg width="24" height="24" viewBox="0 0 24 24" fill="none" xmlns="http://www.w3.org/2000/svg">
<path d="M9.02053 15.702L8.30476 15.478C8.2214 15.7443 8.29284 16.0349 8.4902 16.2323C8.68755 16.4296 8.97817 16.5011 9.24453 16.4177L9.02053 15.702ZM10.6132 10.6127L10.3892 9.89695C10.1546 9.97037 9.97086 10.1541 9.89744 10.3887L10.6132 10.6127ZM15.7024 9.02004L16.4182 9.24404C16.5016 8.97768 16.4301 8.68706 16.2328 8.48971C16.0354 8.29236 15.7448 8.22091 15.4784 8.30427L15.7024 9.02004ZM14.1098 14.1093L14.3338 14.825C14.5684 14.7516 14.7521 14.5679 14.8255 14.3333L14.1098 14.1093ZM9.7363 15.926L11.329 10.8367L9.89744 10.3887L8.30476 15.478L9.7363 15.926ZM10.8372 11.3285L15.9264 9.73581L15.4784 8.30427L10.3892 9.89695L10.8372 11.3285ZM14.9867 8.79604L13.394 13.8853L14.8255 14.3333L16.4182 9.24404L14.9867 8.79604ZM13.8858 13.3935L8.79653 14.9862L9.24453 16.4177L14.3338 14.825L13.8858 13.3935Z" fill="#9E9E9E"/>
<ellipse cx="11.6108" cy="11.6111" rx="9.61084" ry="9.61108" stroke="#9E9E9E" stroke-width="1.5" stroke-linecap="round" stroke-linejoin="round"/>
</svg>
