<svg width="32" height="28" viewBox="0 0 32 28" fill="none" xmlns="http://www.w3.org/2000/svg">
<path d="M19.125 14C18.3218 14 17.5453 13.6414 16.9375 12.9906C16.3464 12.3559 15.9855 11.5094 15.9218 10.6078C15.8539 9.64609 16.1472 8.76172 16.7476 8.11719C17.348 7.47266 18.1875 7.125 19.125 7.125C20.0558 7.125 20.8976 7.47891 21.496 8.12187C22.1003 8.77109 22.3945 9.65391 22.3265 10.6074C22.2613 11.5102 21.9007 12.3562 21.3109 12.9902C20.7046 13.6414 19.9285 14 19.125 14ZM24.2746 20.875H13.9757C13.8102 20.8759 13.6466 20.8388 13.4976 20.7665C13.3486 20.6943 13.2182 20.5888 13.1164 20.4582C13.0084 20.3166 12.9338 20.1525 12.8982 19.978C12.8626 19.8036 12.8669 19.6233 12.9109 19.4508C13.2398 18.1301 14.0546 17.0348 15.2671 16.2836C16.3433 15.6172 17.7132 15.25 19.125 15.25C20.5644 15.25 21.8984 15.6016 22.9808 16.2676C24.196 17.0148 25.0121 18.1164 25.3394 19.4531C25.3828 19.6258 25.3867 19.806 25.3507 19.9804C25.3147 20.1548 25.2398 20.3188 25.1316 20.4602C25.0299 20.5901 24.8998 20.6951 24.7512 20.767C24.6026 20.8389 24.4396 20.8758 24.2746 20.875ZM11.7421 14.1562C10.3675 14.1562 9.15894 12.8781 9.04683 11.3074C8.99136 10.5027 9.24214 9.75859 9.74996 9.21289C10.2523 8.67266 10.9609 8.375 11.7421 8.375C12.5234 8.375 13.2265 8.67422 13.7316 9.21758C14.2433 9.76758 14.4933 10.5102 14.4347 11.3082C14.3226 12.8785 13.1144 14.1562 11.7421 14.1562ZM14.307 15.3848C13.6199 15.0488 12.7281 14.8809 11.7425 14.8809C10.5918 14.8809 9.47417 15.1809 8.59527 15.7254C7.59878 16.3438 6.92847 17.2441 6.65777 18.3313C6.61815 18.4876 6.61441 18.6509 6.64681 18.8089C6.67921 18.9669 6.74692 19.1156 6.84488 19.2437C6.93783 19.3631 7.0569 19.4595 7.19295 19.5256C7.329 19.5917 7.47839 19.6257 7.62964 19.625H11.9656C12.0388 19.625 12.1096 19.5993 12.1658 19.5524C12.222 19.5055 12.2599 19.4404 12.273 19.3684C12.2773 19.3438 12.2828 19.3191 12.289 19.2949C12.6203 17.9645 13.3964 16.8402 14.5433 16.0207C14.5855 15.9903 14.6194 15.9498 14.642 15.903C14.6646 15.8562 14.6752 15.8045 14.6727 15.7525C14.6703 15.7006 14.6549 15.6501 14.628 15.6056C14.6011 15.5611 14.5636 15.524 14.5187 15.4977C14.4574 15.4617 14.3871 15.4238 14.307 15.3848Z" fill="#777777"/>
</svg>
