<svg width="20" height="20" viewBox="0 0 20 20" fill="none" xmlns="http://www.w3.org/2000/svg">
<path fill-rule="evenodd" clip-rule="evenodd" d="M7.39844 5.31547C7.39844 6.87102 6.11604 8.13184 4.53271 8.13184C2.95032 8.13184 1.66699 6.87102 1.66699 5.31547C1.66699 3.76082 2.95032 2.5 4.53271 2.5C6.11604 2.5 7.39844 3.76082 7.39844 5.31547ZM17.0781 4.08203C17.7707 4.08203 18.3337 4.63512 18.3337 5.31556C18.3337 5.99691 17.7707 6.55 17.0781 6.55H11.5985C10.905 6.55 10.342 5.99691 10.342 5.31556C10.342 4.63512 10.905 4.08203 11.5985 4.08203H17.0781ZM2.92346 13.2984H8.40306C9.09658 13.2984 9.65954 13.8515 9.65954 14.5329C9.65954 15.2133 9.09658 15.7673 8.40306 15.7673H2.92346C2.22995 15.7673 1.66699 15.2133 1.66699 14.5329C1.66699 13.8515 2.22995 13.2984 2.92346 13.2984ZM15.4685 17.315C17.0518 17.315 18.3342 16.0542 18.3342 14.4996C18.3342 12.944 17.0518 11.6832 15.4685 11.6832C13.8861 11.6832 12.6028 12.944 12.6028 14.4996C12.6028 16.0542 13.8861 17.315 15.4685 17.315Z" fill="#D9D9D9"/>
</svg>
