<svg width="16" height="16" viewBox="0 0 16 16" fill="none" xmlns="http://www.w3.org/2000/svg">
<path fill-rule="evenodd" clip-rule="evenodd" d="M6.33301 8.36912C8.16939 8.36912 9.64143 6.87803 9.64143 5.01789C9.64143 3.15775 8.16939 1.66666 6.33301 1.66666C4.49663 1.66666 3.02459 3.15775 3.02459 5.01789C3.02459 6.87803 4.49663 8.36912 6.33301 8.36912ZM6.33301 10.0098C3.63583 10.0098 1.33301 10.4411 1.33301 12.164C1.33301 13.8862 3.62181 14.333 6.33301 14.333C9.02953 14.333 11.333 13.9018 11.333 12.1789C11.333 10.4559 9.04421 10.0098 6.33301 10.0098ZM13.2646 6.39206H14.0667C14.3968 6.39206 14.666 6.66502 14.666 6.9998C14.666 7.33458 14.3968 7.60755 14.0667 7.60755H13.2646V8.39241C13.2646 8.72719 12.9962 9.00015 12.6653 9.00015C12.3352 9.00015 12.066 8.72719 12.066 8.39241V7.60755H11.2653C10.9345 7.60755 10.666 7.33458 10.666 6.9998C10.666 6.66502 10.9345 6.39206 11.2653 6.39206H12.066V5.6079C12.066 5.27312 12.3352 5.00015 12.6653 5.00015C12.9962 5.00015 13.2646 5.27312 13.2646 5.6079V6.39206Z" fill="#D9D9D9"/>
</svg>
