<svg width="20" height="20" viewBox="0 0 20 20" fill="none" xmlns="http://www.w3.org/2000/svg">
<path fill-rule="evenodd" clip-rule="evenodd" d="M14.6021 6.16333V7.44111C16.0374 7.88913 17.0832 9.18844 17.0832 10.7403V14.8545C17.0832 16.7757 15.4904 18.3334 13.5267 18.3334H6.47383C4.5093 18.3334 2.9165 16.7757 2.9165 14.8545V10.7403C2.9165 9.18844 3.96312 7.88913 5.39757 7.44111V6.16333C5.40604 3.67898 7.46372 1.66666 9.98713 1.66666C12.5444 1.66666 14.6021 3.67898 14.6021 6.16333ZM10.004 3.11586C11.723 3.11586 13.1202 4.48225 13.1202 6.16333V7.26141H6.87939V6.14677C6.88786 4.47397 8.28505 3.11586 10.004 3.11586ZM10.7411 13.7125C10.7411 14.1183 10.4108 14.4412 9.99593 14.4412C9.58947 14.4412 9.25923 14.1183 9.25923 13.7125V11.8741C9.25923 11.4766 9.58947 11.1536 9.99593 11.1536C10.4108 11.1536 10.7411 11.4766 10.7411 11.8741V13.7125Z" fill="#D9D9D9"/>
</svg>
