<svg width="42" height="42" viewBox="0 0 42 42" fill="none" xmlns="http://www.w3.org/2000/svg">
<path d="M23.3408 5.33832C26.3907 5.33686 29.349 6.3811 31.7222 8.29686C34.0954 10.2126 35.74 12.8841 36.3819 15.8658C37.0237 18.8474 36.6239 21.959 35.2492 24.6816C33.8744 27.4041 31.6078 29.5731 28.8274 30.8267C27.9387 32.7915 26.5866 34.5115 24.8872 35.839C23.1878 37.1666 21.1917 38.0622 19.0702 38.4489C16.9486 38.8356 14.7649 38.702 12.7064 38.0595C10.6478 37.4169 8.77582 36.2847 7.25095 34.7598C5.72607 33.2349 4.59382 31.3629 3.95129 29.3044C3.30876 27.2458 3.17513 25.0621 3.56186 22.9406C3.94859 20.8191 4.84414 18.823 6.17171 17.1235C7.49928 15.4241 9.21924 14.0721 11.1841 13.1833C12.241 10.8448 13.9501 8.86082 16.1063 7.46933C18.2626 6.07784 20.7745 5.33792 23.3408 5.33832ZM18.3408 17.005H15.0074V18.6717C13.9243 18.669 12.8827 19.0883 12.1034 19.8406C11.3241 20.5928 10.8684 21.619 10.8329 22.7016C10.7973 23.7841 11.1847 24.838 11.913 25.6398C12.6413 26.4416 13.6531 26.9282 14.7341 26.9967L15.0074 27.005H18.3408L18.4908 27.0183C18.6829 27.0531 18.8567 27.1543 18.9819 27.3041C19.1071 27.454 19.1756 27.6431 19.1756 27.8383C19.1756 28.0336 19.1071 28.2226 18.9819 28.3725C18.8567 28.5224 18.6829 28.6235 18.4908 28.6583L18.3408 28.6717H11.6741V32.005H15.0074V33.6717H18.3408V32.005C19.4239 32.0076 20.4655 31.5884 21.2448 30.8361C22.0241 30.0838 22.4798 29.0576 22.5153 27.9751C22.5509 26.8925 22.1635 25.8386 21.4352 25.0369C20.7069 24.2351 19.6951 23.7484 18.6141 23.68L18.3408 23.6717H15.0074L14.8574 23.6583C14.6653 23.6235 14.4915 23.5224 14.3663 23.3725C14.2411 23.2226 14.1726 23.0336 14.1726 22.8383C14.1726 22.6431 14.2411 22.454 14.3663 22.3041C14.4915 22.1543 14.6653 22.0531 14.8574 22.0183L15.0074 22.005H21.6741V18.6717H18.3408V17.005ZM23.3408 8.67165C21.9283 8.66976 20.5315 8.96787 19.2429 9.54625C17.9543 10.1246 16.8032 10.9701 15.8658 12.0267C17.7495 11.9123 19.6361 12.1991 21.4008 12.8682C23.1654 13.5373 24.7679 14.5734 26.1023 15.908C27.4367 17.2425 28.4726 18.8451 29.1415 20.6099C29.8104 22.3746 30.097 24.2612 29.9824 26.145C31.4978 24.7977 32.5678 23.0216 33.0505 21.0522C33.5332 19.0828 33.4058 17.0132 32.6852 15.1179C31.9646 13.2225 30.6848 11.5911 29.0156 10.4398C27.3465 9.28853 25.3668 8.67189 23.3391 8.67165H23.3408Z" fill="#F24E1E"/>
</svg>
