<svg width="24" height="24" viewBox="0 0 24 24" fill="none" xmlns="http://www.w3.org/2000/svg">
<path d="M11.9848 14.4017C10.2198 14.4017 8.50481 14.5354 7.21028 14.9787C6.55958 15.2015 5.96467 15.5191 5.52635 15.9838C5.07192 16.4656 4.81445 17.0769 4.81445 17.8013H6.17239C6.17239 17.443 6.28868 17.1747 6.50431 16.9461C6.73604 16.7004 7.10747 16.4768 7.64195 16.2937C8.71778 15.9253 10.2485 15.7887 11.9848 15.7887V14.4017ZM4.81445 17.8013C4.81445 18.5242 5.06962 19.1358 5.52144 19.6194C5.95761 20.0863 6.55041 20.4069 7.20047 20.6326C8.49346 21.0816 10.2092 21.2202 11.9848 21.2202V19.8333C10.2401 19.8333 8.71016 19.6919 7.63754 19.3195C7.10479 19.1345 6.7348 18.9091 6.50388 18.6619C6.28861 18.4315 6.17239 18.1611 6.17239 17.8013H4.81445ZM11.9848 21.2202C13.7499 21.2202 15.4647 21.0863 16.759 20.6429C17.4096 20.42 18.0044 20.1024 18.4426 19.6377C18.8968 19.156 19.1543 18.5449 19.1543 17.8207H17.7964C17.7964 18.1787 17.6801 18.447 17.4646 18.6756C17.2329 18.9212 16.8616 19.1449 16.3272 19.3279C15.2516 19.6964 13.721 19.8333 11.9848 19.8333V21.2202ZM19.1543 17.8207C19.1543 17.0979 18.8992 16.4865 18.4474 16.0029C18.0115 15.5361 17.4188 15.2155 16.7688 14.9897C15.476 14.5406 13.7605 14.4017 11.9848 14.4017V15.7887C13.7294 15.7887 15.2592 15.9303 16.3316 16.3028C16.8642 16.4878 17.2341 16.7132 17.465 16.9604C17.6802 17.1908 17.7964 17.4611 17.7964 17.8207H19.1543Z" fill="#9E9E9E"/>
<path d="M7.79168 7.72384L8.43832 7.72607V7.72384H7.79168ZM11.9233 11.9736L11.9211 12.6341H11.9233V11.9736ZM11.9526 12.6341C14.6076 12.6341 16.7593 10.4352 16.7593 7.72384H15.466C15.466 9.70606 13.893 11.3132 11.9526 11.3132V12.6341ZM16.7593 7.72384C16.7593 5.01227 14.6074 2.81448 11.9526 2.81448V4.13538C13.8932 4.13538 15.466 5.74178 15.466 7.72384H16.7593ZM11.9526 2.81448C9.29791 2.81448 7.14504 5.01209 7.14504 7.72384H8.43832C8.43832 5.74196 10.0118 4.13538 11.9526 4.13538V2.81448ZM7.14505 7.7216C7.13608 10.4251 9.27469 12.6249 11.9211 12.6341L11.9255 11.3132C9.99365 11.3065 8.43177 9.70036 8.43832 7.72607L7.14505 7.7216ZM11.9233 12.6341H11.9526V11.3132H11.9233V12.6341Z" fill="#9E9E9E"/>
</svg>
