<svg width="28" height="28" viewBox="0 0 28 28" fill="none" xmlns="http://www.w3.org/2000/svg">
<path d="M18.112 11.1704C18.112 11.5578 18.4218 11.8719 18.8039 11.8719C19.186 11.8719 19.4958 11.5578 19.4958 11.1704H18.112ZM18.8039 8.82525H19.4958L19.4957 8.81662L18.8039 8.82525ZM13.8346 3.91018L13.826 3.20871L13.8259 3.20871L13.8346 3.91018ZM8.98684 8.80343L8.29492 8.79149V8.80343H8.98684ZM8.29492 11.1704C8.29492 11.5578 8.6047 11.8719 8.98684 11.8719C9.36897 11.8719 9.67875 11.5578 9.67875 11.1704H8.29492ZM19.4958 11.1704V8.82525H18.112V11.1704H19.4958ZM19.4957 8.81662C19.4576 5.68005 16.9181 3.17011 13.826 3.20871L13.8431 4.61166C16.1714 4.5826 18.0834 6.47264 18.112 8.83389L19.4957 8.81662ZM13.8259 3.20871C10.7965 3.2473 8.3466 5.72001 8.29502 8.79149L9.67865 8.81537C9.71749 6.50253 11.5621 4.64072 13.8432 4.61166L13.8259 3.20871ZM8.29492 8.80343V11.1704H9.67875V8.80343H8.29492Z" fill="#212121"/>
<path d="M14.0498 16.3574C14.0498 15.9699 13.7401 15.6558 13.3579 15.6558C12.9758 15.6558 12.666 15.9699 12.666 16.3574H14.0498ZM12.666 18.7811C12.666 19.1685 12.9758 19.4826 13.3579 19.4826C13.7401 19.4826 14.0498 19.1685 14.0498 18.7811H12.666ZM12.666 16.3574V18.7811H14.0498V16.3574H12.666Z" fill="#212121"/>
<path d="M13.8955 9.83717C10.7853 9.83717 8.50507 10.257 7.01609 11.493C5.48432 12.7644 4.95898 14.7462 4.95898 17.382H6.34282C6.34282 14.8856 6.84805 13.4457 7.89271 12.5786C8.98015 11.6759 10.8222 11.2402 13.8955 11.2402V9.83717ZM4.95898 17.382C4.95898 20.0183 5.4843 22.0004 7.01605 23.272C8.50504 24.5082 10.7853 24.928 13.8955 24.928V23.5249C10.8222 23.5249 8.98018 23.0892 7.89274 22.1864C6.84807 21.3192 6.34282 19.8791 6.34282 17.382H4.95898ZM13.8955 24.928C17.0056 24.928 19.2861 24.5082 20.7753 23.2721C22.3073 22.0005 22.833 20.0184 22.833 17.382H21.4492C21.4492 19.879 20.9437 21.3191 19.8987 22.1864C18.811 23.0892 16.9687 23.5249 13.8955 23.5249V24.928ZM22.833 17.382C22.833 14.7461 22.3073 12.7644 20.7753 11.4929C19.2861 10.257 17.0056 9.83717 13.8955 9.83717V11.2402C16.9687 11.2402 18.811 11.6759 19.8988 12.5786C20.9437 13.4458 21.4492 14.8857 21.4492 17.382H22.833Z" fill="#212121"/>
</svg>
