<svg width="20" height="20" viewBox="0 0 20 20" fill="none" xmlns="http://www.w3.org/2000/svg">
<rect width="20" height="20" rx="8" fill="#FF4D00"/>
<path d="M9.22765 10.4393C8.64187 9.85356 7.69212 9.85356 7.10633 10.4393C6.52054 11.0251 6.52054 11.9749 7.10633 12.5607L9.22765 10.4393ZM10.667 14L9.60633 15.0607C10.1921 15.6465 11.1419 15.6465 11.7277 15.0607L10.667 14ZM16.7277 10.0607C17.3134 9.47488 17.3134 8.52513 16.7277 7.93934C16.1419 7.35355 15.1921 7.35355 14.6063 7.93934L16.7277 10.0607ZM7.10633 12.5607L9.60633 15.0607L11.7277 12.9393L9.22765 10.4393L7.10633 12.5607ZM11.7277 15.0607L16.7277 10.0607L14.6063 7.93934L9.60633 12.9393L11.7277 15.0607Z" fill="white"/>
</svg>
