<svg width="28" height="28" viewBox="0 0 28 28" fill="none" xmlns="http://www.w3.org/2000/svg">
<path d="M4.61176 14.8539C4.61176 11.0803 5.24686 8.789 6.61991 7.40958C7.99296 6.03014 10.2735 5.39229 14.0288 5.39229V3.98288C10.1958 3.98288 7.41711 4.61554 5.62803 6.41293C3.83895 8.21032 3.20898 11.0022 3.20898 14.8539H4.61176ZM14.0288 5.39229C17.7846 5.39229 20.0654 6.03015 21.4385 7.4096C22.8118 8.78902 23.4468 11.0803 23.4468 14.8539H24.8496C24.8496 11.0022 24.2197 8.21031 22.4304 6.41291C20.6412 4.61554 17.8622 3.98288 14.0288 3.98288V5.39229ZM23.4468 14.8539C23.4468 18.6274 22.8118 20.9187 21.4385 22.2981C20.0654 23.6776 17.7846 24.3154 14.0288 24.3154V25.7248C17.8622 25.7248 20.6412 25.0922 22.4304 23.2948C24.2197 21.4974 24.8496 18.7055 24.8496 14.8539H23.4468ZM14.0288 24.3154C10.2735 24.3154 7.99296 23.6776 6.61991 22.2981C5.24686 20.9187 4.61176 18.6274 4.61176 14.8539H3.20898C3.20898 18.7055 3.83895 21.4974 5.62803 23.2948C7.41711 25.0922 10.1958 25.7248 14.0288 25.7248V24.3154Z" fill="#212121"/>
<path d="M4.21115 9.81781C3.82379 9.81781 3.50977 10.1333 3.50977 10.5225C3.50977 10.9117 3.82379 11.2272 4.21115 11.2272V9.81781ZM23.8587 11.2272C24.2461 11.2272 24.5601 10.9117 24.5601 10.5225C24.5601 10.1333 24.2461 9.81781 23.8587 9.81781V11.2272ZM4.21115 11.2272H23.8587V9.81781H4.21115V11.2272Z" fill="#212121"/>
<path d="M18.2951 14.1332C17.9078 14.1332 17.5938 14.4487 17.5938 14.8379C17.5938 15.2271 17.9078 15.5427 18.2951 15.5427V14.1332ZM18.305 15.5427C18.6923 15.5427 19.0063 15.2271 19.0063 14.8379C19.0063 14.4487 18.6923 14.1332 18.305 14.1332V15.5427ZM18.2951 15.5427H18.305V14.1332H18.2951V15.5427Z" fill="#212121"/>
<path d="M13.4944 14.1332C13.107 14.1332 12.793 14.4487 12.793 14.8379C12.793 15.2271 13.107 15.5427 13.4944 15.5427V14.1332ZM13.5042 15.5427C13.8915 15.5427 14.2056 15.2271 14.2056 14.8379C14.2056 14.4487 13.8915 14.1332 13.5042 14.1332V15.5427ZM13.4944 15.5427H13.5042V14.1332H13.4944V15.5427Z" fill="#212121"/>
<path d="M8.68576 14.1332C8.2984 14.1332 7.98438 14.4487 7.98438 14.8379C7.98438 15.2271 8.2984 15.5427 8.68576 15.5427V14.1332ZM8.69558 15.5427C9.08295 15.5427 9.39697 15.2271 9.39697 14.8379C9.39697 14.4487 9.08295 14.1332 8.69558 14.1332V15.5427ZM8.68576 15.5427H8.69558V14.1332H8.68576V15.5427Z" fill="#212121"/>
<path d="M18.2951 18.356C17.9078 18.356 17.5938 18.6715 17.5938 19.0607C17.5938 19.4499 17.9078 19.7654 18.2951 19.7654V18.356ZM18.305 19.7654C18.6923 19.7654 19.0063 19.4499 19.0063 19.0607C19.0063 18.6715 18.6923 18.356 18.305 18.356V19.7654ZM18.2951 19.7654H18.305V18.356H18.2951V19.7654Z" fill="#212121"/>
<path d="M13.4944 18.356C13.107 18.356 12.793 18.6715 12.793 19.0607C12.793 19.4499 13.107 19.7654 13.4944 19.7654V18.356ZM13.5042 19.7654C13.8915 19.7654 14.2056 19.4499 14.2056 19.0607C14.2056 18.6715 13.8915 18.356 13.5042 18.356V19.7654ZM13.4944 19.7654H13.5042V18.356H13.4944V19.7654Z" fill="#212121"/>
<path d="M8.68576 18.356C8.2984 18.356 7.98438 18.6715 7.98438 19.0607C7.98438 19.4499 8.2984 19.7654 8.68576 19.7654V18.356ZM8.69558 19.7654C9.08295 19.7654 9.39697 19.4499 9.39697 19.0607C9.39697 18.6715 9.08295 18.356 8.69558 18.356V19.7654ZM8.68576 19.7654H8.69558V18.356H8.68576V19.7654Z" fill="#212121"/>
<path d="M18.559 3.09649C18.559 2.70729 18.245 2.39178 17.8576 2.39178C17.4703 2.39178 17.1562 2.70729 17.1562 3.09649H18.559ZM17.1562 6.67234C17.1562 7.06153 17.4703 7.37704 17.8576 7.37704C18.245 7.37704 18.559 7.06153 18.559 6.67234H17.1562ZM17.1562 3.09649V6.67234H18.559V3.09649H17.1562Z" fill="#212121"/>
<path d="M9.82074 3.09649C9.82074 2.70729 9.50672 2.39178 9.11936 2.39178C8.73199 2.39178 8.41797 2.70729 8.41797 3.09649H9.82074ZM8.41797 6.67234C8.41797 7.06153 8.73199 7.37704 9.11936 7.37704C9.50672 7.37704 9.82074 7.06153 9.82074 6.67234H8.41797ZM8.41797 3.09649V6.67234H9.82074V3.09649H8.41797Z" fill="#212121"/>
</svg>
