<svg width="29" height="28" viewBox="0 0 29 28" fill="none" xmlns="http://www.w3.org/2000/svg">
<path d="M20.8327 7.33335H19.166V6.50002C19.166 6.27901 19.0782 6.06704 18.9219 5.91076C18.7657 5.75448 18.5537 5.66669 18.3327 5.66669C18.1117 5.66669 17.8997 5.75448 17.7434 5.91076C17.5871 6.06704 17.4993 6.27901 17.4993 6.50002V7.33335H12.4993V6.50002C12.4993 6.27901 12.4116 6.06704 12.2553 5.91076C12.099 5.75448 11.887 5.66669 11.666 5.66669C11.445 5.66669 11.233 5.75448 11.0768 5.91076C10.9205 6.06704 10.8327 6.27901 10.8327 6.50002V7.33335H9.16602C8.50297 7.33335 7.86709 7.59675 7.39825 8.06559C6.92941 8.53443 6.66602 9.17031 6.66602 9.83335V19.8334C6.66602 20.4964 6.92941 21.1323 7.39825 21.6011C7.86709 22.07 8.50297 22.3334 9.16602 22.3334H20.8327C21.4957 22.3334 22.1316 22.07 22.6004 21.6011C23.0693 21.1323 23.3327 20.4964 23.3327 19.8334V9.83335C23.3327 9.17031 23.0693 8.53443 22.6004 8.06559C22.1316 7.59675 21.4957 7.33335 20.8327 7.33335ZM21.666 19.8334C21.666 20.0544 21.5782 20.2663 21.4219 20.4226C21.2657 20.5789 21.0537 20.6667 20.8327 20.6667H9.16602C8.945 20.6667 8.73304 20.5789 8.57676 20.4226C8.42048 20.2663 8.33268 20.0544 8.33268 19.8334V14H21.666V19.8334ZM21.666 12.3334H8.33268V9.83335C8.33268 9.61234 8.42048 9.40038 8.57676 9.2441C8.73304 9.08782 8.945 9.00002 9.16602 9.00002H10.8327V9.83335C10.8327 10.0544 10.9205 10.2663 11.0768 10.4226C11.233 10.5789 11.445 10.6667 11.666 10.6667C11.887 10.6667 12.099 10.5789 12.2553 10.4226C12.4116 10.2663 12.4993 10.0544 12.4993 9.83335V9.00002H17.4993V9.83335C17.4993 10.0544 17.5871 10.2663 17.7434 10.4226C17.8997 10.5789 18.1117 10.6667 18.3327 10.6667C18.5537 10.6667 18.7657 10.5789 18.9219 10.4226C19.0782 10.2663 19.166 10.0544 19.166 9.83335V9.00002H20.8327C21.0537 9.00002 21.2657 9.08782 21.4219 9.2441C21.5782 9.40038 21.666 9.61234 21.666 9.83335V12.3334Z" fill="#545454"/>
</svg>
