<svg width="34" height="28" viewBox="0 0 34 28" fill="none" xmlns="http://www.w3.org/2000/svg">
<path fill-rule="evenodd" clip-rule="evenodd" d="M22.3468 11.116C22.4486 11.0311 22.58 10.9902 22.712 11.0022C22.8441 11.0142 22.9659 11.0782 23.0508 11.18L25.1338 13.68C25.2149 13.7822 25.2529 13.9122 25.2395 14.042C25.2261 14.1718 25.1625 14.2913 25.0622 14.3749C24.9619 14.4584 24.8329 14.4995 24.7028 14.4892C24.5727 14.479 24.4517 14.4182 24.3658 14.32L22.2828 11.82C22.198 11.7181 22.157 11.5867 22.169 11.4547C22.181 11.3227 22.245 11.2009 22.3468 11.116Z" fill="#777777"/>
<path fill-rule="evenodd" clip-rule="evenodd" d="M22.3468 16.884C22.245 16.7991 22.181 16.6773 22.169 16.5453C22.157 16.4132 22.198 16.2819 22.2828 16.18L24.3658 13.68C24.4072 13.6278 24.4587 13.5844 24.5172 13.5523C24.5756 13.5203 24.6399 13.5002 24.7062 13.4934C24.7726 13.4866 24.8396 13.4931 24.9033 13.5125C24.9671 13.532 25.0263 13.564 25.0776 13.6067C25.1288 13.6494 25.1709 13.7018 25.2016 13.7611C25.2322 13.8203 25.2507 13.885 25.2559 13.9515C25.2612 14.018 25.2531 14.0848 25.2321 14.1481C25.2111 14.2114 25.1777 14.2698 25.1338 14.32L23.0508 16.82C22.9659 16.9218 22.8441 16.9857 22.712 16.9977C22.58 17.0097 22.4486 16.9688 22.3468 16.884Z" fill="#777777"/>
<path fill-rule="evenodd" clip-rule="evenodd" d="M24.5 14C24.5 14.1326 24.4473 14.2598 24.3536 14.3536C24.2598 14.4473 24.1326 14.5 24 14.5H16.5C16.3674 14.5 16.2402 14.4473 16.1464 14.3536C16.0527 14.2598 16 14.1326 16 14C16 13.8674 16.0527 13.7402 16.1464 13.6464C16.2402 13.5527 16.3674 13.5 16.5 13.5H24C24.1326 13.5 24.2598 13.5527 24.3536 13.6464C24.4473 13.7402 24.5 13.8674 24.5 14ZM10.5 7C10.5 6.86739 10.5527 6.74021 10.6464 6.64645C10.7402 6.55268 10.8674 6.5 11 6.5H20C20.1326 6.5 20.2598 6.55268 20.3536 6.64645C20.4473 6.74021 20.5 6.86739 20.5 7C20.5 7.13261 20.4473 7.25979 20.3536 7.35355C20.2598 7.44732 20.1326 7.5 20 7.5H11C10.8674 7.5 10.7402 7.44732 10.6464 7.35355C10.5527 7.25979 10.5 7.13261 10.5 7ZM10.5 21C10.5 20.8674 10.5527 20.7402 10.6464 20.6464C10.7402 20.5527 10.8674 20.5 11 20.5H20C20.1326 20.5 20.2598 20.5527 20.3536 20.6464C20.4473 20.7402 20.5 20.8674 20.5 21C20.5 21.1326 20.4473 21.2598 20.3536 21.3536C20.2598 21.4473 20.1326 21.5 20 21.5H11C10.8674 21.5 10.7402 21.4473 10.6464 21.3536C10.5527 21.2598 10.5 21.1326 10.5 21Z" fill="#777777"/>
<path fill-rule="evenodd" clip-rule="evenodd" d="M20 6.5C20.1326 6.5 20.2598 6.55268 20.3536 6.64645C20.4473 6.74021 20.5 6.86739 20.5 7V11C20.5 11.1326 20.4473 11.2598 20.3536 11.3536C20.2598 11.4473 20.1326 11.5 20 11.5C19.8674 11.5 19.7402 11.4473 19.6464 11.3536C19.5527 11.2598 19.5 11.1326 19.5 11V7C19.5 6.86739 19.5527 6.74021 19.6464 6.64645C19.7402 6.55268 19.8674 6.5 20 6.5ZM20 16.5C20.1326 16.5 20.2598 16.5527 20.3536 16.6464C20.4473 16.7402 20.5 16.8674 20.5 17V21C20.5 21.1326 20.4473 21.2598 20.3536 21.3536C20.2598 21.4473 20.1326 21.5 20 21.5C19.8674 21.5 19.7402 21.4473 19.6464 21.3536C19.5527 21.2598 19.5 21.1326 19.5 21V17C19.5 16.8674 19.5527 16.7402 19.6464 16.6464C19.7402 16.5527 19.8674 16.5 20 16.5ZM11 6.5C11.1326 6.5 11.2598 6.55268 11.3536 6.64645C11.4473 6.74021 11.5 6.86739 11.5 7V21C11.5 21.1326 11.4473 21.2598 11.3536 21.3536C11.2598 21.4473 11.1326 21.5 11 21.5C10.8674 21.5 10.7402 21.4473 10.6464 21.3536C10.5527 21.2598 10.5 21.1326 10.5 21V7C10.5 6.86739 10.5527 6.74021 10.6464 6.64645C10.7402 6.55268 10.8674 6.5 11 6.5Z" fill="#777777"/>
</svg>
