<svg width="28" height="28" viewBox="0 0 28 28" fill="none" xmlns="http://www.w3.org/2000/svg">
<path d="M4.08068 14.4862L3.41147 14.6989L3.41166 14.6996L4.08068 14.4862ZM8.12404 5.10779L8.33934 5.7715L8.33986 5.77134L8.12404 5.10779ZM14.0596 6.94075L13.4907 7.35C13.6261 7.53533 13.8445 7.64291 14.0751 7.63782C14.3058 7.63274 14.5192 7.51565 14.6462 7.32454L14.0596 6.94075ZM19.9841 5.10779L20.1995 4.44411L20.1989 4.4439L19.9841 5.10779ZM24.0352 14.4862L23.3659 14.2737L23.3648 14.2771L24.0352 14.4862ZM4.7499 14.2736C3.65038 10.8675 4.98998 6.84116 8.33934 5.7715L7.90874 4.44409C3.56928 5.82995 2.16521 10.8383 3.41147 14.6989L4.7499 14.2736ZM8.33986 5.77134C10.117 5.2023 12.2774 5.68953 13.4907 7.35L14.6285 6.5315C13.0062 4.31131 10.1755 3.71828 7.90824 4.44425L8.33986 5.77134ZM14.6462 7.32454C15.7649 5.64105 17.9645 5.19703 19.7695 5.77169L20.1989 4.4439C17.9636 3.73223 15.028 4.21663 13.4729 6.55697L14.6462 7.32454ZM19.7688 5.77148C23.1182 6.84145 24.464 10.8688 23.3659 14.2738L24.7044 14.6987C25.9499 10.837 24.5368 5.82966 20.1995 4.44411L19.7688 5.77148ZM23.3648 14.2771C22.5114 16.9693 20.5836 19.047 18.6181 20.4611C17.6386 21.1657 16.6642 21.6948 15.8368 22.0455C14.9853 22.4063 14.3597 22.5482 14.0596 22.5482V23.9426C14.6498 23.9426 15.4881 23.7096 16.3887 23.3279C17.3135 22.9361 18.3793 22.3552 19.443 21.59C21.5638 20.0642 23.7334 17.7624 24.7055 14.6954L23.3648 14.2771ZM14.0596 22.5482C13.7576 22.5482 13.1343 22.4091 12.2888 22.054C11.4664 21.7087 10.4977 21.1859 9.52212 20.4858C7.56542 19.0816 5.63372 17.003 4.7497 14.273L3.41166 14.6996C4.41433 17.796 6.58229 20.0969 8.69846 21.6157C9.75929 22.377 10.8204 22.9516 11.741 23.3383C12.6386 23.7151 13.4717 23.9426 14.0596 23.9426V22.5482Z" fill="#212121"/>
<path d="M18.2218 8.49876C17.8358 8.45941 17.4907 8.73804 17.451 9.12109C17.4113 9.50415 17.6922 9.84658 18.0782 9.88593L18.2218 8.49876ZM19.5432 11.7958C19.5302 12.1807 19.8341 12.5032 20.2219 12.5161C20.6098 12.529 20.9348 12.2275 20.9478 11.8426L19.5432 11.7958ZM18.0782 9.88593C18.5608 9.93513 18.9195 10.1418 19.1598 10.4433C19.4046 10.7505 19.5632 11.2039 19.5432 11.7958L20.9478 11.8426C20.977 10.9801 20.7475 10.1873 20.2622 9.57833C19.7723 8.96363 19.0586 8.58406 18.2218 8.49876L18.0782 9.88593Z" fill="#212121"/>
</svg>
