<svg width="28" height="28" viewBox="0 0 28 28" fill="none" xmlns="http://www.w3.org/2000/svg">
<path d="M18.1001 10.981C17.7961 11.2165 17.745 11.6481 17.986 11.9451C18.227 12.2422 18.6687 12.2921 18.9727 12.0566L18.1001 10.981ZM23.7496 8.99739L23.2339 9.46328L23.2355 9.46503L23.7496 8.99739ZM23.7496 19.1034L23.237 18.6342L23.2323 18.6392L23.7496 19.1034ZM18.9682 16.0102C18.6623 15.7772 18.2209 15.8306 17.9824 16.1296C17.7439 16.4285 17.7986 16.8597 18.1046 17.0927L18.9682 16.0102ZM18.9727 12.0566C19.9494 11.3001 21.088 10.5606 22.0295 10.0813C22.5048 9.83933 22.8975 9.68039 23.1777 9.60984C23.3194 9.57414 23.3951 9.57084 23.4196 9.57227C23.446 9.57382 23.339 9.5744 23.2339 9.46328L24.2653 8.53151C24.0327 8.28568 23.7299 8.21541 23.5035 8.20218C23.2752 8.18884 23.041 8.22684 22.827 8.28074C22.3957 8.38938 21.8936 8.60281 21.3803 8.86409C20.3447 9.39134 19.1316 10.182 18.1001 10.981L18.9727 12.0566ZM23.2355 9.46503C23.2033 9.43119 23.2136 9.42699 23.2455 9.50447C23.2737 9.57272 23.3062 9.67357 23.3399 9.81173C23.4073 10.0878 23.4667 10.4599 23.5149 10.9084C23.6111 11.8023 23.6565 12.9364 23.652 14.0783C23.6476 15.2199 23.5933 16.3501 23.4947 17.2357C23.4452 17.6801 23.3863 18.0477 23.3214 18.3183C23.2889 18.454 23.258 18.5516 23.232 18.6163C23.2012 18.6929 23.195 18.6781 23.237 18.6342L24.2622 19.5726C24.4004 19.4284 24.485 19.2537 24.5395 19.1183C24.5987 18.971 24.6476 18.8045 24.6891 18.6314C24.7723 18.2844 24.8388 17.8556 24.8912 17.3841C24.9966 16.4377 25.0522 15.2574 25.0568 14.0835C25.0614 12.9099 25.0151 11.7233 24.912 10.7649C24.8606 10.2873 24.7934 9.8503 24.7064 9.49357C24.6629 9.31532 24.6114 9.14383 24.5484 8.99119C24.4892 8.84779 24.4013 8.67417 24.2637 8.52975L23.2355 9.46503ZM23.2323 18.6392C23.356 18.5075 23.486 18.5133 23.4539 18.5142C23.4297 18.5149 23.3534 18.5094 23.21 18.4707C22.9281 18.3946 22.5323 18.2304 22.0541 17.9858C21.1068 17.5011 19.9558 16.7624 18.9682 16.0102L18.1046 17.0927C19.1461 17.8859 20.3676 18.6723 21.4025 19.2017C21.9155 19.4642 22.4132 19.6795 22.8356 19.7936C23.0444 19.85 23.273 19.8925 23.4949 19.8862C23.7088 19.88 24.0261 19.8239 24.2669 19.5676L23.2323 18.6392Z" fill="#212121"/>
<path d="M4.33835 14.0431C4.33835 11.3092 4.81219 9.70493 5.78258 8.75375C6.75232 7.80322 8.38742 7.33898 11.1759 7.33898V5.96643C8.30887 5.96643 6.17403 6.42587 4.78768 7.78477C3.40198 9.14303 2.93359 11.234 2.93359 14.0431H4.33835ZM11.1759 7.33898C13.9637 7.33898 15.5986 7.8032 16.5682 8.75373C17.5385 9.7049 18.0123 11.3092 18.0123 14.0431H19.4171C19.4171 11.234 18.9487 9.14305 17.5632 7.78479C16.177 6.42588 14.0424 5.96643 11.1759 5.96643V7.33898ZM18.0123 14.0431C18.0123 16.7765 17.5386 18.3808 16.5682 19.3321C15.5986 20.2828 13.9637 20.7472 11.1759 20.7472V22.1198C14.0424 22.1198 16.177 21.66 17.5632 20.301C18.9487 18.9427 19.4171 16.8517 19.4171 14.0431H18.0123ZM11.1759 20.7472C8.38749 20.7472 6.75237 20.2827 5.78261 19.3321C4.81217 18.3808 4.33835 16.7765 4.33835 14.0431H2.93359C2.93359 16.8517 3.40199 18.9427 4.78766 20.301C6.17397 21.66 8.3088 22.1198 11.1759 22.1198V20.7472Z" fill="#212121"/>
</svg>
