<svg width="28" height="28" viewBox="0 0 28 28" fill="none" xmlns="http://www.w3.org/2000/svg">
<path d="M8.68266 6.05862C8.68266 5.67746 8.36917 5.36847 7.98245 5.36847C7.59573 5.36847 7.28223 5.67746 7.28223 6.05862H8.68266ZM7.28223 19.6049C7.28223 19.986 7.59573 20.295 7.98245 20.295C8.36917 20.295 8.68266 19.986 8.68266 19.6049H7.28223ZM7.28223 6.05862V19.6049H8.68266V6.05862H7.28223Z" fill="#212121"/>
<path d="M3.4652 10.1357C3.28437 10.4726 3.41488 10.8902 3.75671 11.0685C4.09855 11.2467 4.52226 11.1181 4.70309 10.7812L3.4652 10.1357ZM12.349 10.7813C12.5299 11.1182 12.9537 11.2467 13.2955 11.0684C13.6373 10.8901 13.7677 10.4725 13.5868 10.1356L12.349 10.7813ZM4.08415 10.4584C4.70309 10.7812 4.70304 10.7813 4.703 10.7813C4.703 10.7813 4.70297 10.7814 4.70297 10.7814C4.70296 10.7814 4.70299 10.7814 4.70306 10.7812C4.70319 10.781 4.70346 10.7805 4.70387 10.7797C4.70469 10.7782 4.70607 10.7757 4.70801 10.7721C4.71188 10.765 4.71795 10.7539 4.72614 10.7391C4.74253 10.7094 4.76739 10.6648 4.80008 10.6076C4.86548 10.4929 4.962 10.3276 5.08446 10.1286C5.33022 9.72933 5.67656 9.20083 6.08233 8.67586C6.49127 8.1468 6.94333 7.64395 7.39704 7.27962C7.86572 6.90328 8.24659 6.74697 8.52604 6.74697V5.36667C7.7658 5.36667 7.0716 5.76055 6.51249 6.20951C5.93842 6.67049 5.40996 7.26805 4.96834 7.83939C4.52356 8.41483 4.14931 8.98673 3.88711 9.41273C3.7556 9.6264 3.65129 9.80499 3.57937 9.93105C3.5434 9.99412 3.51547 10.0441 3.49623 10.0789C3.48662 10.0964 3.47917 10.11 3.47397 10.1195C3.47137 10.1243 3.46934 10.1281 3.46787 10.1308C3.46714 10.1321 3.46655 10.1332 3.46611 10.134C3.46588 10.1344 3.4657 10.1348 3.46555 10.1351C3.46547 10.1352 3.46539 10.1354 3.46535 10.1354C3.46527 10.1356 3.4652 10.1357 4.08415 10.4584ZM8.52604 6.74697C8.80512 6.74697 9.18584 6.90321 9.65454 7.2796C10.1082 7.64395 10.5603 8.14683 10.9694 8.6759C11.3752 9.20089 11.7217 9.7294 11.9675 10.1287C12.09 10.3277 12.1866 10.493 12.252 10.6077C12.2847 10.6649 12.3096 10.7095 12.326 10.7392C12.3342 10.754 12.3402 10.7651 12.3441 10.7722C12.3461 10.7758 12.3474 10.7783 12.3483 10.7798C12.3487 10.7806 12.3489 10.7811 12.3491 10.7813C12.3491 10.7815 12.3492 10.7815 12.3492 10.7815C12.3492 10.7815 12.3491 10.7814 12.3491 10.7814C12.3491 10.7814 12.349 10.7813 12.9679 10.4584C13.5868 10.1356 13.5867 10.1355 13.5867 10.1353C13.5866 10.1353 13.5865 10.1351 13.5864 10.135C13.5863 10.1347 13.5861 10.1343 13.5859 10.1339C13.5855 10.1331 13.5848 10.132 13.5842 10.1306C13.5827 10.1279 13.5806 10.1242 13.578 10.1194C13.5729 10.1099 13.5654 10.0962 13.5558 10.0788C13.5366 10.044 13.5085 9.99401 13.4726 9.93094C13.4006 9.80489 13.2963 9.62631 13.1647 9.41264C12.9025 8.98666 12.5281 8.41477 12.0833 7.83935C11.6416 7.26802 11.1131 6.67049 10.5391 6.20953C9.98015 5.76063 9.28606 5.36667 8.52604 5.36667V6.74697Z" fill="#212121"/>
<path d="M18.0947 21.9754C18.0947 22.3566 18.4082 22.6656 18.7949 22.6656C19.1817 22.6656 19.4952 22.3566 19.4952 21.9754H18.0947ZM19.4952 8.42919C19.4952 8.04803 19.1817 7.73904 18.7949 7.73904C18.4082 7.73904 18.0947 8.04803 18.0947 8.42919H19.4952ZM19.4952 21.9754V8.42919H18.0947V21.9754H19.4952Z" fill="#212121"/>
<path d="M24.4022 17.8976C24.5832 17.5607 24.4527 17.143 24.1109 16.9647C23.7691 16.7864 23.3454 16.915 23.1645 17.2519L24.4022 17.8976ZM15.5185 17.2519C15.3376 16.915 14.9138 16.7864 14.572 16.9647C14.2302 17.143 14.0998 17.5607 14.2807 17.8976L15.5185 17.2519ZM23.7833 17.5747C23.1645 17.2519 23.1645 17.2518 23.1646 17.2517C23.1646 17.2517 23.1646 17.2516 23.1646 17.2516C23.1646 17.2516 23.1646 17.2517 23.1645 17.2518C23.1644 17.252 23.1641 17.2525 23.1637 17.2533C23.1629 17.2548 23.1615 17.2574 23.1595 17.2609C23.1557 17.268 23.1496 17.2792 23.1414 17.294C23.125 17.3237 23.1001 17.3682 23.0674 17.4255C23.002 17.5401 22.9054 17.7054 22.7829 17.9044C22.5371 18.3037 22.1906 18.8323 21.7848 19.3573C21.3758 19.8863 20.9237 20.3892 20.47 20.7535C20.0013 21.1299 19.6206 21.2862 19.3415 21.2862V22.6665C20.1015 22.6665 20.7956 22.2725 21.3546 21.8236C21.9286 21.3627 22.457 20.7651 22.8987 20.1938C23.3435 19.6184 23.7179 19.0465 23.9802 18.6205C24.1117 18.4068 24.2161 18.2283 24.288 18.1022C24.324 18.0391 24.352 17.9891 24.3712 17.9543C24.3808 17.9369 24.3883 17.9233 24.3934 17.9137C24.3961 17.909 24.3981 17.9052 24.3996 17.9025C24.4003 17.9012 24.4009 17.9001 24.4013 17.8992C24.4016 17.8988 24.4017 17.8985 24.4018 17.8982C24.4019 17.8981 24.402 17.8979 24.4021 17.8978C24.4021 17.8977 24.4022 17.8976 23.7833 17.5747ZM19.3415 21.2862C19.0624 21.2862 18.6817 21.1299 18.213 20.7535C17.7593 20.3892 17.3071 19.8863 16.8981 19.3573C16.4923 18.8323 16.1458 18.3037 15.9 17.9044C15.7775 17.7054 15.6809 17.5401 15.6155 17.4255C15.5828 17.3682 15.5579 17.3237 15.5415 17.294C15.5333 17.2792 15.5273 17.268 15.5234 17.2609C15.5214 17.2574 15.5201 17.2548 15.5192 17.2533C15.5188 17.2525 15.5186 17.252 15.5184 17.2518C15.5184 17.2517 15.5183 17.2516 15.5183 17.2516C15.5183 17.2516 15.5184 17.2517 15.5184 17.2517C15.5184 17.2518 15.5185 17.2519 14.8996 17.5747C14.2807 17.8976 14.2808 17.8977 14.2808 17.8978C14.2809 17.8979 14.281 17.8981 14.281 17.8982C14.2812 17.8985 14.2814 17.8988 14.2816 17.8992C14.282 17.9001 14.2826 17.9012 14.2834 17.9025C14.2848 17.9052 14.2869 17.909 14.2895 17.9137C14.2947 17.9233 14.3021 17.9369 14.3117 17.9543C14.331 17.9891 14.3589 18.0391 14.3949 18.1022C14.4669 18.2283 14.5712 18.4068 14.7027 18.6205C14.965 19.0465 15.3394 19.6184 15.7842 20.1938C16.2259 20.7651 16.7544 21.3627 17.3284 21.8236C17.8873 22.2725 18.5814 22.6665 19.3415 22.6665V21.2862Z" fill="#212121"/>
</svg>
