<svg width="28" height="28" viewBox="0 0 28 28" fill="none" xmlns="http://www.w3.org/2000/svg">
<path d="M14.1718 10.1312C14.1718 9.74264 13.8568 9.42764 13.4682 9.42764C13.0796 9.42764 12.7646 9.74264 12.7646 10.1312H14.1718ZM12.7646 17.9547C12.7646 18.3432 13.0796 18.6582 13.4682 18.6582C13.8568 18.6582 14.1718 18.3432 14.1718 17.9547H12.7646ZM12.7646 10.1312V17.9547H14.1718V10.1312H12.7646Z" fill="#212121"/>
<path d="M17.9589 14.1712C18.3475 14.1712 18.6625 13.8562 18.6625 13.4676C18.6625 13.0791 18.3475 12.7641 17.9589 12.7641V14.1712ZM10.1274 12.7641C9.73882 12.7641 9.42383 13.0791 9.42383 13.4676C9.42383 13.8562 9.73882 14.1712 10.1274 14.1712V12.7641ZM17.9589 12.7641H10.1274V14.1712H17.9589V12.7641Z" fill="#212121"/>
<path d="M4.09072 14.0432C4.09072 10.0864 4.75944 7.67216 6.21593 6.21567C7.67242 4.75918 10.0867 4.09046 14.0434 4.09046V2.68333C10.0086 2.68333 7.0947 3.34693 5.22094 5.22068C3.34719 7.09444 2.68359 10.0084 2.68359 14.0432H4.09072ZM14.0434 4.09046C18.0002 4.09046 20.4145 4.75918 21.871 6.21567C23.3274 7.67216 23.9962 10.0864 23.9962 14.0432H25.4033C25.4033 10.0084 24.7397 7.09444 22.866 5.22068C20.9923 3.34693 18.0783 2.68333 14.0434 2.68333V4.09046ZM23.9962 14.0432C23.9962 18 23.3274 20.4142 21.871 21.8707C20.4145 23.3272 18.0002 23.9959 14.0434 23.9959V25.4031C18.0783 25.4031 20.9923 24.7395 22.866 22.8657C24.7397 20.992 25.4033 18.078 25.4033 14.0432H23.9962ZM14.0434 23.9959C10.0867 23.9959 7.67242 23.3272 6.21593 21.8707C4.75944 20.4142 4.09072 18 4.09072 14.0432H2.68359C2.68359 18.078 3.34719 20.992 5.22094 22.8657C7.0947 24.7395 10.0086 25.4031 14.0434 25.4031V23.9959Z" fill="#212121"/>
</svg>
