<svg width="17" height="17" viewBox="0 0 17 17" fill="none" xmlns="http://www.w3.org/2000/svg">
<mask id="mask0_1_11906" style="mask-type:alpha" maskUnits="userSpaceOnUse" x="0" y="0" width="17" height="17">
<path d="M8.5 0C6.24566 0 4.08365 0.895533 2.4896 2.4896C0.895533 4.08365 0 6.24566 0 8.5C0 10.7544 0.895533 12.9163 2.4896 14.5104C4.08365 16.1045 6.24566 17 8.5 17C9.34791 17.0023 10.1912 16.8756 11.0009 16.624C11.1049 16.5972 11.1988 16.5403 11.2706 16.4606L16.4606 11.2706C16.5385 11.1973 16.5951 11.1041 16.624 11.0009C16.8756 10.1912 17.0023 9.34791 17 8.5C16.9957 6.24699 16.0987 4.08749 14.5057 2.49437C12.9125 0.901241 10.753 0.00432027 8.5 0ZM11.4423 5.88462C11.6363 5.88462 11.8259 5.94213 11.9871 6.04991C12.1485 6.15767 12.2742 6.31085 12.3484 6.49006C12.4227 6.66927 12.4421 6.86647 12.4042 7.05673C12.3664 7.24698 12.273 7.42173 12.1358 7.55889C11.9987 7.69605 11.8239 7.78946 11.6336 7.82731C11.4434 7.86515 11.2462 7.84574 11.0669 7.7715C10.8877 7.69727 10.7346 7.57156 10.6268 7.41027C10.5191 7.24899 10.4615 7.05936 10.4615 6.86538C10.4615 6.60527 10.5649 6.3558 10.7488 6.17188C10.9327 5.98794 11.1822 5.88462 11.4423 5.88462ZM5.55769 5.88462C5.75167 5.88462 5.9413 5.94213 6.10258 6.04991C6.26387 6.15767 6.38957 6.31085 6.46381 6.49006C6.53803 6.66927 6.55746 6.86647 6.51962 7.05673C6.48177 7.24698 6.38836 7.42173 6.2512 7.55889C6.11404 7.69605 5.93929 7.78946 5.74903 7.82731C5.55878 7.86515 5.36158 7.84574 5.18236 7.7715C5.00316 7.69727 4.84998 7.57156 4.74222 7.41027C4.63444 7.24899 4.57692 7.05936 4.57692 6.86538C4.57692 6.60527 4.68025 6.3558 4.86419 6.17188C5.04811 5.98794 5.29758 5.88462 5.55769 5.88462ZM12.464 10.7885C12.0623 11.4844 11.4845 12.0623 10.7887 12.464C10.0928 12.8658 9.30349 13.0773 8.5 13.0773C7.69651 13.0773 6.90718 12.8658 6.21136 12.464C5.51553 12.0623 4.93774 11.4844 4.53606 10.7885C4.48488 10.7142 4.44962 10.6302 4.43248 10.5417C4.41533 10.4532 4.41669 10.362 4.43646 10.2741C4.45622 10.1861 4.49395 10.1032 4.54731 10.0305C4.60066 9.9578 4.66847 9.89694 4.74648 9.85171C4.82448 9.80649 4.911 9.7779 5.00058 9.76772C5.09018 9.75754 5.1809 9.76599 5.26707 9.79257C5.35323 9.81914 5.43296 9.86323 5.50126 9.9221C5.56957 9.98097 5.62495 10.0533 5.66394 10.1346C5.95189 10.6317 6.36549 11.0446 6.86325 11.3314C7.36101 11.6184 7.92546 11.7694 8.5 11.7694C9.07454 11.7694 9.63899 11.6184 10.1367 11.3314C10.6345 11.0446 11.0481 10.6317 11.336 10.1346C11.4294 9.99912 11.5706 9.90381 11.7312 9.86775C11.8916 9.83168 12.06 9.85749 12.2023 9.94003C12.3447 10.0226 12.4507 10.1558 12.4992 10.313C12.5477 10.4703 12.5351 10.6401 12.464 10.7885Z" fill="#FF4D00"/>
</mask>
<g mask="url(#mask0_1_11906)">
<path d="M8.5 0C6.24566 0 4.08365 0.895533 2.4896 2.4896C0.895533 4.08365 0 6.24566 0 8.5C0 10.7544 0.895533 12.9163 2.4896 14.5104C4.08365 16.1045 6.24566 17 8.5 17C9.34791 17.0023 10.1912 16.8756 11.0009 16.624C11.1049 16.5972 11.1988 16.5403 11.2706 16.4606L16.4606 11.2706C16.5385 11.1973 16.5951 11.1041 16.624 11.0009C16.8756 10.1912 17.0023 9.34791 17 8.5C16.9957 6.24699 16.0987 4.08749 14.5057 2.49437C12.9125 0.901241 10.753 0.00432027 8.5 0ZM11.4423 5.88462C11.6363 5.88462 11.8259 5.94213 11.9871 6.04991C12.1485 6.15767 12.2742 6.31085 12.3484 6.49006C12.4227 6.66927 12.4421 6.86647 12.4042 7.05673C12.3664 7.24698 12.273 7.42173 12.1358 7.55889C11.9987 7.69605 11.8239 7.78946 11.6336 7.82731C11.4434 7.86515 11.2462 7.84574 11.0669 7.7715C10.8877 7.69727 10.7346 7.57156 10.6268 7.41027C10.5191 7.24899 10.4615 7.05936 10.4615 6.86538C10.4615 6.60527 10.5649 6.3558 10.7488 6.17188C10.9327 5.98794 11.1822 5.88462 11.4423 5.88462ZM5.55769 5.88462C5.75167 5.88462 5.9413 5.94213 6.10258 6.04991C6.26387 6.15767 6.38957 6.31085 6.46381 6.49006C6.53803 6.66927 6.55746 6.86647 6.51962 7.05673C6.48177 7.24698 6.38836 7.42173 6.2512 7.55889C6.11404 7.69605 5.93929 7.78946 5.74903 7.82731C5.55878 7.86515 5.36158 7.84574 5.18236 7.7715C5.00316 7.69727 4.84998 7.57156 4.74222 7.41027C4.63444 7.24899 4.57692 7.05936 4.57692 6.86538C4.57692 6.60527 4.68025 6.3558 4.86419 6.17188C5.04811 5.98794 5.29758 5.88462 5.55769 5.88462ZM12.464 10.7885C12.0623 11.4844 11.4845 12.0623 10.7887 12.464C10.0928 12.8658 9.30349 13.0773 8.5 13.0773C7.69651 13.0773 6.90718 12.8658 6.21136 12.464C5.51553 12.0623 4.93774 11.4844 4.53606 10.7885C4.48488 10.7142 4.44962 10.6302 4.43248 10.5417C4.41533 10.4532 4.41669 10.362 4.43646 10.2741C4.45622 10.1861 4.49395 10.1032 4.54731 10.0305C4.60066 9.9578 4.66847 9.89694 4.74648 9.85171C4.82448 9.80649 4.911 9.7779 5.00058 9.76772C5.09018 9.75754 5.1809 9.76599 5.26707 9.79257C5.35323 9.81914 5.43296 9.86323 5.50126 9.9221C5.56957 9.98097 5.62495 10.0533 5.66394 10.1346C5.95189 10.6317 6.36549 11.0446 6.86325 11.3314C7.36101 11.6184 7.92546 11.7694 8.5 11.7694C9.07454 11.7694 9.63899 11.6184 10.1367 11.3314C10.6345 11.0446 11.0481 10.6317 11.336 10.1346C11.4294 9.99912 11.5706 9.90381 11.7312 9.86775C11.8916 9.83168 12.06 9.85749 12.2023 9.94003C12.3447 10.0226 12.4507 10.1558 12.4992 10.313C12.5477 10.4703 12.5351 10.6401 12.464 10.7885Z" fill="#FF4D00"/>
</g>
</svg>
